<?xml version="1.0" encoding="UTF-8" standalone="no"?>
<!-- Created with Inkscape (http://www.inkscape.org/) -->

<svg
   xmlns:dc="http://purl.org/dc/elements/1.1/"
   xmlns:cc="http://creativecommons.org/ns#"
   xmlns:rdf="http://www.w3.org/1999/02/22-rdf-syntax-ns#"
   xmlns:svg="http://www.w3.org/2000/svg"
   xmlns="http://www.w3.org/2000/svg"
   xmlns:xlink="http://www.w3.org/1999/xlink"
   xmlns:sodipodi="http://sodipodi.sourceforge.net/DTD/sodipodi-0.dtd"
   xmlns:inkscape="http://www.inkscape.org/namespaces/inkscape"
   id="svg3052"
   version="1.1"
   inkscape:version="0.48.3.1 r9886"
   width="1024"
   height="1024"
   sodipodi:docname="aerskirt1.svg"
   inkscape:export-filename="/home/ari/Share/lipsofsuna-data/apparel/aerskirt1.png"
   inkscape:export-xdpi="90"
   inkscape:export-ydpi="90">
  <metadata
     id="metadata3058">
    <rdf:RDF>
      <cc:Work
         rdf:about="">
        <dc:format>image/svg+xml</dc:format>
        <dc:type
           rdf:resource="http://purl.org/dc/dcmitype/StillImage" />
        <dc:title />
      </cc:Work>
    </rdf:RDF>
  </metadata>
  <defs
     id="defs3056" />
  <sodipodi:namedview
     pagecolor="#ffffff"
     bordercolor="#666666"
     borderopacity="1"
     objecttolerance="10"
     gridtolerance="10"
     guidetolerance="10"
     inkscape:pageopacity="0"
     inkscape:pageshadow="2"
     inkscape:window-width="1887"
     inkscape:window-height="1058"
     id="namedview3054"
     showgrid="false"
     inkscape:zoom="0.65186406"
     inkscape:cx="889.69125"
     inkscape:cy="393.44755"
     inkscape:window-x="33"
     inkscape:window-y="0"
     inkscape:window-maximized="1"
     inkscape:current-layer="svg3052" />
  <path
     style="fill:#422f83;fill-opacity:1;stroke:#422f83;stroke-width:1px;stroke-linecap:butt;stroke-linejoin:miter;stroke-opacity:1"
     d="m 512.03431,517.89454 c 10.89799,0.9253 22.36251,1.17925 33.5474,0.95994 14.08257,-0.27613 28.2521,-0.6271 42.15871,-2.86347 8.84723,-1.42276 26.03978,-6.67903 26.03978,-6.67903 l 3.66396,-0.8508 18.26032,31.54192 c 0,0 -22.13747,9.49355 -33.35973,13.85854 -12.47751,4.85323 -27.48541,11.69655 -37.7545,13.70315 -17.25861,3.37236 -52.47099,1.70553 -52.47099,1.70553 z"
     id="path3049"
     inkscape:connector-curvature="0"
     sodipodi:nodetypes="caacccascc" />
  <path
     style="fill:#422f83;fill-opacity:1;stroke:#422f83;stroke-width:1px;stroke-linecap:butt;stroke-linejoin:miter;stroke-opacity:1"
     d="m 916.25699,496.7384 -12.86104,28.32455 c 8.29969,3.98727 18.99537,10.58816 29.19593,14.20468 21.47211,7.61274 43.97287,12.57009 66.56679,15.48899 9.09463,1.17494 17.25073,1.08693 27.49973,0.77959 l 0.8834,-15.58114 -1.0906,-36.1717 c 0,0 -17.1345,0.67753 -25.7059,0.65411 -16.62213,-0.0454 -33.30938,0.17495 -49.84279,-1.54086 -11.66687,-1.21077 -34.64552,-6.15822 -34.64552,-6.15822 z"
     id="path3051"
     inkscape:connector-curvature="0"
     sodipodi:nodetypes="ccaacccaac" />
  <path
     sodipodi:nodetypes="caacccascc"
     inkscape:connector-curvature="0"
     id="path3085"
     d="m 511.93969,517.62335 c -10.89799,0.9253 -22.36251,1.17925 -33.5474,0.95994 -14.08257,-0.27613 -28.2521,-0.6271 -42.15871,-2.86347 -8.84723,-1.42276 -26.03978,-6.67903 -26.03978,-6.67903 l -3.66396,-0.8508 -18.26032,31.54192 c 0,0 22.13747,9.49355 33.35973,13.85854 12.47751,4.85323 27.48541,11.69655 37.7545,13.70315 17.25861,3.37236 52.47099,1.70553 52.47099,1.70553 z"
     style="fill:#422f83;fill-opacity:1;stroke:#422f83;stroke-width:1px;stroke-linecap:butt;stroke-linejoin:miter;stroke-opacity:1" />
  <path
     sodipodi:nodetypes="ccaacccaac"
     inkscape:connector-curvature="0"
     id="path3087"
     d="m 107.71701,496.46721 12.86104,28.32455 c -8.29969,3.98727 -18.99537,10.58816 -29.195927,14.20468 -21.47211,7.61274 -43.97287,12.57009 -66.56679,15.48899 -9.09463,1.17494 -17.2507296,1.08693 -27.4997296,0.77959 l -0.8834,-15.58114 1.0906,-36.1717 c 0,0 17.1344996,0.67753 25.7058996,0.65411 16.62213,-0.0454 33.30938,0.17495 49.84279,-1.54086 11.66687,-1.21077 34.645517,-6.15822 34.645517,-6.15822 z"
     style="fill:#422f83;fill-opacity:1;stroke:#422f83;stroke-width:1px;stroke-linecap:butt;stroke-linejoin:miter;stroke-opacity:1" />
  <g
     id="g3932"
     style="stroke:#000000;stroke-opacity:1;stroke-width:3;stroke-miterlimit:4;stroke-dasharray:none">
    <path
       sodipodi:nodetypes="csc"
       inkscape:connector-curvature="0"
       id="path3928"
       d="m 617.65179,507.40456 c -10.8853,3.91404 -30.45624,7.85991 -46.05029,9.2838 -19.03943,1.73849 -35.51088,1.58632 -59.76711,1.88468"
       style="fill:none;stroke:#000000;stroke-width:3;stroke-linecap:butt;stroke-linejoin:miter;stroke-miterlimit:4;stroke-opacity:1;stroke-dasharray:none" />
    <path
       sodipodi:nodetypes="cac"
       inkscape:connector-curvature="0"
       id="path3930"
       d="m 916.02688,495.51558 c 16.7014,5.5993 35.90839,6.5483 54.07569,7.86207 18.87083,1.36464 56.76033,0 56.76033,0"
       style="fill:none;stroke:#000000;stroke-width:3;stroke-linecap:butt;stroke-linejoin:miter;stroke-opacity:1;stroke-miterlimit:4;stroke-dasharray:none" />
  </g>
  <use
     x="0"
     y="0"
     xlink:href="#g3932"
     id="use4444"
     transform="matrix(-1,0,0,1,1023.8265,0.01645022)"
     width="1024"
     height="1024" />
</svg>
