<?xml version="1.0" encoding="UTF-8" standalone="no"?>
<!-- Created with Inkscape (http://www.inkscape.org/) -->

<svg
   xmlns:dc="http://purl.org/dc/elements/1.1/"
   xmlns:cc="http://creativecommons.org/ns#"
   xmlns:rdf="http://www.w3.org/1999/02/22-rdf-syntax-ns#"
   xmlns:svg="http://www.w3.org/2000/svg"
   xmlns="http://www.w3.org/2000/svg"
   xmlns:sodipodi="http://sodipodi.sourceforge.net/DTD/sodipodi-0.dtd"
   xmlns:inkscape="http://www.inkscape.org/namespaces/inkscape"
   width="232.92754"
   height="247.72667"
   id="svg2"
   version="1.1"
   inkscape:version="0.48.3.1 r9886"
   sodipodi:docname="aer-eye-default-1.svg"
   inkscape:export-filename="/home/ari/Share/lipsofsuna/data/lipsofsuna/actors/aer/face/aer-eye-default-1.png"
   inkscape:export-xdpi="90.099304"
   inkscape:export-ydpi="90.099304">
  <defs
     id="defs4">
    <linearGradient
       id="linearGradient6076">
      <stop
         style="stop-color:#000000;stop-opacity:1;"
         offset="0"
         id="stop6078" />
      <stop
         style="stop-color:#000000;stop-opacity:0;"
         offset="1"
         id="stop6080" />
    </linearGradient>
    <linearGradient
       id="linearGradient6050">
      <stop
         style="stop-color:#000000;stop-opacity:1;"
         offset="0"
         id="stop6052" />
      <stop
         style="stop-color:#000000;stop-opacity:0;"
         offset="1"
         id="stop6054" />
    </linearGradient>
    <marker
       style="overflow:visible"
       inkscape:stockid="InfiniteLineEnd"
       id="InfiniteLineEnd"
       refX="0"
       refY="0"
       orient="auto">
      <g
         id="g4344"
         style="fill:#000000">
        <circle
           id="circle4346"
           r="0.80000001"
           cy="0"
           cx="3"
           sodipodi:cx="3"
           sodipodi:cy="0"
           sodipodi:rx="0.80000001"
           sodipodi:ry="0.80000001" />
        <circle
           id="circle4348"
           r="0.80000001"
           cy="0"
           cx="6.5"
           sodipodi:cx="6.5"
           sodipodi:cy="0"
           sodipodi:rx="0.80000001"
           sodipodi:ry="0.80000001" />
        <circle
           id="circle4350"
           r="0.80000001"
           cy="0"
           cx="10"
           sodipodi:cx="10"
           sodipodi:cy="0"
           sodipodi:rx="0.80000001"
           sodipodi:ry="0.80000001" />
      </g>
    </marker>
    <marker
       inkscape:stockid="TriangleInL"
       orient="auto"
       refY="0"
       refX="0"
       id="TriangleInL"
       style="overflow:visible">
      <path
         id="path4242"
         d="m 5.77,0 -8.65,5 0,-10 8.65,5 z"
         style="fill-rule:evenodd;stroke:#000000;stroke-width:1pt"
         transform="scale(-0.8,-0.8)"
         inkscape:connector-curvature="0" />
    </marker>
    <marker
       inkscape:stockid="Arrow2Sstart"
       orient="auto"
       refY="0"
       refX="0"
       id="Arrow2Sstart"
       style="overflow:visible">
      <path
         id="path4139"
         style="fill-rule:evenodd;stroke-width:0.625;stroke-linejoin:round"
         d="M 8.7185878,4.0337352 -2.2072895,0.01601326 8.7185884,-4.0017078 c -1.7454984,2.3720609 -1.7354408,5.6174519 -6e-7,8.035443 z"
         transform="matrix(0.3,0,0,0.3,-0.69,0)"
         inkscape:connector-curvature="0" />
    </marker>
    <marker
       inkscape:stockid="Arrow1Sstart"
       orient="auto"
       refY="0"
       refX="0"
       id="Arrow1Sstart"
       style="overflow:visible">
      <path
         id="path4121"
         d="M 0,0 5,-5 -12.5,0 5,5 0,0 z"
         style="fill-rule:evenodd;stroke:#000000;stroke-width:1pt"
         transform="matrix(0.2,0,0,0.2,1.2,0)"
         inkscape:connector-curvature="0" />
    </marker>
  </defs>
  <sodipodi:namedview
     id="base"
     pagecolor="#ffffff"
     bordercolor="#666666"
     borderopacity="1.0"
     inkscape:pageopacity="0.0"
     inkscape:pageshadow="2"
     inkscape:zoom="2.847086"
     inkscape:cx="116.4026"
     inkscape:cy="128.28163"
     inkscape:document-units="px"
     inkscape:current-layer="layer1"
     showgrid="false"
     inkscape:window-width="1887"
     inkscape:window-height="1058"
     inkscape:window-x="33"
     inkscape:window-y="0"
     inkscape:window-maximized="1"
     fit-margin-top="20"
     fit-margin-left="20"
     fit-margin-right="20"
     fit-margin-bottom="20" />
  <metadata
     id="metadata7">
    <rdf:RDF>
      <cc:Work
         rdf:about="">
        <dc:format>image/svg+xml</dc:format>
        <dc:type
           rdf:resource="http://purl.org/dc/dcmitype/StillImage" />
        <dc:title></dc:title>
      </cc:Work>
    </rdf:RDF>
  </metadata>
  <g
     inkscape:label="Ebene 1"
     inkscape:groupmode="layer"
     id="layer1"
     transform="translate(-272.54233,-365.74882)">
    <path
       style="fill:#ffffff;fill-opacity:1;stroke:none;display:inline"
       d="m 315.46545,508.02883 c -9.14654,-1.94051 -14.42613,-13.99002 -15.6301,-18.60266 -1.00077,-10.07239 -1.60889,-15.87113 14.08717,-28.96327 4.77932,-3.8531 11.02885,-8.13412 22.18136,-9.23696 23.77213,2.8209 26.09292,9.89466 30.47046,17.91507 3.10834,28.69002 -9.59456,38.65563 -13.11503,39.07259 -14.39945,2.35392 -25.34722,2.86743 -37.99386,-0.18494 z"
       id="path3844"
       inkscape:connector-curvature="0"
       sodipodi:nodetypes="ccccccc" />
    <path
       style="fill:none;stroke:#000000;stroke-width:3.19992614;stroke-linecap:round;stroke-linejoin:miter;stroke-miterlimit:4.84000015;stroke-opacity:1;stroke-dasharray:none;display:inline"
       d="m 358.90304,453.00977 c -15.954,-11.84708 -39.23145,-5.88649 -44.65522,-0.96126"
       id="path3842"
       inkscape:connector-curvature="0"
       sodipodi:nodetypes="cc" />
    <path
       style="fill:#000000;fill-opacity:1;stroke:none;display:inline"
       d="m 298.97649,482.89092 c -1.58063,3.07939 -4.84937,4.68543 -9.93607,5.30715 5.46835,-1.92755 7.23378,-4.52732 10.14007,-8.4253 z"
       id="path3846"
       inkscape:connector-curvature="0"
       sodipodi:nodetypes="cccc" />
    <path
       style="fill:#000000;fill-opacity:1;stroke:none;display:inline"
       d="m 301.42644,473.89316 c -1.09808,2.20219 -7.15374,6.69634 -12.07897,5.54218 2.98293,-0.0457 13.65764,-6.98528 12.51816,-7.94379 z"
       id="path3848"
       inkscape:connector-curvature="0"
       sodipodi:nodetypes="cccc" />
    <path
       style="fill:#2f5e29;fill-opacity:1;stroke:none;display:inline"
       d="m 322.02623,456.3926 c -16.08222,9.47188 -12.48042,47.11587 -0.26969,51.71768 0,0 24.72732,0.57979 26.09687,0.38483 10.23766,-1.45748 11.0804,-49.41308 1.60245,-52.55829 -7.81754,-4.289 -23.65271,-2.65631 -27.42966,0.45578 z"
       id="path3838"
       inkscape:connector-curvature="0"
       sodipodi:nodetypes="ccscc" />
    <path
       style="fill:#000000;fill-opacity:1;stroke:none;display:inline"
       d="m 312.88984,507.81933 c 14.96099,0.75502 26.74025,1.32545 42.86568,0.12157 l -2.96134,1.70699 c 0,0 0.69185,0.56907 1.35569,0.81553 -11.63973,-0.73895 -39.02887,0.23069 -39.02887,0.23069 l 1.4639,-0.74863 z"
       id="path3840"
       inkscape:connector-curvature="0"
       sodipodi:nodetypes="ccccccc" />
    <path
       style="fill:#7fc376;fill-opacity:1;stroke:none;display:inline"
       d="m 349.54825,484.56892 c -3.57872,-0.0394 -3.73997,1.91089 -5.30121,6.2432 -1.84632,4.07033 -2.91462,6.81979 -10.13143,6.88003 -7.21674,0.06 -8.01901,-2.19395 -10.01927,-6.97923 -1.06182,-4.7044 -2.41092,-6.18989 -5.02667,-5.92755 -2.61573,0.26239 -4.00883,4.59451 -2.5554,10.25591 2.1074,8.20889 6.57024,11.5975 16.9802,11.53372 10.40992,-0.0638 16.26754,-4.01896 17.73786,-11.98628 0.47316,-2.56404 1.8946,-9.98044 -1.68408,-10.0198 z"
       id="path3850"
       inkscape:connector-curvature="0"
       sodipodi:nodetypes="zczczszsz" />
    <path
       style="fill:#000000;fill-opacity:1;stroke:none;display:inline"
       d="m 367.22769,470.89755 c -2.37237,-4.27373 -9.26148,-10.42769 -13.54589,-12.55128 -4.042,-2.00344 -10.73119,-3.68802 -19.64377,-3.47 -8.91258,0.21808 -8.69788,1.24788 -14.32285,3.90186 -5.625,2.65402 -7.00257,4.24313 -11.02972,9.64388 -4.02721,5.4008 -8.90409,17.42158 -8.20672,24.66564 l -1.54721,-5.47179 -0.93797,4.80632 c -1.09698,-6.27368 1.04328,-18.12794 7.06498,-27.16637 6.02172,-9.03852 16.23047,-15.92598 28.6765,-16.062 12.44599,-0.13591 17.29634,2.01317 21.69455,4.6639 4.89868,2.95232 12.09026,11.90317 12.67247,15.03322 l -1.72849,-1.99423 z"
       id="path3066"
       inkscape:connector-curvature="0"
       sodipodi:nodetypes="cszszccczzsccc" />
    <path
       style="fill:#aed9a8;fill-opacity:1;stroke:none;display:inline"
       d="m 323.91399,492.82431 c 2.9452,-0.32433 0.80351,4.65773 10.63186,4.56223 9.82829,-0.0955 6.55259,-4.61968 9.57014,-4.52698 3.01756,0.0927 1.70551,10.14035 -9.75312,10.2409 -11.45863,0.10039 -13.39405,-9.95185 -10.44888,-10.27615 z"
       id="path3897"
       inkscape:connector-curvature="0"
       sodipodi:nodetypes="zzzzz" />
    <path
       style="fill:#ffffff;fill-opacity:1;stroke:#ffffff;stroke-width:3.19992614;stroke-linecap:butt;stroke-linejoin:miter;stroke-miterlimit:4.84000015;stroke-opacity:1;stroke-dasharray:none;display:inline"
       d="m 327.11149,497.24668 c 0,0 -2.59186,2.36728 -4.86544,3.68618 0.60356,0.97537 2.39185,1.85738 2.39185,1.85738 z"
       id="path3879"
       inkscape:connector-curvature="0"
       sodipodi:nodetypes="cccc" />
    <path
       sodipodi:nodetypes="cccc"
       inkscape:connector-curvature="0"
       id="path3877"
       d="m 334.63011,499.87991 c 0,0 -0.39131,3.37029 -0.9912,5.21617 0.63109,0.0357 1.82454,-0.0213 1.82454,-0.0213 z"
       style="fill:#ffffff;fill-opacity:1;stroke:#ffffff;stroke-width:3.19992614;stroke-linecap:butt;stroke-linejoin:miter;stroke-miterlimit:4.84000015;stroke-opacity:1;stroke-dasharray:none;display:inline" />
    <path
       style="fill:#ffffff;fill-opacity:1;stroke:#ffffff;stroke-width:3.19992614;stroke-linecap:butt;stroke-linejoin:miter;stroke-miterlimit:4.84000015;stroke-opacity:1;stroke-dasharray:none;display:inline"
       d="m 341.79815,497.28631 c 0,0 1.56901,2.54233 2.77028,4.76452 0.55503,-0.25946 2.39784,-2.14581 2.39784,-2.14581 z"
       id="path3856"
       inkscape:connector-curvature="0"
       sodipodi:nodetypes="cccc"
       inkscape:transform-center-y="0.44440296"
       inkscape:transform-center-x="0.018854489" />
    <path
       style="fill:#172f14;fill-opacity:1;stroke:none;display:inline"
       d="m 311.64166,480.7641 c 4.23245,-12.24088 11.08408,-20.81059 22.45839,-21.05046 8.9349,-0.18835 13.19255,0.50842 21.18675,8.32717 l -4.02383,-12.32864 -17.2923,-2.33944 -14.92951,4.22389 c -3.62354,7.61525 -7.0453,16.77451 -7.3995,23.16748 z"
       id="path3893"
       inkscape:connector-curvature="0"
       sodipodi:nodetypes="csccccc" />
    <path
       sodipodi:type="arc"
       style="fill:#172f14;fill-opacity:1;stroke:none;display:inline"
       id="path3895"
       sodipodi:cx="122.95904"
       sodipodi:cy="156.20126"
       sodipodi:rx="11.742034"
       sodipodi:ry="28.136572"
       d="m 134.70107,156.20126 a 11.742034,28.136572 0 1 1 -23.48407,0 11.742034,28.136572 0 1 1 23.48407,0 z"
       transform="matrix(0.61492848,0,0,0.51726969,258.87842,398.19507)" />
    <path
       sodipodi:nodetypes="ccscc"
       inkscape:connector-curvature="0"
       id="path3891"
       d="m 322.02623,456.3926 c -16.08222,9.47188 -12.48042,47.11587 -0.26969,51.71768 0,0 24.72732,0.57979 26.09687,0.38483 10.23766,-1.45748 13.39639,-49.41308 -0.0314,-52.90211 -7.81755,-4.28896 -22.01791,-2.31249 -25.79484,0.7996 z"
       style="fill:none;stroke:#000000;stroke-width:3.19992614;stroke-linecap:butt;stroke-linejoin:miter;stroke-miterlimit:4.84000015;stroke-opacity:1;stroke-dasharray:none;display:inline" />
    <path
       sodipodi:type="arc"
       style="fill:#ffffff;fill-opacity:1;stroke:none;display:inline"
       id="path3852"
       sodipodi:cx="142.81032"
       sodipodi:cy="137.29024"
       sodipodi:rx="11.237947"
       sodipodi:ry="7.7024131"
       d="m 154.04827,137.29024 a 11.237947,7.7024131 0 1 1 -22.4759,0 11.237947,7.7024131 0 1 1 22.4759,0 z"
       transform="matrix(0.69841865,0,0,0.56902034,225.31644,390.98974)" />
    <path
       sodipodi:type="arc"
       style="fill:#ffffff;fill-opacity:1;stroke:none;display:inline"
       id="path3854"
       sodipodi:cx="102.27795"
       sodipodi:cy="184.64114"
       sodipodi:rx="5.2472816"
       sodipodi:ry="4.0585575"
       d="m 107.52523,184.64114 a 5.2472816,4.0585575 0 1 1 -10.494565,0 5.2472816,4.0585575 0 1 1 10.494565,0 z"
       transform="matrix(0.82419621,0,0,0.67658416,259.20167,366.54232)" />
    <path
       sodipodi:nodetypes="ccccccc"
       inkscape:connector-curvature="0"
       id="path4185"
       d="m 464.60355,508.02883 c 9.23011,-1.94051 14.55795,-13.99002 15.77292,-18.60266 1.00991,-10.07239 1.62364,-15.87113 -14.21591,-28.96327 -4.82301,-3.8531 -11.12962,-8.13412 -22.3841,-9.23696 -23.98936,2.8209 -26.33132,9.89466 -30.74893,17.91507 -3.13672,28.69002 9.68224,38.65563 13.23494,39.07259 14.53101,2.35392 25.57886,2.86743 38.34108,-0.18494 z"
       style="fill:#ffffff;fill-opacity:1;stroke:none;display:inline" />
    <path
       sodipodi:nodetypes="cc"
       inkscape:connector-curvature="0"
       id="path4187"
       d="m 420.76895,453.00977 c 16.0998,-11.84708 39.58998,-5.88649 45.06334,-0.96126"
       style="fill:none;stroke:#000000;stroke-width:3.21451497;stroke-linecap:round;stroke-linejoin:miter;stroke-miterlimit:4.84000015;stroke-opacity:1;stroke-dasharray:none;display:inline" />
    <path
       sodipodi:nodetypes="cccc"
       inkscape:connector-curvature="0"
       id="path4189"
       d="m 481.24318,482.89092 c 1.59508,3.07939 4.89373,4.68543 10.02691,5.30715 -5.51834,-1.92755 -7.2999,-4.52732 -10.23274,-8.4253 z"
       style="fill:#000000;fill-opacity:1;stroke:none;display:inline" />
    <path
       sodipodi:nodetypes="cccc"
       inkscape:connector-curvature="0"
       id="path4191"
       d="m 478.77084,473.89316 c 1.10813,2.20219 7.21914,6.69634 12.18937,5.54218 -3.0102,-0.0457 -13.78243,-6.98528 -12.63258,-7.94379 z"
       style="fill:#000000;fill-opacity:1;stroke:none;display:inline" />
    <path
       sodipodi:nodetypes="ccscc"
       inkscape:connector-curvature="0"
       id="path4193"
       d="m 457.9828,456.3926 c 16.22918,9.47188 12.59452,47.11587 0.27217,51.71768 0,0 -24.95334,0.57979 -26.33536,0.38483 -10.33121,-1.45748 -11.18169,-49.41308 -1.61711,-52.55829 7.88897,-4.289 23.8689,-2.65631 27.68036,0.45578 z"
       style="fill:#2f5e29;fill-opacity:1;stroke:none;display:inline" />
    <path
       sodipodi:nodetypes="ccccccc"
       inkscape:connector-curvature="0"
       id="path4195"
       d="m 467.20269,507.81933 c -15.09775,0.75502 -26.98466,1.32545 -43.25747,0.12157 l 2.98844,1.70699 c 0,0 -0.6982,0.56907 -1.36808,0.81553 11.7461,-0.73895 39.38558,0.23069 39.38558,0.23069 l -1.47732,-0.74863 z"
       style="fill:#000000;fill-opacity:1;stroke:none;display:inline" />
    <path
       sodipodi:nodetypes="zczczszsz"
       inkscape:connector-curvature="0"
       id="path4197"
       d="m 430.20926,484.56892 c 3.61142,-0.0394 3.77413,1.91089 5.34966,6.2432 1.86317,4.07033 2.94126,6.81979 10.22397,6.88003 7.28273,0.06 8.09233,-2.19395 10.11086,-6.97923 1.07156,-4.7044 2.43296,-6.18989 5.07266,-5.92755 2.63964,0.26239 4.04546,4.59451 2.57875,10.25591 -2.12671,8.20889 -6.63032,11.5975 -17.13543,11.53372 -10.50504,-0.0638 -16.41622,-4.01896 -17.89993,-11.98628 -0.47752,-2.56404 -1.91197,-9.98044 1.69946,-10.0198 z"
       style="fill:#7fc376;fill-opacity:1;stroke:none;display:inline" />
    <path
       sodipodi:nodetypes="cszszccczzsccc"
       inkscape:connector-curvature="0"
       id="path4199"
       d="m 412.36825,470.89755 c 2.39402,-4.27373 9.34609,-10.42769 13.66966,-12.55128 4.07897,-2.00344 10.8293,-3.68802 19.82332,-3.47 8.99402,0.21808 8.77738,1.24788 14.45374,3.90186 5.6764,2.65402 7.06655,4.24313 11.13054,9.64388 4.06402,5.4008 8.98547,17.42158 8.28173,24.66564 l 1.56133,-5.47179 0.94656,4.80632 c 1.10696,-6.27368 -1.05285,-18.12794 -7.12959,-27.16637 -6.07673,-9.03852 -16.37879,-15.92598 -28.93854,-16.062 -12.55977,-0.13591 -17.45442,2.01317 -21.89284,4.6639 -4.94346,2.95232 -12.20077,11.90317 -12.78827,15.03322 l 1.74428,-1.99423 z"
       style="fill:#000000;fill-opacity:1;stroke:none;display:inline" />
    <path
       sodipodi:nodetypes="zzzzz"
       inkscape:connector-curvature="0"
       id="path4201"
       d="m 456.07779,492.82431 c -2.97214,-0.32433 -0.81088,4.65773 -10.729,4.56223 -9.91817,-0.0955 -6.61251,-4.61968 -9.65765,-4.52698 -3.04511,0.0927 -1.72108,10.14035 9.84225,10.2409 11.56337,0.10039 13.51647,-9.95185 10.5444,-10.27615 z"
       style="fill:#aed9a8;fill-opacity:1;stroke:none;display:inline" />
    <path
       sodipodi:nodetypes="cccc"
       inkscape:connector-curvature="0"
       id="path4203"
       d="m 452.85107,497.24668 c 0,0 2.61555,2.36728 4.90989,3.68618 -0.60906,0.97537 -2.41371,1.85738 -2.41371,1.85738 z"
       style="fill:#ffffff;fill-opacity:1;stroke:#ffffff;stroke-width:3.21451497;stroke-linecap:butt;stroke-linejoin:miter;stroke-miterlimit:4.84000015;stroke-opacity:1;stroke-dasharray:none;display:inline" />
    <path
       style="fill:#ffffff;fill-opacity:1;stroke:#ffffff;stroke-width:3.21451497;stroke-linecap:butt;stroke-linejoin:miter;stroke-miterlimit:4.84000015;stroke-opacity:1;stroke-dasharray:none;display:inline"
       d="m 445.26373,499.87991 c 0,0 0.39489,3.37029 1.00025,5.21617 -0.63684,0.0357 -1.84124,-0.0213 -1.84124,-0.0213 z"
       id="path4205"
       inkscape:connector-curvature="0"
       sodipodi:nodetypes="cccc" />
    <path
       inkscape:transform-center-x="0.019027315"
       inkscape:transform-center-y="0.44440296"
       sodipodi:nodetypes="cccc"
       inkscape:connector-curvature="0"
       id="path4207"
       d="m 438.03016,497.28631 c 0,0 -1.58333,2.54233 -2.79559,4.76452 -0.56009,-0.25946 -2.41972,-2.14581 -2.41972,-2.14581 z"
       style="fill:#ffffff;fill-opacity:1;stroke:#ffffff;stroke-width:3.21451497;stroke-linecap:butt;stroke-linejoin:miter;stroke-miterlimit:4.84000015;stroke-opacity:1;stroke-dasharray:none;display:inline" />
    <path
       sodipodi:nodetypes="csccccc"
       inkscape:connector-curvature="0"
       id="path4209"
       d="m 468.46226,480.7641 c -4.2711,-12.24088 -11.18539,-20.81059 -22.66362,-21.05046 -9.01657,-0.18835 -13.31315,0.50842 -21.38037,8.32717 l 4.06062,-12.32864 17.45029,-2.33944 15.06597,4.22389 c 3.65667,7.61525 7.1097,16.77451 7.46711,23.16748 z"
       style="fill:#172f14;fill-opacity:1;stroke:none;display:inline" />
    <path
       transform="matrix(-0.62054831,0,0,0.51726969,521.70774,398.19507)"
       d="m 134.70107,156.20126 a 11.742034,28.136572 0 1 1 -23.48407,0 11.742034,28.136572 0 1 1 23.48407,0 z"
       sodipodi:ry="28.136572"
       sodipodi:rx="11.742034"
       sodipodi:cy="156.20126"
       sodipodi:cx="122.95904"
       id="path4211"
       style="fill:#172f14;fill-opacity:1;stroke:none;display:inline"
       sodipodi:type="arc" />
    <path
       style="fill:none;stroke:#000000;stroke-width:3.21451497;stroke-linecap:butt;stroke-linejoin:miter;stroke-miterlimit:4.84000015;stroke-opacity:1;stroke-dasharray:none;display:inline"
       d="m 457.9828,456.3926 c 16.22918,9.47188 12.59452,47.11587 0.27217,51.71768 0,0 -24.95334,0.57979 -26.33536,0.38483 -10.33121,-1.45748 -13.51886,-49.41308 0.0315,-52.90211 7.88899,-4.28896 22.21916,-2.31249 26.03057,0.7996 z"
       id="path4213"
       inkscape:connector-curvature="0"
       sodipodi:nodetypes="ccscc" />
    <path
       transform="matrix(-0.70480151,0,0,0.56902034,535.03722,390.60066)"
       d="m 154.04827,137.29024 a 11.237947,7.7024131 0 1 1 -22.4759,0 11.237947,7.7024131 0 1 1 22.4759,0 z"
       sodipodi:ry="7.7024131"
       sodipodi:rx="11.237947"
       sodipodi:cy="137.29024"
       sodipodi:cx="142.81032"
       id="path4215"
       style="fill:#ffffff;fill-opacity:1;stroke:none;display:inline"
       sodipodi:type="arc" />
    <path
       transform="matrix(-0.83172855,0,0,0.67658416,540.36472,366.54232)"
       d="m 107.52523,184.64114 a 5.2472816,4.0585575 0 1 1 -10.494565,0 5.2472816,4.0585575 0 1 1 10.494565,0 z"
       sodipodi:ry="4.0585575"
       sodipodi:rx="5.2472816"
       sodipodi:cy="184.64114"
       sodipodi:cx="102.27795"
       id="path4217"
       style="fill:#ffffff;fill-opacity:1;stroke:none;display:inline"
       sodipodi:type="arc" />
  </g>
</svg>
