<?xml version="1.0" encoding="UTF-8" standalone="no"?>
<!-- Created with Inkscape (http://www.inkscape.org/) -->

<svg
   xmlns:dc="http://purl.org/dc/elements/1.1/"
   xmlns:cc="http://creativecommons.org/ns#"
   xmlns:rdf="http://www.w3.org/1999/02/22-rdf-syntax-ns#"
   xmlns:svg="http://www.w3.org/2000/svg"
   xmlns="http://www.w3.org/2000/svg"
   xmlns:xlink="http://www.w3.org/1999/xlink"
   xmlns:sodipodi="http://sodipodi.sourceforge.net/DTD/sodipodi-0.dtd"
   xmlns:inkscape="http://www.inkscape.org/namespaces/inkscape"
   id="svg3036"
   version="1.1"
   inkscape:version="0.48.3.1 r9886"
   width="1024"
   height="1024"
   sodipodi:docname="aershirt1.svg"
   inkscape:export-filename="/home/ari/Share/lipsofsuna-data/apparel/aershirt1.png"
   inkscape:export-xdpi="90"
   inkscape:export-ydpi="90">
  <metadata
     id="metadata3042">
    <rdf:RDF>
      <cc:Work
         rdf:about="">
        <dc:format>image/svg+xml</dc:format>
        <dc:type
           rdf:resource="http://purl.org/dc/dcmitype/StillImage" />
        <dc:title></dc:title>
      </cc:Work>
    </rdf:RDF>
  </metadata>
  <defs
     id="defs3040" />
  <sodipodi:namedview
     pagecolor="#ffffff"
     bordercolor="#666666"
     borderopacity="1"
     objecttolerance="10"
     gridtolerance="10"
     guidetolerance="10"
     inkscape:pageopacity="0"
     inkscape:pageshadow="2"
     inkscape:window-width="1887"
     inkscape:window-height="1058"
     id="namedview3038"
     showgrid="false"
     inkscape:zoom="1.6210937"
     inkscape:cx="506.06957"
     inkscape:cy="550.83555"
     inkscape:window-x="33"
     inkscape:window-y="0"
     inkscape:window-maximized="1"
     inkscape:current-layer="svg3036" />
  <g
     id="g3865">
    <path
       sodipodi:nodetypes="cccccccaaccccsaccccccscccc"
       inkscape:connector-curvature="0"
       id="path3046"
       d="m 512.30843,476.99277 c 0.619,1.61467 80.445,-2.37072 81.73494,-4.47229 l -3.08433,-16.96385 0,-17.58073 16.65542,-53.82168 -0.15421,-6.16867 c 0,0 -0.17765,-16.82953 -10e-6,-21.35905 -4.37757,-2.97335 -8.64194,-7.03381 -12.32639,-11.18072 -6.53848,-7.35918 -12.71343,-15.25944 -17.12903,-24.05783 -2.85843,-5.69561 -5.86024,-18.19759 -5.86024,-18.19759 l 0.30843,-3.08434 -12.33735,-7.09397 -1.23373,3.08433 c 0.12465,0 -5.25061,7.99627 -9.86988,10.79519 -6.66235,4.03687 -14.02393,7.09191 -21.59036,8.94457 -5.71395,1.39908 -17.58072,1.54217 -17.58072,1.54217 l 0.30843,31.46024 21.28193,0 28.68433,0 10.17832,21.8988 -13.26265,38.55422 c 0,0 -10.17832,7.09397 -11.41205,7.40241 -1.23374,0.30843 -15.73012,0 -15.73012,0 l 0.30843,7.09397 c 0,0 -17.56428,-0.24322 -18.79802,-0.24322 1e-5,3.23855 0.90886,53.44804 0.90886,53.44804 z"
       style="fill:#e3e3f9;fill-opacity:1;stroke:#e3e3f9;stroke-width:1px;stroke-linecap:butt;stroke-linejoin:miter;stroke-opacity:1" />
    <path
       sodipodi:nodetypes="caaaaacccccccccc"
       inkscape:connector-curvature="0"
       id="path3048"
       d="m 656.65542,544.69398 c 0.30844,-1.85061 3.51108,-14.92074 5.86024,-22.20723 1.58774,-4.92476 5.24764,-9.33096 5.55181,-14.49639 0.46759,-7.94067 -4.94776,-15.23061 -5.86024,-23.13253 -1.29754,-11.23644 0.20274,-22.62419 0.61687,-33.92771 0.47878,-13.06808 -1.43016,-26.59644 2.15903,-39.17108 1.35125,-4.73408 7.09398,-12.95422 7.09398,-12.95422 l -8.79812,-1.39571 22.50017,-10.00992 54.42438,6.45519 38.26128,40.96235 4.03157,67.62182 -38.86266,40.40482 -43.79759,13.26265 -44.10602,-5.5518 z"
       style="fill:#e3e3f9;fill-opacity:1;stroke:#e3e3f9;stroke-width:1px;stroke-linecap:butt;stroke-linejoin:miter;stroke-opacity:1" />
    <path
       inkscape:connector-curvature="0"
       id="path3050"
       d="m 663.13253,554.25542 39.78795,6.16868 19.12289,76.49156 -16.03855,11.41205 -0.61687,11.10361 c 0,0 14.18795,11.41205 14.49639,12.64579 0.30843,1.23373 -21.59036,72.17349 -21.59036,72.17349 l -1.54217,7.71085 -33.61928,0.61686 -1.54217,-108.26024 z"
       style="fill:#e3e3f9;fill-opacity:1;stroke:#e3e3f9;stroke-width:1px;stroke-linecap:butt;stroke-linejoin:miter;stroke-opacity:1" />
    <path
       sodipodi:nodetypes="caacccccssaaaaacccsaaaaaaacc"
       inkscape:connector-curvature="0"
       id="path3052"
       d="m 1025.3615,459.43851 c 0,0 -13.8437,1.55083 -20.7928,1.97836 -10.98436,0.67579 -21.99736,0.96338 -33.00243,0.9253 C 956.85536,462.29126 927.46024,460.8 927.46024,460.8 l -0.61687,-63.84578 -1.8506,-33.92771 -4.13419,-16.01343 3.20889,-0.0251 c -0.0423,-0.33869 5.58274,-0.0344 8.47097,0 4.55288,0.0543 5.77064,-7.75661 11.7734,-10.50545 9.70039,-4.44211 13.10426,-17.17914 17.83624,-26.81503 5.02836,-10.23941 8.85549,-21.20818 10.96035,-32.41976 1.261,-6.71667 2.34736,-13.79673 0.92531,-20.48116 -1.58791,-7.46406 -6.5555,-13.79349 -10.25315,-20.46889 -4.25171,-7.67563 -7.88602,-15.90533 -13.69884,-22.47825 -2.54954,-2.88291 -9.05042,-7.16881 -9.05042,-7.16881 l -1.54217,-2.15903 16.96385,-8.32772 c 0,0 1.9451,9.80076 4.66393,14.16925 0.84984,1.36548 2.23122,4.97712 2.96249,7.59399 0.4056,1.45145 0.32006,3.01798 0.77841,4.45364 1.10839,3.47177 2.96837,6.66514 4.70659,9.86832 2.9494,5.43515 6.63189,10.44512 9.68622,15.82201 1.64679,2.89905 3.19867,5.854 4.65297,8.85424 3.42583,7.0675 4.02051,15.98074 9.58336,21.52516 4.65336,4.63793 11.67352,6.30494 18.03242,7.95672 4.7435,1.23217 14.6396,1.36149 14.6396,1.36149 z"
       style="fill:#e3e3f9;fill-opacity:1;stroke:#e3e3f9;stroke-width:1px;stroke-linecap:butt;stroke-linejoin:miter;stroke-opacity:1" />
  </g>
  <g
     id="g3861"
     style="stroke-width:3;stroke-miterlimit:4;stroke-dasharray:none">
    <path
       style="fill:none;stroke:#000000;stroke-width:3;stroke-linecap:butt;stroke-linejoin:miter;stroke-opacity:1;stroke-miterlimit:4;stroke-dasharray:none"
       d="m 510.45783,476.83855 c 0.619,1.61467 82.2956,-2.2165 83.58554,-4.31807 M 607.46024,356.6265 c -4.37757,-2.97335 -8.64194,-7.03381 -12.32639,-11.18072 -6.53848,-7.35918 -12.71343,-15.25944 -17.12903,-24.05783 -2.85843,-5.69561 -5.86024,-18.19759 -5.86024,-18.19759 l 0.53976,-4.24097 m -12.33735,-6.55421 -1.46506,3.7012 c 0.12465,0 -5.25061,7.99627 -9.86988,10.79519 -6.66235,4.03687 -14.02393,7.09191 -21.59036,8.94457 -5.71395,1.39908 -17.58072,1.54217 -17.58072,1.54217"
       id="path3853"
       inkscape:connector-curvature="0"
       sodipodi:nodetypes="cccaaccccsac" />
    <path
       style="fill:none;stroke:#000000;stroke-width:3;stroke-linecap:butt;stroke-linejoin:miter;stroke-miterlimit:4;stroke-opacity:1;stroke-dasharray:none"
       d="m 920.36627,346.67955 c -0.0423,-0.33869 9.28394,0.27403 12.17217,0.30843 4.55288,0.0543 5.77064,-7.75661 11.7734,-10.50545 9.70039,-4.44211 13.10426,-17.17914 17.83624,-26.81503 5.02836,-10.23941 8.85549,-21.20818 10.96035,-32.41976 1.261,-6.71667 2.34736,-13.79673 0.92531,-20.48116 -1.58791,-7.46406 -6.5555,-13.79349 -10.25315,-20.46889 -4.25171,-7.67563 -7.88602,-15.90533 -13.69884,-22.47825 -2.54954,-2.88291 -9.05042,-7.16881 -9.05042,-7.16881 l -1.54217,-2.15903 16.96385,-8.32772 c 0,0 1.9451,9.80076 4.66393,14.16925 0.84984,1.36548 2.23122,4.97712 2.96249,7.59399 0.4056,1.45145 0.32006,3.01798 0.77841,4.45364 1.10839,3.47177 2.96837,6.66514 4.70659,9.86832 2.9494,5.43515 6.63189,10.44512 9.68622,15.82201 1.64679,2.89905 3.19867,5.854 4.65297,8.85424 3.42583,7.0675 4.02051,15.98074 9.58336,21.52516 4.65336,4.63793 11.67352,6.30494 18.03242,7.95672 4.7435,1.23217 14.6396,1.36149 14.6396,1.36149 m -0.6168,172.72287 c -1.0302,0.0634 -16.0398,0.82102 -24.0649,1.10526 -9.96719,0.35303 -19.93813,0.77985 -29.91103,0.74534 C 956.85536,462.29127 927.46024,460.8 927.46024,460.8"
       id="path3859"
       inkscape:connector-curvature="0"
       sodipodi:nodetypes="cssaaaaacccsaaaaaaaccasc" />
  </g>
  <use
     x="0"
     y="0"
     xlink:href="#g3865"
     id="use3873"
     transform="matrix(-1,0,0,1,1024.2662,0)"
     width="1024"
     height="1024" />
  <use
     x="0"
     y="0"
     xlink:href="#g3861"
     id="use3875"
     transform="matrix(-1,0,0,1,1024.2662,0)"
     width="1024"
     height="1024" />
</svg>
