<?xml version="1.0" encoding="UTF-8" standalone="no"?>
<!-- Created with Inkscape (http://www.inkscape.org/) -->

<svg
   xmlns:dc="http://purl.org/dc/elements/1.1/"
   xmlns:cc="http://creativecommons.org/ns#"
   xmlns:rdf="http://www.w3.org/1999/02/22-rdf-syntax-ns#"
   xmlns:svg="http://www.w3.org/2000/svg"
   xmlns="http://www.w3.org/2000/svg"
   xmlns:xlink="http://www.w3.org/1999/xlink"
   xmlns:sodipodi="http://sodipodi.sourceforge.net/DTD/sodipodi-0.dtd"
   xmlns:inkscape="http://www.inkscape.org/namespaces/inkscape"
   id="svg3071"
   version="1.1"
   inkscape:version="0.48.3.1 r9886"
   width="1024"
   height="1024"
   sodipodi:docname="aerbra1.svg"
   inkscape:export-filename="/home/ari/Share/lipsofsuna-data/apparel/aerbra1.png"
   inkscape:export-xdpi="90"
   inkscape:export-ydpi="90">
  <metadata
     id="metadata3077">
    <rdf:RDF>
      <cc:Work
         rdf:about="">
        <dc:format>image/svg+xml</dc:format>
        <dc:type
           rdf:resource="http://purl.org/dc/dcmitype/StillImage" />
        <dc:title></dc:title>
      </cc:Work>
    </rdf:RDF>
  </metadata>
  <defs
     id="defs3075" />
  <sodipodi:namedview
     pagecolor="#ffffff"
     bordercolor="#666666"
     borderopacity="1"
     objecttolerance="10"
     gridtolerance="10"
     guidetolerance="10"
     inkscape:pageopacity="0"
     inkscape:pageshadow="2"
     inkscape:window-width="1887"
     inkscape:window-height="1058"
     id="namedview3073"
     showgrid="false"
     showguides="true"
     inkscape:guide-bbox="true"
     inkscape:zoom="0.46875"
     inkscape:cx="699.36746"
     inkscape:cy="599.86162"
     inkscape:window-x="33"
     inkscape:window-y="0"
     inkscape:window-maximized="1"
     inkscape:current-layer="svg3071" />
  <g
     id="g4067">
    <path
       inkscape:connector-curvature="0"
       id="path4043"
       d="m 672.8,465.86667 c 1.06667,0.8 56.8,-1.86667 56.8,-1.86667 l -10.93333,-5.6 -5.6,-12.26667 -1.6,-10.13333 2.93333,-18.4 5.33333,-8 L 725.6,401.33333 728.8,389.6 709.86667,387.46667 708,392 l -5.6,7.46667 -8,7.2 -5.6,16 -8,14.66666 c 0,0 -2.4,13.6 -2.4,14.93334 0,1.33333 -5.6,13.6 -5.6,13.6 z"
       style="fill:#ffffff;stroke:none;stroke-width:1px;stroke-linecap:butt;stroke-linejoin:miter;stroke-opacity:1;fill-opacity:1" />
    <path
       sodipodi:nodetypes="cssccsccc"
       inkscape:connector-curvature="0"
       id="path3081"
       d="m 709.06667,633.6 c 0,0 -46.66667,26.66667 -45.86667,28 0.8,1.33333 0.8,81.33333 2.4,82.66667 1.6,1.33333 5.33333,3.2 5.33333,3.2 l 27.2,0.53333 c 0,0 0.53334,-22.4 1.06667,-24 0.53333,-1.6 17.33333,-52.8 17.33333,-52.8 l -10.66666,-9.33333 z"
       style="fill:#ffffff;fill-opacity:1;stroke:none" />
    <path
       sodipodi:nodetypes="caascccccccccc"
       inkscape:connector-curvature="0"
       id="path3083"
       d="m 781.02301,492.06714 c 0,0 -14.77836,-11.5922 -23.00454,-16.02776 -9.53372,-5.14059 -19.62534,-9.59208 -30.16989,-12.06795 -15.02125,-3.527 -30.64586,-3.83288 -46.13849,-3.73333 -3.03391,0.0195 -8.36142,3.59607 -8.36142,3.59607 l -9.98823,17.86207 c 2.35331,6.12454 5.77205,13.31451 6.78823,18.10193 l 1.31993,8.29672 c -4.15675,14.37234 -9.14216,32.6636 -13.38789,38.84373 l 43.9349,6.03399 6.97679,0.37712 38.84373,-16.97057 37.71236,-39.22085 z"
       style="fill:#ffffff;fill-opacity:1;stroke:none" />
    <path
       sodipodi:nodetypes="cscccccssscc"
       inkscape:connector-curvature="0"
       id="path3085"
       d="m 600.19224,404.76302 c -8.04846,0.44099 -11.37416,-0.72191 -17.45108,-9.20187 -2.58969,-3.61375 -7.67641,-4.06405 -13.37878,-6.16592 l -7.63675,14.8021 -5.46829,8.10816 -6.78823,4.90261 -20.17611,0.94281 c 0,0 1.37097,7.52818 1.88562,6.97679 0.34231,-0.36675 19.40208,-2.99745 31.67838,-3.58268 3.00784,-0.14339 5.57237,-2.67193 8.57956,-2.82843 8.81112,-0.45853 25.92725,-0.18856 25.92725,-0.18856 z"
       style="fill:#ffffff;fill-opacity:1;stroke:none" />
    <path
       sodipodi:nodetypes="cccc"
       inkscape:connector-curvature="0"
       id="path3944"
       d="m 926.96985,404.00877 0.37713,5.84542 17.34768,-8.48528 z"
       style="fill:#ffffff;fill-opacity:1;stroke:#ffffff;stroke-width:1px;stroke-linecap:butt;stroke-linejoin:miter;stroke-opacity:1" />
    <path
       sodipodi:nodetypes="ccccc"
       inkscape:connector-curvature="0"
       id="path3926"
       d="m 707.10679,689.30279 c -0.16981,-1.46111 -42.01134,0.0937 -42.42641,1.13137 l 0.18856,-17.15912 c 16.38919,-1.1 32.50623,-1.65571 47.8947,-0.75426 z"
       style="fill:#6085ef;fill-opacity:1;stroke:#6085ef;stroke-width:1px;stroke-linecap:butt;stroke-linejoin:miter;stroke-opacity:1" />
    <path
       sodipodi:nodetypes="caccacc"
       inkscape:connector-curvature="0"
       id="path3928"
       d="m 703.33555,661.01852 c 0,0 -13.37174,-0.42032 -19.98756,0.37712 -5.6923,0.68612 -16.782,3.77124 -16.782,3.77124 l 15.27351,-12.63365 c 0,0 6.39846,-0.81023 9.61665,-0.9428 4.08253,-0.16818 8.11388,-0.44877 12.25652,0.18856 z"
       style="fill:#6085ef;fill-opacity:1;stroke:#6085ef;stroke-width:1px;stroke-linecap:butt;stroke-linejoin:miter;stroke-opacity:1" />
    <path
       sodipodi:nodetypes="ccccc"
       inkscape:connector-curvature="0"
       id="path3930"
       d="m 700.13,713.4387 c -12.1449,0.0693 -23.99578,1.31478 -35.63819,3.39411 l 0.94281,18.66762 c 11.75793,-2.14128 23.94833,-4.71502 32.80976,-3.9598 z"
       style="fill:#6085ef;fill-opacity:1;stroke:#6085ef;stroke-width:1px;stroke-linecap:butt;stroke-linejoin:miter;stroke-opacity:1" />
    <path
       sodipodi:nodetypes="caaaaaccccaaaaacc"
       inkscape:connector-curvature="0"
       id="path3932"
       d="m 783.28575,494.70701 c 0,0 -18.01957,-3.6435 -27.1529,-4.52549 -4.5688,-0.4412 -9.1816,-0.13013 -13.76501,-0.37713 -5.47802,-0.29521 -10.92106,-1.16661 -16.40488,-1.31993 -7.73031,-0.21612 -15.46167,0.39409 -23.1931,0.56569 -4.71383,0.10462 -9.4287,0.40379 -14.14214,0.28284 -4.85048,-0.12447 -14.51925,-1.03709 -14.51925,-1.03709 l -8.67385,-0.37712 -1.88561,-5.84542 1.69705,-3.77123 c 0,0 9.18002,-0.002 13.76501,-0.18857 4.65796,-0.18913 9.30595,-0.57968 13.95358,-0.9428 7.80072,-0.60947 15.55892,-1.90848 23.38166,-2.07418 4.08894,-0.0866 8.16731,0.49289 12.25652,0.56568 5.97051,0.10627 11.98452,-0.90063 17.91337,-0.18856 6.5689,0.78895 19.23331,4.90261 19.23331,4.90261 z"
       style="fill:#6085ef;fill-opacity:1;stroke:#6085ef;stroke-width:1px;stroke-linecap:butt;stroke-linejoin:miter;stroke-opacity:1" />
    <path
       sodipodi:nodetypes="caaaasccaacc"
       inkscape:connector-curvature="0"
       id="path3934"
       d="m 669.9601,499.04393 c 1.88562,0 13.57712,0.0744 20.36468,0.18855 5.15483,0.0867 10.32268,-0.0308 15.46207,0.37713 5.62692,0.44661 11.21032,1.35825 16.782,2.26274 7.64147,1.24049 15.20348,2.92952 22.81598,4.33692 8.03794,1.48606 24.89016,3.58268 24.13591,4.33692 -0.75424,0.75425 -16.782,17.91337 -16.782,17.91337 -5.29126,-2.05693 -11.05091,-4.53482 -15.83919,-6.22254 -7.14895,-2.50188 -14.40522,-4.696 -21.68461,-6.78822 -6.43228,-1.84875 -12.84,-3.87826 -19.42187,-5.09117 -8.02071,-1.47806 -24.32447,-2.63986 -24.32447,-2.63986 z"
       style="fill:#6085ef;fill-opacity:1;stroke:#6085ef;stroke-width:1px;stroke-linecap:butt;stroke-linejoin:miter;stroke-opacity:1" />
    <path
       sodipodi:nodetypes="ccaccaaac"
       inkscape:connector-curvature="0"
       id="path3936"
       d="m 665.62319,526.95107 -4.52549,14.3307 c 0,0 20.87762,-2.05477 31.1127,-0.37712 7.68975,1.26044 22.06173,7.73103 22.06173,7.73103 l 23.00454,-9.42809 c 0,0 -5.94778,-0.81226 -8.8624,-1.50849 -7.23192,-1.72752 -14.14965,-4.58714 -21.30749,-6.59967 -5.1804,-1.45654 -10.31308,-3.27525 -15.65063,-3.9598 -8.54126,-1.09543 -25.83296,-0.18856 -25.83296,-0.18856 z"
       style="fill:#6085ef;fill-opacity:1;stroke:#6085ef;stroke-width:1px;stroke-linecap:butt;stroke-linejoin:miter;stroke-opacity:1" />
    <path
       inkscape:connector-curvature="0"
       id="path3938"
       d="m 597.55237,413.81399 -14.89638,-3.20555 -22.25029,-3.01699 c 0,0 4.05407,-9.05097 4.4312,-9.05097 0.37712,0 10.75032,-0.25807 15.93347,0.94281 3.25236,0.75353 9.23953,3.86552 9.23953,3.86552 l 9.99378,1.79133 z"
       style="fill:#6085ef;fill-opacity:1;stroke:#6085ef;stroke-width:1px;stroke-linecap:butt;stroke-linejoin:miter;stroke-opacity:1"
       sodipodi:nodetypes="cccsaccc" />
    <path
       inkscape:connector-curvature="0"
       id="path3940"
       d="m 566.91108,420.03653 c 0,0 -5.35016,-1.20021 -7.4482,-2.82843 -1.33631,-1.03707 -2.9227,-4.14836 -2.9227,-4.14836 l -6.69395,3.86552 c 0,0 2.70235,2.94193 4.43121,3.86551 1.06242,0.56756 3.01699,0.94281 3.48839,0.94281 0.47141,0 7.25963,-0.4714 7.25963,-0.4714 z"
       style="fill:#6085ef;fill-opacity:1;stroke:#6085ef;stroke-width:1px;stroke-linecap:butt;stroke-linejoin:miter;stroke-opacity:1"
       sodipodi:nodetypes="caccascc" />
    <path
       sodipodi:nodetypes="csaaaasasaassccaaaassassc"
       inkscape:connector-curvature="0"
       id="path4573"
       d="m 926.66666,392.53334 c 0,0 1.40997,0.4604 3.02888,-0.18876 3.21953,-1.29098 7.46308,-6.33503 11.15765,-9.54541 4.65445,-4.04446 9.80948,-7.59967 13.86937,-12.24066 3.46511,-3.96107 6.65722,-8.30614 8.78045,-13.12163 1.28143,-2.90629 1.49791,-6.17345 2.27261,-9.25377 0.77818,-3.09411 1.88616,-6.11814 2.38619,-9.26917 0.82924,-5.22554 1.07838,-10.64283 1.45609,-15.97731 0.86258,-12.18231 0.0955,-24.45104 1.84915,-36.59173 0.52525,-3.63634 2.14401,-7.08523 2.44961,-10.74658 0.49788,-5.96503 0.46068,-12.13121 -1.03319,-17.92757 -1.07483,-4.17046 -3.94299,-7.66938 -5.58382,-11.6513 -5.4422,-13.20701 -10.87592,-26.29956 -17.92281,-39.22843 -0.98496,-1.8071 -3.58455,-4.55573 -1.21776,-6.05301 1.83322,-1.15973 4.30493,-2.19687 6.75967,-3.58102 1.01587,-0.57282 1.63073,2.08783 2.35118,3.19738 3.24247,4.9937 6.6514,9.98406 8.84012,15.52122 0.85042,2.15145 0.84487,4.56851 1.61687,6.74933 1.98373,5.60385 5.34799,10.62722 7.68197,16.09447 2.62837,6.15681 6.59726,12.41332 7.10552,18.78413 1.81177,22.70999 -2.18533,47.28594 -0.73192,68.86762 0.47431,7.04294 2.78203,14.10065 6.30981,20.21479 4.66396,8.08332 10.62044,16.414 18.9626,20.59742 4.7289,2.37146 16.0303,2.36362 20.2724,2.22855 1.3058,-0.0416 0.2403,13.23812 0.2403,13.23812"
       style="fill:#ffffff;fill-opacity:1;stroke:#000000;stroke-width:3;stroke-linecap:butt;stroke-linejoin:miter;stroke-miterlimit:4;stroke-opacity:1;stroke-dasharray:none" />
    <path
       sodipodi:nodetypes="caaccccaaacc"
       inkscape:connector-curvature="0"
       id="path3087"
       d="m 1027.0962,379.11861 c 0,0 -28.4328,-2.90651 -42.615,-1.88561 -10.40191,0.74877 -20.74713,2.84683 -30.73557,5.84541 -8.28441,2.48702 -23.94735,9.99378 -23.94735,9.99378 0,0 -2.82843,-0.37713 -2.63987,0.37712 0.18857,0.75425 0.75425,14.70782 0.75425,14.70782 l 3.58268,-0.37712 c 0,0 13.65734,-7.48072 20.93036,-10.18234 7.37446,-2.7393 14.98829,-5.25057 22.81597,-6.03398 12.71808,-1.27285 25.50823,1.71289 38.27803,2.26275 4.6486,0.20016 13.9536,0.37712 13.9536,0.37712 z"
       style="fill:#6085ef;fill-opacity:1;stroke:#6085ef;stroke-opacity:1" />
    <path
       sodipodi:nodetypes="cscaaaacssssaaasc"
       inkscape:connector-curvature="0"
       id="path4575"
       d="m 785.33333,496.53333 c 0,0 -13.54944,-12.81546 -21.6,-17.33333 -9.67398,-5.42891 -19.94895,-10.38739 -30.61844,-13.67654 -19.75475,-6.5069 -17.29163,-14.36995 -20.73941,-24.4987 -1.52153,-4.46988 -0.10141,-9.4894 0.65565,-14.15006 0.72071,-4.43684 1.66332,-8.9541 3.67165,-12.97549 1.97548,-3.95563 6.05519,-6.60074 8.03373,-10.55484 2.16525,-4.32724 3.32829,-7.84605 3.974,-13.96164 -5.7105,-0.92401 -13.38282,-0.35753 -16.66108,-1.36423 -4.2333,-1.29997 -0.72513,0.42263 -4.31764,3.75046 -1.75827,1.62873 -3.19522,4.07428 -4.93671,6.35969 -2.34548,3.07804 -6.44491,5.04117 -8.21336,8.36223 -2.95371,5.54691 -3.87815,11.97575 -6.37982,17.74067 -2.11565,4.87537 -5.54162,9.1638 -7.27236,14.18871 -1.6701,4.84886 -1.36779,10.21557 -2.90227,15.10904 -1.54267,4.91958 -5.85119,13.8344 -6.27808,14.13593 -1.01257,0.71522 -1.61586,-0.19855 -1.61586,-0.19855"
       style="fill:none;stroke:#000000;stroke-width:4.5;stroke-linecap:butt;stroke-linejoin:miter;stroke-miterlimit:4;stroke-opacity:1;stroke-dasharray:none" />
    <path
       sodipodi:nodetypes="ccc"
       inkscape:connector-curvature="0"
       id="path4577"
       d="m 708.52099,639.8996 c 0.0932,-0.518 -24.66945,15.72884 -25.6444,16.21632 l -19.42187,13.76501"
       style="fill:none;stroke:#000000;stroke-width:3;stroke-linecap:butt;stroke-linejoin:miter;stroke-miterlimit:4;stroke-opacity:1;stroke-dasharray:none" />
    <path
       sodipodi:nodetypes="caasc"
       inkscape:connector-curvature="0"
       id="path4579"
       d="m 531.08433,423.1478 c 0.37713,0 15.21312,-0.43694 22.81598,-0.75425 3.7413,-0.15615 7.6298,0.50028 11.21943,-0.56568 1.91702,-0.56927 3.18787,-2.92368 5.18545,-3.01699 9.24801,-0.43198 27.79105,0.0341 27.53002,-0.37713"
       style="fill:none;stroke:#000000;stroke-width:3;stroke-linecap:butt;stroke-linejoin:miter;stroke-miterlimit:4;stroke-opacity:1;stroke-dasharray:none" />
    <path
       sodipodi:nodetypes="caaac"
       inkscape:connector-curvature="0"
       id="path4581"
       d="m 600.75792,404.8573 c 0,0 -7.50217,-0.24394 -10.74802,-1.88561 -2.63808,-1.33428 -4.25552,-4.10508 -6.4111,-6.12826 -1.58924,-1.49163 -2.93767,-3.31261 -4.80833,-4.43121 -2.96845,-1.77504 -9.80521,-3.39411 -9.80521,-3.39411"
       style="fill:none;stroke:#000000;stroke-width:3;stroke-linecap:butt;stroke-linejoin:miter;stroke-miterlimit:4;stroke-opacity:1;stroke-dasharray:none" />
    <path
       sodipodi:nodetypes="cc"
       inkscape:connector-curvature="0"
       id="path5103"
       d="m 697.67869,745.30565 -32.24407,-4.14836"
       style="fill:none;stroke:#000000;stroke-width:3;stroke-linecap:butt;stroke-linejoin:miter;stroke-miterlimit:4;stroke-opacity:1;stroke-dasharray:none" />
    <path
       sodipodi:nodetypes="cccaaaaccccaaaaac"
       inkscape:connector-curvature="0"
       id="path3273"
       d="M 547.2,348.13333 558.53333,348 l 0,-2.4 c 0,0 1.00111,-4.84253 1.73334,-7.2 0.84711,-2.72735 2.29678,-5.24985 3.06666,-8 1.33955,-4.78508 2.11455,-9.7284 2.66667,-14.66667 0.346,-3.09468 -0.39554,-6.3227 0.4,-9.33333 0.49766,-1.88332 2.66667,-5.2 2.66667,-5.2 l 1.06667,-1.86667 -12.00001,-5.6 -0.53333,2.8 c 0,0 -0.16103,5.3723 -0.66667,8 -0.43036,2.23651 -1.54097,4.30254 -2,6.53333 -1.07231,5.21117 -1.22796,10.57037 -1.73333,15.86667 -0.15566,1.63136 -0.021,3.30566 -0.4,4.9 -0.9982,4.19943 -3.68583,7.84823 -4.86667,12.00001 -0.39778,1.39855 -0.73333,4.29999 -0.73333,4.29999 z"
       style="fill:#ffffff;stroke:#000000;stroke-width:3;stroke-linecap:butt;stroke-linejoin:miter;stroke-opacity:1;stroke-miterlimit:4;stroke-dasharray:none;fill-opacity:1" />
    <path
       sodipodi:nodetypes="cassc"
       inkscape:connector-curvature="0"
       id="path4571"
       d="m 1028.2667,394.66667 c 0,0 -16.0007,-0.33856 -23.9843,-0.8458 -8.55733,-0.54367 -17.1188,-3.5053 -25.61574,-2.3542 -6.28653,0.85165 -14.26676,2.08199 -21.59455,5.24023 -15.49639,6.67886 -31.5566,13.98089 -31.47211,13.95977"
       style="fill:none;stroke:#000000;stroke-width:3;stroke-linecap:butt;stroke-linejoin:miter;stroke-miterlimit:4;stroke-opacity:1;stroke-dasharray:none" />
  </g>
  <path
     style="fill:#ffffff;fill-opacity:1;stroke:none"
     d="m 952.10491,397.5152 c -0.53334,0 -26.41063,6.65996 -26.41063,6.65996 l -0.4647,5.10964 z"
     id="path4096"
     inkscape:connector-curvature="0"
     sodipodi:nodetypes="cccc" />
  <use
     x="0"
     y="0"
     xlink:href="#g4067"
     id="use4094"
     transform="matrix(-1,0,0,1,1023.7327,0)"
     width="1024"
     height="1024" />
  <use
     x="0"
     y="0"
     xlink:href="#path4096"
     id="use4098"
     transform="matrix(-1,0,0,1,1024.4678,0.13333333)"
     width="1024"
     height="1024" />
</svg>
