<?xml version="1.0" encoding="UTF-8" standalone="no"?>
<!-- Created with Inkscape (http://www.inkscape.org/) -->

<svg
   xmlns:dc="http://purl.org/dc/elements/1.1/"
   xmlns:cc="http://creativecommons.org/ns#"
   xmlns:rdf="http://www.w3.org/1999/02/22-rdf-syntax-ns#"
   xmlns:svg="http://www.w3.org/2000/svg"
   xmlns="http://www.w3.org/2000/svg"
   xmlns:xlink="http://www.w3.org/1999/xlink"
   xmlns:sodipodi="http://sodipodi.sourceforge.net/DTD/sodipodi-0.dtd"
   xmlns:inkscape="http://www.inkscape.org/namespaces/inkscape"
   id="svg3055"
   version="1.1"
   inkscape:version="0.48.3.1 r9886"
   width="1024"
   height="1024"
   sodipodi:docname="aerpanties1.svg"
   inkscape:export-filename="/home/ari/Share/lipsofsuna-data/apparel/aerpanties1.png"
   inkscape:export-xdpi="90"
   inkscape:export-ydpi="90">
  <metadata
     id="metadata3061">
    <rdf:RDF>
      <cc:Work
         rdf:about="">
        <dc:format>image/svg+xml</dc:format>
        <dc:type
           rdf:resource="http://purl.org/dc/dcmitype/StillImage" />
        <dc:title></dc:title>
      </cc:Work>
    </rdf:RDF>
  </metadata>
  <defs
     id="defs3059" />
  <sodipodi:namedview
     pagecolor="#ffffff"
     bordercolor="#666666"
     borderopacity="1"
     objecttolerance="10"
     gridtolerance="10"
     guidetolerance="10"
     inkscape:pageopacity="0"
     inkscape:pageshadow="2"
     inkscape:window-width="1887"
     inkscape:window-height="1058"
     id="namedview3057"
     showgrid="false"
     inkscape:zoom="0.52511883"
     inkscape:cx="969.75786"
     inkscape:cy="389.55613"
     inkscape:window-x="33"
     inkscape:window-y="0"
     inkscape:window-maximized="1"
     inkscape:current-layer="svg3055" />
  <g
     id="g4518"
     style="fill:#6085ef;fill-opacity:1;stroke:#6085ef;stroke-opacity:1">
    <path
       inkscape:connector-curvature="0"
       id="path3065"
       d="m 509.69715,556.52174 -0.76761,62.56072 20.96635,0.76761 c 0,0 3.87764,-8.07083 6.76546,-10.24379 4.43782,-3.33926 9.23579,-9.00386 13.75155,-15.04875 6.49784,-8.69816 17.1784,-13.49771 26.83448,-18.46158 11.37366,-5.84681 24.15706,-8.41941 36.07796,-13.04947 9.94418,-3.8623 29.55322,-12.28186 29.55322,-12.28186 l -6.14093,-10.74663 c 0,0 -17.4527,9.02521 -26.86656,11.56141 -13.54709,3.64973 -27.78235,4.20702 -41.78792,5.03667 -19.42797,1.15085 -58.386,-0.0943 -58.386,-0.0943 z"
       style="fill:#6085ef;fill-opacity:1;stroke:#6085ef;stroke-width:1px;stroke-linecap:butt;stroke-linejoin:miter;stroke-opacity:1"
       sodipodi:nodetypes="cccssaaccaacc" />
    <path
       inkscape:connector-curvature="0"
       id="path3067"
       d="m 1024.3838,525.81709 c -1.919,0.76762 -7.0304,-0.35657 -10.5311,-0.0943 -25.89372,1.93964 -34.541,8.56896 -52.19793,10.04654 -9.26905,0.77565 -18.68303,0.62732 -27.89684,-0.64647 -9.79767,-1.35451 -28.73844,-7.38669 -28.73844,-7.38669 l -3.45427,11.51424 c 0,0 16.47832,6.82834 24.94752,9.59521 15.24449,4.98035 32.02164,5.55089 46.44078,12.57133 14.07323,6.85203 27.50378,16.16216 37.61318,28.11232 5.8374,6.90028 11.7497,23.71531 13.5008,24.41575 z"
       style="fill:#6085ef;fill-opacity:1;stroke:#6085ef;stroke-width:1px;stroke-linecap:butt;stroke-linejoin:miter;stroke-opacity:1"
       sodipodi:nodetypes="csaaccaascc" />
    <path
       inkscape:connector-curvature="0"
       id="path3069"
       d="m 520.05997,1024.3838 c 0,0 0.20944,-22.4992 0.11902,-33.74836 -0.0724,-9.00555 -1.1095,-18.02518 -0.52958,-27.01233 0.67215,-10.41633 2.49892,-20.75182 4.63245,-30.96944 1.46437,-7.01296 5.59224,-20.75238 5.59224,-20.75238 l -17.5585,-0.35706 -0.19925,113.36917 z"
       style="fill:#6085ef;fill-opacity:1;stroke:#6085ef;stroke-width:1px;stroke-linecap:butt;stroke-linejoin:miter;stroke-opacity:1"
       sodipodi:nodetypes="caaacccc" />
  </g>
  <g
     id="g3095"
     style="fill:#ffffff;fill-opacity:1;stroke:#ffffff;stroke-opacity:1">
    <path
       sodipodi:nodetypes="caccacc"
       inkscape:connector-curvature="0"
       id="path3071"
       d="m 508.92954,569.18741 c 0,0 28.92972,0.68387 43.37031,0 20.15367,-0.95442 60.25787,-5.72013 60.25787,-5.72013 L 577.8365,575.7963 c 0,0 -24.93646,2.00111 -37.4347,2.21869 -10.49228,0.18266 -31.47226,-0.76761 -31.47226,-0.76761 z"
       style="fill:#ffffff;fill-opacity:1;stroke:#ffffff;stroke-width:1px;stroke-linecap:butt;stroke-linejoin:miter;stroke-opacity:1" />
    <path
       inkscape:connector-curvature="0"
       id="path3073"
       d="m 508.92954,587.61019 47.47853,0.95216 c -3.34737,3.00473 -5.32612,5.18827 -7.1078,7.25358 l -40.75454,-0.52957 z"
       style="fill:#ffffff;fill-opacity:1;stroke:#ffffff;stroke-width:1px;stroke-linecap:butt;stroke-linejoin:miter;stroke-opacity:1"
       sodipodi:nodetypes="ccccc" />
    <path
       sodipodi:nodetypes="caccacc"
       inkscape:connector-curvature="0"
       id="path3075"
       d="m 508.54573,605.26537 c 0,0 12.01106,0.14006 18.0149,0.29153 4.774,0.12044 14.31814,0.4908 14.31814,0.4908 -2.98389,2.73852 -6.61012,6.1325 -7.96034,8.60157 0,0 -6.01553,-0.85021 -9.04445,-1.0324 -5.10031,-0.30678 -15.32825,-0.0996 -15.32825,-0.0996 z"
       style="fill:#ffffff;fill-opacity:1;stroke:#ffffff;stroke-width:1px;stroke-linecap:butt;stroke-linejoin:miter;stroke-opacity:1" />
    <path
       sodipodi:nodetypes="caaccscc"
       inkscape:connector-curvature="0"
       id="path3077"
       d="m 1024.7676,536.56372 c -1.919,0 -11.0228,-0.47217 -16.5037,0 -17.14154,1.47671 -33.71441,7.33529 -50.8546,8.82758 -13.51797,1.17693 -40.70725,0.074 -40.70725,0.074 9.10066,3.24845 18.78965,6.40641 27.67118,7.90182 0,0 16.0169,0.81771 24.1665,-0.49155 21.64323,-3.47706 57.15677,-6.85107 56.99547,-6.71664 z"
       style="fill:#ffffff;fill-opacity:1;stroke:#ffffff;stroke-width:1px;stroke-linecap:butt;stroke-linejoin:miter;stroke-opacity:1" />
    <path
       inkscape:connector-curvature="0"
       id="path3079"
       d="m 1024.7676,556.90555 c -16.9671,0.41782 -34.54102,2.20084 -52.4032,4.63251 3.90294,1.89024 7.32307,3.05627 12.03586,6.16128 13.40963,-1.25709 26.83814,-2.62739 40.03074,-2.58215 z"
       style="fill:#ffffff;fill-opacity:1;stroke:#ffffff;stroke-width:1px;stroke-linecap:butt;stroke-linejoin:miter;stroke-opacity:1"
       sodipodi:nodetypes="ccccc" />
    <path
       sodipodi:nodetypes="caccacc"
       inkscape:connector-curvature="0"
       id="path3081"
       d="m 1024.3838,572.64168 c 0,0 -11.0361,0.4329 -16.5037,1.15142 -3.9309,0.51657 -11.67613,2.26586 -11.67613,2.26586 3.09472,2.60228 5.84113,4.24101 8.73693,7.63917 0,0 8.9265,-1.47526 13.4333,-1.77107 2.2979,-0.15083 6.9085,0 6.9085,0 z"
       style="fill:#ffffff;fill-opacity:1;stroke:#ffffff;stroke-width:1px;stroke-linecap:butt;stroke-linejoin:miter;stroke-opacity:1" />
    <path
       inkscape:connector-curvature="0"
       id="path3083"
       d="m 1024.7676,591.44828 -12.6656,0.76761 4.5584,7.55501 8.8748,0.12115 z"
       style="fill:#ffffff;fill-opacity:1;stroke:#ffffff;stroke-width:1px;stroke-linecap:butt;stroke-linejoin:miter;stroke-opacity:1"
       sodipodi:nodetypes="ccccc" />
    <path
       sodipodi:nodetypes="caccacc"
       inkscape:connector-curvature="0"
       id="path3085"
       d="m 527.02586,922.66449 c 0,0 -5.39135,0.961 -8.11731,1.1616 -2.27977,0.16777 -6.85773,0.0328 -6.85773,0.0328 l -0.0893,9.14887 c 0,0 5.71949,0.25869 8.48223,-0.35405 1.62371,-0.36012 4.6057,-1.91904 4.6057,-1.91904 z"
       style="fill:#ffffff;fill-opacity:1;stroke:#ffffff;stroke-width:1px;stroke-linecap:butt;stroke-linejoin:miter;stroke-opacity:1" />
    <path
       inkscape:connector-curvature="0"
       id="path3087"
       d="m 509.31334,944.16792 13.33734,0.1919 -2.29316,12.95352 -11.23608,-0.1919 z"
       style="fill:#ffffff;fill-opacity:1;stroke:#ffffff;stroke-width:1px;stroke-linecap:butt;stroke-linejoin:miter;stroke-opacity:1"
       sodipodi:nodetypes="ccccc" />
    <path
       sodipodi:nodetypes="cccacc"
       inkscape:connector-curvature="0"
       id="path3089"
       d="m 512.07389,967.95064 7.37393,0.0863 0.16515,7.31542 c 0,0 -2.82358,1.94914 -4.44655,2.3988 -1.09015,0.30204 -3.39009,0.15551 -3.39009,0.15551 z"
       style="fill:#ffffff;fill-opacity:1;stroke:#ffffff;stroke-width:1px;stroke-linecap:butt;stroke-linejoin:miter;stroke-opacity:1" />
    <path
       sodipodi:nodetypes="cccacc"
       inkscape:connector-curvature="0"
       id="path3091"
       d="m 512.04714,985.33133 8.10878,0 0,5.27737 c 0,0 -2.3959,1.8829 -3.83808,2.11094 -1.51178,0.23904 -2.98165,-0.95052 -4.50974,-0.86357 0.15041,-1.16608 0.17785,-1.75226 0.23904,-6.52474 z"
       style="fill:#ffffff;fill-opacity:1;stroke:#ffffff;stroke-width:1px;stroke-linecap:butt;stroke-linejoin:miter;stroke-opacity:1" />
    <path
       sodipodi:nodetypes="caccacc"
       inkscape:connector-curvature="0"
       id="path3093"
       d="m 512.09595,1000.8756 c 1.2772,0.05 2.03281,1.6659 3.26237,2.015 1.56916,0.4455 4.89356,0 4.89356,0 l -0.096,9.4033 c 0,0 -2.0777,-0.104 -3.07046,-0.3839 -1.79103,-0.5049 -3.2286,-2.4246 -5.08546,-2.3028 -0.0195,-2.2816 0.0379,-6.2382 0.096,-8.7316 z"
       style="fill:#ffffff;fill-opacity:1;stroke:#ffffff;stroke-width:1px;stroke-linecap:butt;stroke-linejoin:miter;stroke-opacity:1" />
  </g>
  <use
     x="0"
     y="0"
     xlink:href="#g4518"
     id="use4525"
     transform="matrix(-1,0,0,1,1023.8933,0)"
     width="1024"
     height="1024" />
  <use
     x="0"
     y="0"
     xlink:href="#g3095"
     id="use4527"
     transform="matrix(-1,0,0,1,1023.8933,0)"
     width="1024"
     height="1024" />
  <g
     id="g4541">
    <path
       sodipodi:nodetypes="cssc"
       inkscape:connector-curvature="0"
       id="path4529"
       d="m 530.35615,911.1684 c -0.54825,0 -9.96219,34.73439 -10.3548,52.48811 -0.1846,8.34748 0.19924,20.06682 0.37499,31.06221 0.25434,15.91158 -0.0179,30.23348 -0.0179,30.23348"
       style="fill:none;stroke:#000000;stroke-width:2;stroke-linecap:butt;stroke-linejoin:miter;stroke-opacity:1;stroke-miterlimit:4;stroke-dasharray:none" />
    <path
       sodipodi:nodetypes="caaasac"
       inkscape:connector-curvature="0"
       id="path4533"
       d="m 530.21008,620.53538 c 0,0 3.70525,-5.99769 5.89122,-8.75268 2.71436,-3.42092 5.98094,-6.36525 8.921,-9.59427 4.20038,-4.6132 7.5531,-10.11198 12.45572,-13.97062 7.94901,-6.25632 17.56136,-10.10506 26.76299,-14.30725 6.65496,-3.03918 17.31985,-6.06512 25.89525,-9.32602 11.36443,-4.32148 33.85858,-13.56559 33.85858,-13.56559"
       style="fill:none;stroke:#000000;stroke-width:3;stroke-linecap:butt;stroke-linejoin:miter;stroke-opacity:1;stroke-miterlimit:4;stroke-dasharray:none" />
    <path
       sodipodi:nodetypes="casc"
       inkscape:connector-curvature="0"
       id="path4535"
       d="m 636.58873,539.06818 c 0.41001,0.12386 -15.72262,8.54338 -24.199,11.23391 -7.84,2.48852 -16.57136,3.65601 -24.27735,4.41991 -28.93138,2.86799 -76.77746,1.52942 -76.75422,1.51489"
       style="fill:none;stroke:#000000;stroke-width:3;stroke-linecap:butt;stroke-linejoin:miter;stroke-opacity:1;stroke-miterlimit:4;stroke-dasharray:none" />
    <path
       sodipodi:nodetypes="cssac"
       inkscape:connector-curvature="0"
       id="path4537"
       d="m 901.52545,539.57314 c -0.0229,0.46584 29.5485,12.62244 44.10001,14.81222 16.979,2.55509 34.41847,9.87467 47.97139,20.53513 6.84715,5.38582 12.67425,10.53317 17.67365,17.00037 5.4695,7.07525 13.129,23.39658 13.129,23.39658"
       style="fill:none;stroke:#000000;stroke-width:3;stroke-linecap:butt;stroke-linejoin:miter;stroke-opacity:1;stroke-miterlimit:4;stroke-dasharray:none" />
    <path
       sodipodi:nodetypes="caaac"
       inkscape:connector-curvature="0"
       id="path4539"
       d="m 1024.3995,525.43421 c 0,0 -9.6701,-0.78709 -14.4755,-0.33664 -8.5679,0.80314 -16.78916,3.80547 -25.24815,5.38626 -11.6467,2.1765 -23.24795,5.82171 -35.09486,5.63874 -15.28238,-0.23603 -45.02577,-8.66851 -45.02577,-8.66851"
       style="fill:none;stroke:#000000;stroke-width:3;stroke-linecap:butt;stroke-linejoin:miter;stroke-opacity:1;stroke-miterlimit:4;stroke-dasharray:none" />
  </g>
  <use
     x="0"
     y="0"
     xlink:href="#g4541"
     id="use4548"
     transform="matrix(-1,0,0,1,1023.4927,0)"
     width="1024"
     height="1024" />
</svg>
