<?xml version="1.0" encoding="UTF-8" standalone="no"?>
<!-- Created with Inkscape (http://www.inkscape.org/) -->

<svg
   xmlns:dc="http://purl.org/dc/elements/1.1/"
   xmlns:cc="http://creativecommons.org/ns#"
   xmlns:rdf="http://www.w3.org/1999/02/22-rdf-syntax-ns#"
   xmlns:svg="http://www.w3.org/2000/svg"
   xmlns="http://www.w3.org/2000/svg"
   xmlns:xlink="http://www.w3.org/1999/xlink"
   xmlns:sodipodi="http://sodipodi.sourceforge.net/DTD/sodipodi-0.dtd"
   xmlns:inkscape="http://www.inkscape.org/namespaces/inkscape"
   id="svg3039"
   version="1.1"
   inkscape:version="0.48.3.1 r9886"
   width="1024"
   height="1024"
   sodipodi:docname="aerbloomerstop1.svg"
   inkscape:export-filename="/home/ari/Share/lipsofsuna-data/apparel/aerbloomerstop1.png"
   inkscape:export-xdpi="90"
   inkscape:export-ydpi="90">
  <metadata
     id="metadata3045">
    <rdf:RDF>
      <cc:Work
         rdf:about="">
        <dc:format>image/svg+xml</dc:format>
        <dc:type
           rdf:resource="http://purl.org/dc/dcmitype/StillImage" />
        <dc:title></dc:title>
      </cc:Work>
    </rdf:RDF>
  </metadata>
  <defs
     id="defs3043">
    <filter
       inkscape:collect="always"
       id="filter4010"
       x="-0.71274995"
       width="2.4254999"
       y="-0.47792596"
       height="1.9558519">
      <feGaussianBlur
         inkscape:collect="always"
         stdDeviation="24.895101"
         id="feGaussianBlur4012" />
    </filter>
    <filter
       color-interpolation-filters="sRGB"
       inkscape:collect="always"
       id="filter3958-9"
       x="-0.57340544"
       width="2.1468108"
       y="-0.53093094"
       height="2.0618618">
      <feGaussianBlur
         inkscape:collect="always"
         stdDeviation="22.034828"
         id="feGaussianBlur3960-3" />
    </filter>
    <filter
       color-interpolation-filters="sRGB"
       inkscape:collect="always"
       id="filter4010-9"
       x="-0.71274996"
       width="2.4254999"
       y="-0.47792596"
       height="1.9558519">
      <feGaussianBlur
         inkscape:collect="always"
         stdDeviation="24.895101"
         id="feGaussianBlur4012-7" />
    </filter>
    <filter
       color-interpolation-filters="sRGB"
       inkscape:collect="always"
       id="filter4010-9-7"
       x="-0.71274996"
       width="2.4254999"
       y="-0.47792596"
       height="1.9558519">
      <feGaussianBlur
         inkscape:collect="always"
         stdDeviation="24.895101"
         id="feGaussianBlur4012-7-4" />
    </filter>
    <filter
       color-interpolation-filters="sRGB"
       inkscape:collect="always"
       id="filter4010-9-9"
       x="-0.71274996"
       width="2.4254999"
       y="-0.47792596"
       height="1.9558519">
      <feGaussianBlur
         inkscape:collect="always"
         stdDeviation="24.895101"
         id="feGaussianBlur4012-7-8" />
    </filter>
    <filter
       inkscape:collect="always"
       id="filter4179"
       x="-0.4095753"
       width="1.8191506"
       y="-0.37923637"
       height="1.7584727">
      <feGaussianBlur
         inkscape:collect="always"
         stdDeviation="15.739163"
         id="feGaussianBlur4181" />
    </filter>
    <filter
       color-interpolation-filters="sRGB"
       inkscape:collect="always"
       id="filter4179-5"
       x="-0.40957531"
       width="1.8191506"
       y="-0.37923637"
       height="1.7584727">
      <feGaussianBlur
         inkscape:collect="always"
         stdDeviation="15.739163"
         id="feGaussianBlur4181-6" />
    </filter>
    <filter
       color-interpolation-filters="sRGB"
       inkscape:collect="always"
       id="filter3958-9-8"
       x="-0.57340544"
       width="2.1468108"
       y="-0.53093094"
       height="2.0618618">
      <feGaussianBlur
         inkscape:collect="always"
         stdDeviation="22.034828"
         id="feGaussianBlur3960-3-4" />
    </filter>
    <filter
       inkscape:collect="always"
       id="filter4074"
       x="-0.19791396"
       width="1.3958279"
       y="-0.23673851"
       height="1.473477">
      <feGaussianBlur
         inkscape:collect="always"
         stdDeviation="9.5354509"
         id="feGaussianBlur4076" />
    </filter>
    <filter
       color-interpolation-filters="sRGB"
       inkscape:collect="always"
       id="filter4074-8"
       x="-0.19791396"
       width="1.3958279"
       y="-0.2367385"
       height="1.473477">
      <feGaussianBlur
         inkscape:collect="always"
         stdDeviation="9.5354509"
         id="feGaussianBlur4076-6" />
    </filter>
    <filter
       color-interpolation-filters="sRGB"
       inkscape:collect="always"
       id="filter4074-5"
       x="-0.19791396"
       width="1.3958279"
       y="-0.2367385"
       height="1.473477">
      <feGaussianBlur
         inkscape:collect="always"
         stdDeviation="9.5354509"
         id="feGaussianBlur4076-4" />
    </filter>
    <filter
       color-interpolation-filters="sRGB"
       inkscape:collect="always"
       id="filter3958-9-4"
       x="-0.57340544"
       width="2.1468108"
       y="-0.53093094"
       height="2.0618618">
      <feGaussianBlur
         inkscape:collect="always"
         stdDeviation="22.034828"
         id="feGaussianBlur3960-3-0" />
    </filter>
    <filter
       color-interpolation-filters="sRGB"
       inkscape:collect="always"
       id="filter3958-9-2"
       x="-0.57340544"
       width="2.1468108"
       y="-0.53093094"
       height="2.0618618">
      <feGaussianBlur
         inkscape:collect="always"
         stdDeviation="22.034828"
         id="feGaussianBlur3960-3-3" />
    </filter>
    <filter
       color-interpolation-filters="sRGB"
       inkscape:collect="always"
       id="filter4010-98"
       x="-0.71274996"
       width="2.4254999"
       y="-0.47792596"
       height="1.9558519">
      <feGaussianBlur
         inkscape:collect="always"
         stdDeviation="24.895101"
         id="feGaussianBlur4012-6" />
    </filter>
    <filter
       color-interpolation-filters="sRGB"
       inkscape:collect="always"
       id="filter4010-98-2"
       x="-0.71274996"
       width="2.4254999"
       y="-0.47792596"
       height="1.9558519">
      <feGaussianBlur
         inkscape:collect="always"
         stdDeviation="24.895101"
         id="feGaussianBlur4012-6-1" />
    </filter>
    <clipPath
       clipPathUnits="userSpaceOnUse"
       id="clipPath4942">
      <g
         style="fill:#bfd6ef;fill-opacity:1"
         id="use4944">
        <path
           style="fill:#bfd6ef;fill-opacity:1;stroke:#bfd6ef;stroke-width:2;stroke-miterlimit:4;stroke-opacity:1;stroke-dasharray:none"
           d="m 408.5625,501.9375 -27.28125,46.53125 -7.53125,48.71875 -0.46875,69.59375 5.5,-5.5 c 0,0 8.77362,-2.48284 26.84375,-3.28125 24.84311,-1.09768 50.02255,-2.5764 74.59375,1.25 10.60738,1.65185 29.55243,8.63647 32.03125,9.5625 5.2e-4,0.0894 -5.1e-4,0.25498 0,0.34375 0,0 0.42412,-0.13949 0.46875,-0.15625 0.0402,0.0151 0.4375,0.15625 0.4375,0.15625 5.1e-4,-0.0888 -5.2e-4,-0.25435 0,-0.34375 2.46189,-0.91978 21.41822,-7.90977 32.03125,-9.5625 24.5712,-3.8264 49.75064,-2.34768 74.59375,-1.25 18.07013,0.79841 26.84375,3.28125 26.84375,3.28125 l 5.5,5.5 -0.4375,-69.59375 -7.5625,-48.71875 -27.28125,-46.53125 -5.46875,1.8125 c 0,0 -25.78973,4.88508 -40.53125,5.28125 -19.43918,0.52238 -54.32494,0.4159 -57.5625,0.40625 -0.15537,-4.6e-4 -1.15625,0 -1.15625,0 -3.23756,0.01 -38.12332,0.11613 -57.5625,-0.40625 C 439.82098,508.63508 414.03125,503.75 414.03125,503.75 z"
           id="path3910"
           inkscape:connector-curvature="0"
           sodipodi:nodetypes="cccccsscccccssccccccsccscc" />
        <path
           style="fill:#bfd6ef;fill-opacity:1;stroke:#bfd6ef;stroke-width:2;stroke-miterlimit:4;stroke-opacity:1;stroke-dasharray:none"
           d="m 1026.6978,494.46574 c 0,0 -32.50366,4.16651 -48.83733,4.02442 -14.18236,-0.12338 -28.44609,-1.37214 -42.33774,-4.23157 -3.39533,-0.69889 -9.91522,-3.13668 -9.91522,-3.13668 l -3.66368,-0.91592 -23.88301,47.43981 -13.28085,43.0483 -6.41145,70.9839 5.7245,2.74776 c 0,0 12.22654,5.99181 19.00537,6.86941 16.6351,2.15362 54.18403,1.78758 54.15385,2.2898 0,0 27.60957,2.18892 41.44544,2.63328 9.34412,0.3001 28.04672,0.0213 28.04672,0.0213 z"
           id="path3912"
           inkscape:connector-curvature="0"
           sodipodi:nodetypes="caaccccccscacc" />
        <path
           inkscape:connector-curvature="0"
           style="fill:#bfd6ef;fill-opacity:1;stroke:none"
           d="m 510.78125,910.21875 0,0.0312 -18.4375,0.1875 -8.3125,4.78125 -0.34375,7.25 5.84375,21.0625 2.34375,43.84375 9.625,7.3125 1,27.81255 10.1875,-0.1875 10.21875,0.1875 1,-27.81255 9.625,-7.3125 2.34375,-43.84375 6.1875,-20.90625 -0.28125,-7.15625 -8.71875,-5.03125 -18.4375,-0.1875 0,-0.0312 -1.9375,0.0312 -1.90625,-0.0312 z"
           id="path3914" />
        <path
           sodipodi:nodetypes="caaccccccscacc"
           inkscape:connector-curvature="0"
           id="path3916"
           d="m -2.6424889,494.46574 c 0,0 32.5036599,4.16651 48.8373299,4.02442 14.18236,-0.12338 28.44609,-1.37214 42.33774,-4.23157 3.39533,-0.69889 9.915221,-3.13668 9.915221,-3.13668 l 3.663678,-0.91592 23.88301,47.43981 13.28085,43.0483 6.41145,70.9839 -5.7245,2.74776 c 0,0 -12.22654,5.99181 -19.00537,6.86941 -16.6351,2.15362 -54.184029,1.78758 -54.153849,2.2898 0,0 -27.60957,2.18892 -41.44544,2.63328 -9.34412,0.3001 -28.0467199,0.0213 -28.0467199,0.0213 z"
           style="fill:#bfd6ef;fill-opacity:1;stroke:#bfd6ef;stroke-width:2;stroke-miterlimit:4;stroke-opacity:1;stroke-dasharray:none" />
      </g>
    </clipPath>
  </defs>
  <sodipodi:namedview
     pagecolor="#ffffff"
     bordercolor="#666666"
     borderopacity="1"
     objecttolerance="10"
     gridtolerance="10"
     guidetolerance="10"
     inkscape:pageopacity="0"
     inkscape:pageshadow="2"
     inkscape:window-width="1887"
     inkscape:window-height="1058"
     id="namedview3041"
     showgrid="false"
     inkscape:zoom="3.47571"
     inkscape:cx="573.59562"
     inkscape:cy="529.5283"
     inkscape:window-x="33"
     inkscape:window-y="0"
     inkscape:window-maximized="1"
     inkscape:current-layer="svg3039" />
  <g
     id="g4723" />
  <g
     id="g3918">
    <path
       sodipodi:nodetypes="ccccccaaaaacccc"
       inkscape:connector-curvature="0"
       id="path3106"
       d="m 626.80603,512.34237 33.36456,35.60242 39.67126,6.30671 46.18143,-17.2926 34.58521,-39.06094 -5.08606,-63.98264 c 0,0 -17.17225,-4.14894 -25.02342,-8.03597 -4.88916,-2.42058 -8.57655,-6.86148 -13.4272,-9.35835 -8.44839,-4.3488 -17.79577,-6.69323 -26.8544,-9.56179 -10.13275,-3.20871 -20.17568,-7.20669 -30.7198,-8.54459 -7.13239,-0.905 -14.45748,-0.67696 -21.56489,0.40689 -8.37989,1.2779 -24.41309,7.12048 -24.41309,7.12048 l -15.66506,53.91224 7.52737,52.28469 z"
       style="fill:#bfd6ef;fill-opacity:1;stroke:#bfd6ef;stroke-width:1px;stroke-linecap:butt;stroke-linejoin:miter;stroke-opacity:1" />
    <path
       sodipodi:nodetypes="caaccaaacc"
       inkscape:connector-curvature="0"
       id="path3108"
       d="m 605.24114,388.03906 c 0,0 -20.60897,-15.268 -31.94046,-21.15801 -14.67111,-7.62591 -30.08453,-14.32665 -46.18142,-18.10637 -4.90419,-1.15156 -9.60929,-2.19489 -15.05474,-1.32238 0.24714,17.9646 0.23929,67.60042 0.0509,88.05415 8.02674,0.17305 16.34736,-1.91281 24.36223,-3.71281 7.38959,-1.65959 14.58269,-4.11707 21.76833,-6.51016 7.12939,-2.37437 13.89695,-5.84555 21.15801,-7.78018 5.47322,-1.45828 9.70582,-3.93224 16.75209,-2.84819 z"
       style="fill:#bfd6ef;fill-opacity:1;stroke:#bfd6ef;stroke-width:1px;stroke-linecap:butt;stroke-linejoin:miter;stroke-opacity:1" />
    <path
       sodipodi:nodetypes="ccaaaaccaaacc"
       inkscape:connector-curvature="0"
       id="path3110"
       d="m 928.918,402.07658 -0.20345,-28.48193 c 0,0 2.59089,-0.18323 3.81605,-0.57542 11.51776,-3.68702 20.5858,-13.61534 32.34733,-16.42947 13.03929,-3.11984 26.83825,-0.78486 40.22197,0.0102 5.1977,0.30877 10.4109,0.79724 15.5111,1.84544 1.7517,0.36002 5.1456,1.51859 5.1456,1.51859 0,0 0.8137,16.88572 0,16.88572 -5.1711,-0.52195 -10.6224,-1.22351 -15.9528,-1.13639 -10.24577,0.16747 -20.6948,0.4711 -30.57595,3.18526 -11.04242,3.03315 -21.01621,9.14429 -31.19327,14.39429 -5.62834,2.90347 -16.4863,9.44338 -16.4863,9.44338 z"
       style="fill:#bfd6ef;fill-opacity:1;stroke:#bfd6ef;stroke-width:1px;stroke-linecap:butt;stroke-linejoin:miter;stroke-opacity:1" />
  </g>
  <use
     x="0"
     y="0"
     xlink:href="#g3918"
     id="use3925"
     transform="matrix(-1,0,0,1,1024.1283,0)"
     width="1024"
     height="1024" />
</svg>
