<?xml version="1.0" encoding="UTF-8" standalone="no"?>
<!-- Created with Inkscape (http://www.inkscape.org/) -->

<svg
   xmlns:dc="http://purl.org/dc/elements/1.1/"
   xmlns:cc="http://creativecommons.org/ns#"
   xmlns:rdf="http://www.w3.org/1999/02/22-rdf-syntax-ns#"
   xmlns:svg="http://www.w3.org/2000/svg"
   xmlns="http://www.w3.org/2000/svg"
   xmlns:xlink="http://www.w3.org/1999/xlink"
   xmlns:sodipodi="http://sodipodi.sourceforge.net/DTD/sodipodi-0.dtd"
   xmlns:inkscape="http://www.inkscape.org/namespaces/inkscape"
   id="svg3039"
   version="1.1"
   inkscape:version="0.48.3.1 r9886"
   width="1024"
   height="1024"
   sodipodi:docname="aerbloomers1.svg"
   inkscape:export-filename="/home/ari/Share/lipsofsuna-data/apparel/aerbloomers1.png"
   inkscape:export-xdpi="90"
   inkscape:export-ydpi="90">
  <metadata
     id="metadata3045">
    <rdf:RDF>
      <cc:Work
         rdf:about="">
        <dc:format>image/svg+xml</dc:format>
        <dc:type
           rdf:resource="http://purl.org/dc/dcmitype/StillImage" />
        <dc:title></dc:title>
      </cc:Work>
    </rdf:RDF>
  </metadata>
  <defs
     id="defs3043">
    <filter
       inkscape:collect="always"
       id="filter4010"
       x="-0.71274995"
       width="2.4254999"
       y="-0.47792596"
       height="1.9558519">
      <feGaussianBlur
         inkscape:collect="always"
         stdDeviation="24.895101"
         id="feGaussianBlur4012" />
    </filter>
    <filter
       color-interpolation-filters="sRGB"
       inkscape:collect="always"
       id="filter3958-9"
       x="-0.57340544"
       width="2.1468108"
       y="-0.53093094"
       height="2.0618618">
      <feGaussianBlur
         inkscape:collect="always"
         stdDeviation="22.034828"
         id="feGaussianBlur3960-3" />
    </filter>
    <filter
       color-interpolation-filters="sRGB"
       inkscape:collect="always"
       id="filter4010-9"
       x="-0.71274996"
       width="2.4254999"
       y="-0.47792596"
       height="1.9558519">
      <feGaussianBlur
         inkscape:collect="always"
         stdDeviation="24.895101"
         id="feGaussianBlur4012-7" />
    </filter>
    <filter
       color-interpolation-filters="sRGB"
       inkscape:collect="always"
       id="filter4010-9-7"
       x="-0.71274996"
       width="2.4254999"
       y="-0.47792596"
       height="1.9558519">
      <feGaussianBlur
         inkscape:collect="always"
         stdDeviation="24.895101"
         id="feGaussianBlur4012-7-4" />
    </filter>
    <filter
       color-interpolation-filters="sRGB"
       inkscape:collect="always"
       id="filter4010-9-9"
       x="-0.71274996"
       width="2.4254999"
       y="-0.47792596"
       height="1.9558519">
      <feGaussianBlur
         inkscape:collect="always"
         stdDeviation="24.895101"
         id="feGaussianBlur4012-7-8" />
    </filter>
    <filter
       inkscape:collect="always"
       id="filter4179"
       x="-0.4095753"
       width="1.8191506"
       y="-0.37923637"
       height="1.7584727">
      <feGaussianBlur
         inkscape:collect="always"
         stdDeviation="15.739163"
         id="feGaussianBlur4181" />
    </filter>
    <filter
       color-interpolation-filters="sRGB"
       inkscape:collect="always"
       id="filter4179-5"
       x="-0.40957531"
       width="1.8191506"
       y="-0.37923637"
       height="1.7584727">
      <feGaussianBlur
         inkscape:collect="always"
         stdDeviation="15.739163"
         id="feGaussianBlur4181-6" />
    </filter>
    <filter
       color-interpolation-filters="sRGB"
       inkscape:collect="always"
       id="filter3958-9-8"
       x="-0.57340544"
       width="2.1468108"
       y="-0.53093094"
       height="2.0618618">
      <feGaussianBlur
         inkscape:collect="always"
         stdDeviation="22.034828"
         id="feGaussianBlur3960-3-4" />
    </filter>
    <filter
       inkscape:collect="always"
       id="filter4074"
       x="-0.19791396"
       width="1.3958279"
       y="-0.23673851"
       height="1.473477">
      <feGaussianBlur
         inkscape:collect="always"
         stdDeviation="9.5354509"
         id="feGaussianBlur4076" />
    </filter>
    <filter
       color-interpolation-filters="sRGB"
       inkscape:collect="always"
       id="filter4074-8"
       x="-0.19791396"
       width="1.3958279"
       y="-0.2367385"
       height="1.473477">
      <feGaussianBlur
         inkscape:collect="always"
         stdDeviation="9.5354509"
         id="feGaussianBlur4076-6" />
    </filter>
    <filter
       color-interpolation-filters="sRGB"
       inkscape:collect="always"
       id="filter4074-5"
       x="-0.19791396"
       width="1.3958279"
       y="-0.2367385"
       height="1.473477">
      <feGaussianBlur
         inkscape:collect="always"
         stdDeviation="9.5354509"
         id="feGaussianBlur4076-4" />
    </filter>
    <filter
       color-interpolation-filters="sRGB"
       inkscape:collect="always"
       id="filter3958-9-4"
       x="-0.57340544"
       width="2.1468108"
       y="-0.53093094"
       height="2.0618618">
      <feGaussianBlur
         inkscape:collect="always"
         stdDeviation="22.034828"
         id="feGaussianBlur3960-3-0" />
    </filter>
    <filter
       color-interpolation-filters="sRGB"
       inkscape:collect="always"
       id="filter3958-9-2"
       x="-0.57340544"
       width="2.1468108"
       y="-0.53093094"
       height="2.0618618">
      <feGaussianBlur
         inkscape:collect="always"
         stdDeviation="22.034828"
         id="feGaussianBlur3960-3-3" />
    </filter>
    <filter
       color-interpolation-filters="sRGB"
       inkscape:collect="always"
       id="filter4010-98"
       x="-0.71274996"
       width="2.4254999"
       y="-0.47792596"
       height="1.9558519">
      <feGaussianBlur
         inkscape:collect="always"
         stdDeviation="24.895101"
         id="feGaussianBlur4012-6" />
    </filter>
    <filter
       color-interpolation-filters="sRGB"
       inkscape:collect="always"
       id="filter4010-98-2"
       x="-0.71274996"
       width="2.4254999"
       y="-0.47792596"
       height="1.9558519">
      <feGaussianBlur
         inkscape:collect="always"
         stdDeviation="24.895101"
         id="feGaussianBlur4012-6-1" />
    </filter>
    <clipPath
       clipPathUnits="userSpaceOnUse"
       id="clipPath4942">
      <use
         x="0"
         y="0"
         xlink:href="#g4717"
         id="use4944"
         width="1"
         height="1" />
    </clipPath>
  </defs>
  <sodipodi:namedview
     pagecolor="#ffffff"
     bordercolor="#666666"
     borderopacity="1"
     objecttolerance="10"
     gridtolerance="10"
     guidetolerance="10"
     inkscape:pageopacity="0"
     inkscape:pageshadow="2"
     inkscape:window-width="1887"
     inkscape:window-height="1058"
     id="namedview3041"
     showgrid="false"
     inkscape:zoom="0.8689275"
     inkscape:cx="321.03916"
     inkscape:cy="314.46207"
     inkscape:window-x="33"
     inkscape:window-y="0"
     inkscape:window-maximized="1"
     inkscape:current-layer="svg3039" />
  <g
     id="g4717"
     style="fill:#bfd6ef;fill-opacity:1">
    <path
       sodipodi:nodetypes="cccccsscccccssccccccsccscc"
       inkscape:connector-curvature="0"
       id="path3049"
       d="m 408.5625,501.9375 -27.28125,46.53125 -7.53125,48.71875 -0.46875,69.59375 5.5,-5.5 c 0,0 8.77362,-2.48284 26.84375,-3.28125 24.84311,-1.09768 50.02255,-2.5764 74.59375,1.25 10.60738,1.65185 29.55243,8.63647 32.03125,9.5625 5.2e-4,0.0894 -5.1e-4,0.25498 0,0.34375 0,0 0.42412,-0.13949 0.46875,-0.15625 0.0402,0.0151 0.4375,0.15625 0.4375,0.15625 5.1e-4,-0.0888 -5.2e-4,-0.25435 0,-0.34375 2.46189,-0.91978 21.41822,-7.90977 32.03125,-9.5625 24.5712,-3.8264 49.75064,-2.34768 74.59375,-1.25 18.07013,0.79841 26.84375,3.28125 26.84375,3.28125 l 5.5,5.5 -0.4375,-69.59375 -7.5625,-48.71875 -27.28125,-46.53125 -5.46875,1.8125 c 0,0 -25.78973,4.88508 -40.53125,5.28125 -19.43918,0.52238 -54.32494,0.4159 -57.5625,0.40625 -0.15537,-4.6e-4 -1.15625,0 -1.15625,0 -3.23756,0.01 -38.12332,0.11613 -57.5625,-0.40625 C 439.82098,508.63508 414.03125,503.75 414.03125,503.75 z"
       style="fill:#bfd6ef;fill-opacity:1;stroke:#bfd6ef;stroke-width:2;stroke-miterlimit:4;stroke-opacity:1;stroke-dasharray:none" />
    <path
       sodipodi:nodetypes="caaccccccscacc"
       inkscape:connector-curvature="0"
       id="path3051"
       d="m 1026.6978,494.46574 c 0,0 -32.50366,4.16651 -48.83733,4.02442 -14.18236,-0.12338 -28.44609,-1.37214 -42.33774,-4.23157 -3.39533,-0.69889 -9.91522,-3.13668 -9.91522,-3.13668 l -3.66368,-0.91592 -23.88301,47.43981 -13.28085,43.0483 -6.41145,70.9839 5.7245,2.74776 c 0,0 12.22654,5.99181 19.00537,6.86941 16.6351,2.15362 54.18403,1.78758 54.15385,2.2898 0,0 27.60957,2.18892 41.44544,2.63328 9.34412,0.3001 28.04672,0.0213 28.04672,0.0213 z"
       style="fill:#bfd6ef;fill-opacity:1;stroke:#bfd6ef;stroke-width:2;stroke-miterlimit:4;stroke-opacity:1;stroke-dasharray:none" />
    <path
       id="path3053"
       d="m 510.78125,910.21875 0,0.0312 -18.4375,0.1875 -8.3125,4.78125 -0.34375,7.25 5.84375,21.0625 2.34375,43.84375 9.625,7.3125 1,27.81255 10.1875,-0.1875 10.21875,0.1875 1,-27.81255 9.625,-7.3125 2.34375,-43.84375 6.1875,-20.90625 -0.28125,-7.15625 -8.71875,-5.03125 -18.4375,-0.1875 0,-0.0312 -1.9375,0.0312 -1.90625,-0.0312 z"
       style="fill:#bfd6ef;fill-opacity:1;stroke:none"
       inkscape:connector-curvature="0" />
    <path
       style="fill:#bfd6ef;fill-opacity:1;stroke:#bfd6ef;stroke-width:2;stroke-miterlimit:4;stroke-opacity:1;stroke-dasharray:none"
       d="m -2.6424889,494.46574 c 0,0 32.5036599,4.16651 48.8373299,4.02442 14.18236,-0.12338 28.44609,-1.37214 42.33774,-4.23157 3.39533,-0.69889 9.915221,-3.13668 9.915221,-3.13668 l 3.663678,-0.91592 23.88301,47.43981 13.28085,43.0483 6.41145,70.9839 -5.7245,2.74776 c 0,0 -12.22654,5.99181 -19.00537,6.86941 -16.6351,2.15362 -54.184029,1.78758 -54.153849,2.2898 0,0 -27.60957,2.18892 -41.44544,2.63328 -9.34412,0.3001 -28.0467199,0.0213 -28.0467199,0.0213 z"
       id="path3923"
       inkscape:connector-curvature="0"
       sodipodi:nodetypes="caaccccccscacc" />
  </g>
  <path
     sodipodi:type="arc"
     style="opacity:0.14509804;fill:#b6afc0;fill-opacity:1;stroke:none;filter:url(#filter4179-5)"
     id="path3944-44"
     sodipodi:cx="963.6427"
     sodipodi:cy="592.64014"
     sodipodi:rx="46.113609"
     sodipodi:ry="49.8027"
     d="m 1009.7563,592.64014 a 46.113609,49.8027 0 1 1 -92.22721,0 46.113609,49.8027 0 1 1 92.22721,0 z"
     transform="translate(-912.21641,-22.533013)" />
  <path
     sodipodi:type="arc"
     style="opacity:0.14509804;fill:#b6afc0;fill-opacity:1;stroke:none;filter:url(#filter4179)"
     id="path3944"
     sodipodi:cx="963.6427"
     sodipodi:cy="592.64014"
     sodipodi:rx="46.113609"
     sodipodi:ry="49.8027"
     d="m 1009.7563,592.64014 a 46.113609,49.8027 0 1 1 -92.22721,0 46.113609,49.8027 0 1 1 92.22721,0 z"
     transform="translate(2.8159056,-15.944681)" />
  <g
     id="g4921"
     clip-path="url(#clipPath4942)">
    <path
       transform="matrix(-1.039481,0.10793716,0.682299,1.8825468,587.8443,-589.98087)"
       d="m 1009.7563,592.64014 c 0,27.50527 -20.64576,49.8027 -46.1136,49.8027 -25.46784,0 -46.11361,-22.29743 -46.11361,-49.8027 0,-27.50528 20.64577,-49.8027 46.11361,-49.8027 25.46784,0 46.1136,22.29742 46.1136,49.8027 z"
       sodipodi:ry="49.8027"
       sodipodi:rx="46.113609"
       sodipodi:cy="592.64014"
       sodipodi:cx="963.6427"
       id="path3944-5-4"
       style="fill:#bfd6ef;fill-opacity:1;stroke:none;filter:url(#filter4074-8)"
       sodipodi:type="arc" />
    <path
       d="m 1009.7563,592.64014 c 0,27.50527 -20.64576,49.8027 -46.1136,49.8027 -25.46784,0 -46.11361,-22.29743 -46.11361,-49.8027 0,-27.50528 20.64577,-49.8027 46.11361,-49.8027 25.46784,0 46.1136,22.29742 46.1136,49.8027 z"
       sodipodi:ry="49.8027"
       sodipodi:rx="46.113609"
       sodipodi:cy="592.64014"
       sodipodi:cx="963.6427"
       id="path3944-4-2"
       style="opacity:0.10196078;fill:#b6afc0;fill-opacity:1;stroke:none;filter:url(#filter3958-9-8)"
       sodipodi:type="arc"
       transform="matrix(0.60317536,0,0,0.59442416,-103.13013,210.11357)" />
    <path
       d="m 1009.7563,592.64014 c 0,27.50527 -20.64576,49.8027 -46.1136,49.8027 -25.46784,0 -46.11361,-22.29743 -46.11361,-49.8027 0,-27.50528 20.64577,-49.8027 46.11361,-49.8027 25.46784,0 46.1136,22.29742 46.1136,49.8027 z"
       sodipodi:ry="49.8027"
       sodipodi:rx="46.113609"
       sodipodi:cy="592.64014"
       sodipodi:cx="963.6427"
       id="path3944-4"
       style="opacity:0.10196078;fill:#b6afc0;fill-opacity:1;stroke:none;filter:url(#filter3958-9)"
       sodipodi:type="arc"
       transform="matrix(0.60317536,0,0,0.59442416,-36.386065,210.2496)" />
    <path
       d="m 1009.7563,592.64014 c 0,27.50527 -20.64576,49.8027 -46.1136,49.8027 -25.46784,0 -46.11361,-22.29743 -46.11361,-49.8027 0,-27.50528 20.64577,-49.8027 46.11361,-49.8027 25.46784,0 46.1136,22.29742 46.1136,49.8027 z"
       sodipodi:ry="49.8027"
       sodipodi:rx="46.113609"
       sodipodi:cy="592.64014"
       sodipodi:cx="963.6427"
       id="path3944-3-9"
       style="opacity:0.37647058999999999;fill:#5995d6;fill-opacity:1;stroke:none;filter:url(#filter4010)"
       sodipodi:type="arc"
       transform="matrix(0.73470962,0.45886778,-0.25814829,0.36487339,-91.050078,-49.410172)" />
    <path
       transform="matrix(-0.73470962,0.45886778,0.25814829,0.36487339,1118.6189,-54.883081)"
       sodipodi:type="arc"
       style="opacity:0.37647058999999999;fill:#5995d6;fill-opacity:1;stroke:none;filter:url(#filter4010)"
       id="path4014"
       sodipodi:cx="963.6427"
       sodipodi:cy="592.64014"
       sodipodi:rx="46.113609"
       sodipodi:ry="49.8027"
       d="m 1009.7563,592.64014 c 0,27.50527 -20.64576,49.8027 -46.1136,49.8027 -25.46784,0 -46.11361,-22.29743 -46.11361,-49.8027 0,-27.50528 20.64577,-49.8027 46.11361,-49.8027 25.46784,0 46.1136,22.29742 46.1136,49.8027 z" />
    <path
       d="m 1009.7563,592.64014 c 0,27.50527 -20.64576,49.8027 -46.1136,49.8027 -25.46784,0 -46.11361,-22.29743 -46.11361,-49.8027 0,-27.50528 20.64577,-49.8027 46.11361,-49.8027 25.46784,0 46.1136,22.29742 46.1136,49.8027 z"
       sodipodi:ry="49.8027"
       sodipodi:rx="46.113609"
       sodipodi:cy="592.64014"
       sodipodi:cx="963.6427"
       id="path3944-3-9-5"
       style="opacity:0.33725490000000002;fill:#5995d6;fill-opacity:1;stroke:none;filter:url(#filter4010-9)"
       sodipodi:type="arc"
       transform="matrix(-0.73470962,0.45886778,0.25814829,0.36487339,639.22839,-33.908558)" />
    <path
       d="m 1009.7563,592.64014 c 0,27.50527 -20.64576,49.8027 -46.1136,49.8027 -25.46784,0 -46.11361,-22.29743 -46.11361,-49.8027 0,-27.50528 20.64577,-49.8027 46.11361,-49.8027 25.46784,0 46.1136,22.29742 46.1136,49.8027 z"
       sodipodi:ry="49.8027"
       sodipodi:rx="46.113609"
       sodipodi:cy="592.64014"
       sodipodi:cx="963.6427"
       id="path3944-3-9-5-3"
       style="opacity:0.33725490000000002;fill:#5995d6;fill-opacity:1;stroke:none;filter:url(#filter4010-9-7)"
       sodipodi:type="arc"
       transform="matrix(0.73470962,0.45886778,-0.25814829,0.36487339,396.00513,-29.436706)" />
    <path
       transform="matrix(-0.15163491,0.8528568,-0.43483881,-0.10338445,1420.4323,-146.59533)"
       sodipodi:type="arc"
       style="opacity:0.3372549;fill:#0b090c;fill-opacity:1;stroke:none;filter:url(#filter4010-9-9)"
       id="path4149-1"
       sodipodi:cx="963.6427"
       sodipodi:cy="592.64014"
       sodipodi:rx="46.113609"
       sodipodi:ry="49.8027"
       d="m 1009.7563,592.64014 c 0,27.50527 -20.64576,49.8027 -46.1136,49.8027 -25.46784,0 -46.11361,-22.29743 -46.11361,-49.8027 0,-27.50528 20.64577,-49.8027 46.11361,-49.8027 25.46784,0 46.1136,22.29742 46.1136,49.8027 z" />
    <path
       d="m 1009.7563,592.64014 c 0,27.50527 -20.64576,49.8027 -46.1136,49.8027 -25.46784,0 -46.11361,-22.29743 -46.11361,-49.8027 0,-27.50528 20.64577,-49.8027 46.11361,-49.8027 25.46784,0 46.1136,22.29742 46.1136,49.8027 z"
       sodipodi:ry="49.8027"
       sodipodi:rx="46.113609"
       sodipodi:cy="592.64014"
       sodipodi:cx="963.6427"
       id="path3944-4-6"
       style="opacity:0.10196078000000000;fill:#5995d6;fill-opacity:1;stroke:none;filter:url(#filter3958-9-4)"
       sodipodi:type="arc"
       transform="matrix(0.60317536,0,0,0.8166575,15.077088,146.06624)" />
    <path
       d="m 1009.7563,592.64014 c 0,27.50527 -20.64576,49.8027 -46.1136,49.8027 -25.46784,0 -46.11361,-22.29743 -46.11361,-49.8027 0,-27.50528 20.64577,-49.8027 46.11361,-49.8027 25.46784,0 46.1136,22.29742 46.1136,49.8027 z"
       sodipodi:ry="49.8027"
       sodipodi:rx="46.113609"
       sodipodi:cy="592.64014"
       sodipodi:cx="963.6427"
       id="path3944-4-60"
       style="opacity:0.10196078000000000;fill:#5995d6;fill-opacity:1;stroke:none;filter:url(#filter3958-9-2)"
       sodipodi:type="arc"
       transform="matrix(0.60317536,0,0,0.8166575,-135.93532,148.97256)" />
    <path
       transform="matrix(1.1201573,-0.14455785,0.05457726,1.0959707,-599.50493,142.95802)"
       d="m 1009.7563,592.64014 c 0,27.50527 -20.64576,49.8027 -46.1136,49.8027 -25.46784,0 -46.11361,-22.29743 -46.11361,-49.8027 0,-27.50528 20.64577,-49.8027 46.11361,-49.8027 25.46784,0 46.1136,22.29742 46.1136,49.8027 z"
       sodipodi:ry="49.8027"
       sodipodi:rx="46.113609"
       sodipodi:cy="592.64014"
       sodipodi:cx="963.6427"
       id="path3944-5-5"
       style="fill:#bfd6ef;fill-opacity:1;stroke:none;filter:url(#filter4074-5)"
       sodipodi:type="arc" />
    <path
       transform="matrix(0.7173172,0.24348159,-0.12948236,0.42101716,329.09894,153.78926)"
       sodipodi:type="arc"
       style="opacity:0.37647058999999999;fill:#5995d6;fill-opacity:1;stroke:none;filter:url(#filter4010-98)"
       id="path4014-4"
       sodipodi:cx="963.6427"
       sodipodi:cy="592.64014"
       sodipodi:rx="46.113609"
       sodipodi:ry="49.8027"
       d="m 1009.7563,592.64014 c 0,27.50527 -20.64576,49.8027 -46.1136,49.8027 -25.46784,0 -46.11361,-22.29743 -46.11361,-49.8027 0,-27.50528 20.64577,-49.8027 46.11361,-49.8027 25.46784,0 46.1136,22.29742 46.1136,49.8027 z" />
    <path
       transform="matrix(-0.71880995,0.24348159,0.12975181,0.42101716,696.30256,155.27989)"
       sodipodi:type="arc"
       style="opacity:0.37647058999999999;fill:#5995d6;fill-opacity:1;stroke:none;filter:url(#filter4010-98-2)"
       id="path4014-4-2"
       sodipodi:cx="963.6427"
       sodipodi:cy="592.64014"
       sodipodi:rx="46.113609"
       sodipodi:ry="49.8027"
       d="m 1009.7563,592.64014 c 0,27.50527 -20.64576,49.8027 -46.1136,49.8027 -25.46784,0 -46.11361,-22.29743 -46.11361,-49.8027 0,-27.50528 20.64577,-49.8027 46.11361,-49.8027 25.46784,0 46.1136,22.29742 46.1136,49.8027 z" />
    <path
       transform="matrix(0.95328975,0.09813097,-0.62572443,1.7115158,475.65735,-472.5622)"
       d="m 1009.7563,592.64014 c 0,27.50527 -20.64576,49.8027 -46.1136,49.8027 -25.46784,0 -46.11361,-22.29743 -46.11361,-49.8027 0,-27.50528 20.64577,-49.8027 46.11361,-49.8027 25.46784,0 46.1136,22.29742 46.1136,49.8027 z"
       sodipodi:ry="49.8027"
       sodipodi:rx="46.113609"
       sodipodi:cy="592.64014"
       sodipodi:cx="963.6427"
       id="path3944-5"
       style="fill:#bfd6ef;fill-opacity:1;stroke:none;filter:url(#filter4074)"
       sodipodi:type="arc" />
  </g>
  <g
     id="g4723" />
</svg>
