<?xml version="1.0" encoding="UTF-8" standalone="no"?>
<!-- Created with Inkscape (http://www.inkscape.org/) -->

<svg
   xmlns:dc="http://purl.org/dc/elements/1.1/"
   xmlns:cc="http://creativecommons.org/ns#"
   xmlns:rdf="http://www.w3.org/1999/02/22-rdf-syntax-ns#"
   xmlns:svg="http://www.w3.org/2000/svg"
   xmlns="http://www.w3.org/2000/svg"
   xmlns:sodipodi="http://sodipodi.sourceforge.net/DTD/sodipodi-0.dtd"
   xmlns:inkscape="http://www.inkscape.org/namespaces/inkscape"
   id="svg3055"
   version="1.1"
   inkscape:version="0.48.3.1 r9886"
   width="1024"
   height="256"
   sodipodi:docname="aereye1.svg"
   inkscape:export-filename="/home/ari/Share/lipsofsuna-data/actors/aereye1.png"
   inkscape:export-xdpi="90"
   inkscape:export-ydpi="90">
  <metadata
     id="metadata3061">
    <rdf:RDF>
      <cc:Work
         rdf:about="">
        <dc:format>image/svg+xml</dc:format>
        <dc:type
           rdf:resource="http://purl.org/dc/dcmitype/StillImage" />
        <dc:title></dc:title>
      </cc:Work>
    </rdf:RDF>
  </metadata>
  <defs
     id="defs3059" />
  <sodipodi:namedview
     pagecolor="#ffffff"
     bordercolor="#666666"
     borderopacity="1"
     objecttolerance="10"
     gridtolerance="10"
     guidetolerance="10"
     inkscape:pageopacity="0"
     inkscape:pageshadow="2"
     inkscape:window-width="1887"
     inkscape:window-height="1058"
     id="namedview3057"
     showgrid="false"
     inkscape:zoom="2.6516504"
     inkscape:cx="548.69998"
     inkscape:cy="134.21822"
     inkscape:window-x="33"
     inkscape:window-y="0"
     inkscape:window-maximized="1"
     inkscape:current-layer="svg3055" />
  <path
     style="fill:#ffffff;fill-opacity:1;stroke:none;display:inline"
     d="m 437.16859,111.88847 c -9.56641,-2.18202 -15.08835,-15.731113 -16.34759,-20.9178 -1.04671,-11.325925 -1.68275,-17.846332 14.73384,-32.567808 4.99871,-4.332628 11.53512,-9.146428 23.1996,-10.386519 24.86337,3.171967 27.29069,11.126067 31.86919,20.144623 3.25102,32.260564 -10.03499,43.466414 -13.71707,43.935264 -15.06046,2.64687 -26.51078,3.22429 -39.73797,-0.20795 z"
     id="path3844"
     inkscape:connector-curvature="0"
     sodipodi:nodetypes="ccccccc" />
  <path
     style="fill:none;stroke:#000000;stroke-width:3.47021604;stroke-linecap:round;stroke-linejoin:miter;stroke-miterlimit:4.84000015;stroke-opacity:1;stroke-dasharray:none;display:inline"
     d="M 482.60019,50.022172 C 465.91382,36.700691 441.56782,43.403093 435.89507,48.941277"
     id="path3842"
     inkscape:connector-curvature="0"
     sodipodi:nodetypes="cc" />
  <path
     style="fill:#000000;fill-opacity:1;stroke:none;display:inline"
     d="m 419.92271,83.622089 c -1.65319,3.462634 -5.07198,5.268545 -10.39218,5.967641 5.71937,-2.167445 7.56584,-5.090759 10.60555,-9.473848 z"
     id="path3846"
     inkscape:connector-curvature="0"
     sodipodi:nodetypes="cccc" />
  <path
     style="fill:#000000;fill-opacity:1;stroke:none;display:inline"
     d="m 422.48513,73.504542 c -1.14849,2.476256 -7.48213,7.529708 -12.63345,6.231915 3.11986,-0.05145 14.28459,-7.854621 13.0928,-8.932413 z"
     id="path3848"
     inkscape:connector-curvature="0"
     sodipodi:nodetypes="cccc" />
  <path
     style="fill:#2f5e29;fill-opacity:1;stroke:none;display:inline"
     d="m 444.03054,53.825997 c -16.82047,10.65068 -13.05333,52.979543 -0.28206,58.154053 0,0 25.86243,0.65195 27.29483,0.43273 10.70763,-1.63887 11.58906,-55.562642 1.67603,-59.099283 -8.17642,-4.822775 -24.73849,-2.986896 -28.68883,0.5125 z"
     id="path3838"
     inkscape:connector-curvature="0"
     sodipodi:nodetypes="ccscc" />
  <path
     style="fill:#000000;fill-opacity:1;stroke:none;display:inline"
     d="m 434.47475,111.65289 c 15.64778,0.84899 27.96776,1.49041 44.83343,0.1367 l -3.09728,1.91943 c 0,0 0.72361,0.63989 1.41792,0.91703 -12.17406,-0.83092 -40.82049,0.25939 -40.82049,0.25939 l 1.5311,-0.84179 z"
     id="path3840"
     inkscape:connector-curvature="0"
     sodipodi:nodetypes="ccccccc" />
  <path
     style="fill:#7fc376;fill-opacity:1;stroke:none;display:inline"
     d="m 472.81597,85.50892 c -3.743,-0.04426 -3.91166,2.148696 -5.54456,7.020177 -1.93108,4.57689 -3.04842,7.668533 -10.59651,7.736263 -7.54804,0.0675 -8.38713,-2.466993 -10.47921,-7.847803 -1.11056,-5.289875 -2.5216,-6.960238 -5.25743,-6.66525 -2.7358,0.295041 -4.19285,5.166307 -2.6727,11.53228 2.20414,9.230503 6.87186,13.040833 17.75967,12.969113 10.8878,-0.0717 17.01431,-4.51912 18.55212,-13.477993 0.49487,-2.88314 1.98157,-11.222531 -1.76138,-11.266787 z"
     id="path3850"
     inkscape:connector-curvature="0"
     sodipodi:nodetypes="zczczszsz" />
  <path
     style="fill:#000000;fill-opacity:1;stroke:none;display:inline"
     d="m 491.30698,70.136117 c -2.48128,-4.805593 -9.68663,-11.725436 -14.16771,-14.113311 -4.22755,-2.252775 -11.22382,-4.146997 -20.54553,-3.901848 -9.32171,0.245219 -9.09714,1.403179 -14.98033,4.387447 -5.88322,2.984328 -7.32402,4.771201 -11.53604,10.8441 -4.21208,6.07293 -9.31283,19.589721 -8.58345,27.735312 l -1.61823,-6.152752 -0.98103,5.404472 c -1.14733,-7.054456 1.09117,-20.384001 7.3893,-30.547291 6.29814,-10.163372 16.97552,-17.907998 29.9929,-18.060944 13.01731,-0.152823 18.09031,2.263714 22.69042,5.244335 5.12355,3.319743 12.64526,13.38454 13.2542,16.904129 l -1.80784,-2.242403 z"
     id="path3066"
     inkscape:connector-curvature="0"
     sodipodi:nodetypes="cszszccczzsccc" />
  <path
     style="fill:#aed9a8;fill-opacity:1;stroke:none;display:inline"
     d="m 446.00497,94.791707 c 3.0804,-0.36469 0.8404,5.237403 11.11991,5.13001 10.27946,-0.10734 6.85339,-5.19461 10.00945,-5.09037 3.15609,0.1042 1.78381,11.402343 -10.20082,11.515403 -11.98464,0.11288 -14.00891,-11.190383 -10.92854,-11.555043 z"
     id="path3897"
     inkscape:connector-curvature="0"
     sodipodi:nodetypes="zzzzz" />
  <path
     style="fill:#ffffff;fill-opacity:1;stroke:#ffffff;stroke-width:3.47021604;stroke-linecap:butt;stroke-linejoin:miter;stroke-miterlimit:4.84000015;stroke-opacity:1;stroke-dasharray:none;display:inline"
     d="m 449.34925,99.764457 c 0,0 -2.71084,2.661893 -5.08878,4.144933 0.63126,1.09675 2.50164,2.08853 2.50164,2.08853 z"
     id="path3879"
     inkscape:connector-curvature="0"
     sodipodi:nodetypes="cccc" />
  <path
     sodipodi:nodetypes="cccc"
     inkscape:connector-curvature="0"
     id="path3877"
     d="m 457.21301,102.7254 c 0,0 -0.40927,3.78972 -1.0367,5.86533 0.66006,0.0401 1.9083,-0.024 1.9083,-0.024 z"
     style="fill:#ffffff;fill-opacity:1;stroke:#ffffff;stroke-width:3.47021604;stroke-linecap:butt;stroke-linejoin:miter;stroke-miterlimit:4.84000015;stroke-opacity:1;stroke-dasharray:none;display:inline" />
  <path
     style="fill:#ffffff;fill-opacity:1;stroke:#ffffff;stroke-width:3.47021604;stroke-linecap:butt;stroke-linejoin:miter;stroke-miterlimit:4.84000015;stroke-opacity:1;stroke-dasharray:none;display:inline"
     d="m 464.7101,99.809017 c 0,0 1.64103,2.858723 2.89745,5.357473 0.58051,-0.29175 2.50791,-2.41286 2.50791,-2.41286 z"
     id="path3856"
     inkscape:connector-curvature="0"
     sodipodi:nodetypes="cccc"
     inkscape:transform-center-y="0.44440296"
     inkscape:transform-center-x="0.019720651" />
  <path
     style="fill:#172f14;fill-opacity:1;stroke:none;display:inline"
     d="m 433.16927,81.230585 c 4.42674,-13.764288 11.59291,-23.40051 23.48935,-23.670237 9.34504,-0.211788 13.79815,0.571692 22.15932,9.363507 L 474.60939,53.06089 456.5233,50.430303 440.90845,55.179862 c -3.78988,8.562991 -7.36872,18.862126 -7.73918,26.050723 z"
     id="path3893"
     inkscape:connector-curvature="0"
     sodipodi:nodetypes="csccccc" />
  <path
     sodipodi:type="arc"
     style="fill:#172f14;fill-opacity:1;stroke:none;display:inline"
     id="path3895"
     sodipodi:cx="122.95904"
     sodipodi:cy="156.20126"
     sodipodi:rx="11.742034"
     sodipodi:ry="28.136572"
     d="m 134.70107,156.20126 a 11.742034,28.136572 0 1 1 -23.48407,0 11.742034,28.136572 0 1 1 23.48407,0 z"
     transform="matrix(0.64315661,0,0,0.58164498,377.98395,-11.614335)" />
  <path
     sodipodi:nodetypes="ccscc"
     inkscape:connector-curvature="0"
     id="path3891"
     d="m 444.03054,53.825997 c -16.82047,10.65068 -13.05333,52.979543 -0.28206,58.154053 0,0 25.86243,0.65195 27.29483,0.43273 10.70763,-1.63887 14.01136,-55.562642 -0.0328,-59.485894 -8.17643,-4.822724 -23.02864,-2.600285 -26.97896,0.899111 z"
     style="fill:none;stroke:#000000;stroke-width:3.47021604;stroke-linecap:butt;stroke-linejoin:miter;stroke-miterlimit:4.84000015;stroke-opacity:1;stroke-dasharray:none;display:inline" />
  <path
     sodipodi:type="arc"
     style="fill:#ffffff;fill-opacity:1;stroke:none;display:inline"
     id="path3852"
     sodipodi:cx="142.81032"
     sodipodi:cy="137.29024"
     sodipodi:rx="11.237947"
     sodipodi:ry="7.7024131"
     d="m 154.04827,137.29024 a 11.237947,7.7024131 0 1 1 -22.4759,0 11.237947,7.7024131 0 1 1 22.4759,0 z"
     transform="matrix(0.73047938,0,0,0.63983611,342.88132,-19.716376)" />
  <path
     sodipodi:type="arc"
     style="fill:#ffffff;fill-opacity:1;stroke:none;display:inline"
     id="path3854"
     sodipodi:cx="102.27795"
     sodipodi:cy="184.64114"
     sodipodi:rx="5.2472816"
     sodipodi:ry="4.0585575"
     d="m 107.52523,184.64114 a 5.2472816,4.0585575 0 1 1 -10.494565,0 5.2472816,4.0585575 0 1 1 10.494565,0 z"
     transform="matrix(0.86203073,0,0,0.76078647,378.32204,-47.206333)" />
  <path
     sodipodi:nodetypes="ccccccc"
     inkscape:connector-curvature="0"
     id="path4185"
     d="m 584.31925,111.88847 c 9.49816,-2.18202 14.98072,-15.731113 16.23097,-20.9178 1.03925,-11.325925 1.6708,-17.846332 -14.62875,-32.567808 -4.96307,-4.332628 -11.45284,-9.146428 -23.03415,-10.386519 -24.68604,3.171967 -27.09601,11.126067 -31.64191,20.144623 -3.22782,32.260564 9.96342,43.466414 13.61928,43.935264 14.95302,2.64687 26.32171,3.22429 39.45456,-0.20795 z"
     style="fill:#ffffff;fill-opacity:1;stroke:none;display:inline" />
  <path
     sodipodi:nodetypes="cc"
     inkscape:connector-curvature="0"
     id="path4187"
     d="M 539.21164,50.022172 C 555.779,36.700691 579.95136,43.403093 585.58367,48.941277"
     style="fill:none;stroke:#000000;stroke-width:3.45781922;stroke-linecap:round;stroke-linejoin:miter;stroke-miterlimit:4.84000015;stroke-opacity:1;stroke-dasharray:none;display:inline" />
  <path
     sodipodi:nodetypes="cccc"
     inkscape:connector-curvature="0"
     id="path4189"
     d="m 601.44211,83.622089 c 1.6414,3.462634 5.03584,5.268545 10.3181,5.967641 -5.6786,-2.167445 -7.51191,-5.090759 -10.52992,-9.473848 z"
     style="fill:#000000;fill-opacity:1;stroke:none;display:inline" />
  <path
     sodipodi:nodetypes="cccc"
     inkscape:connector-curvature="0"
     id="path4191"
     d="m 598.89797,73.504542 c 1.14031,2.476256 7.42879,7.529708 12.54335,6.231915 -3.09761,-0.05145 -14.18268,-7.854621 -12.99944,-8.932413 z"
     style="fill:#000000;fill-opacity:1;stroke:none;display:inline" />
  <path
     sodipodi:nodetypes="ccscc"
     inkscape:connector-curvature="0"
     id="path4193"
     d="m 577.50622,53.825997 c 16.70049,10.65068 12.96027,52.979543 0.28008,58.154053 0,0 -25.67801,0.65195 -27.10017,0.43273 -10.63125,-1.63887 -11.50642,-55.562642 -1.66407,-59.099283 8.11807,-4.822775 24.56207,-2.986896 28.48422,0.5125 z"
     style="fill:#2f5e29;fill-opacity:1;stroke:none;display:inline" />
  <path
     sodipodi:nodetypes="ccccccc"
     inkscape:connector-curvature="0"
     id="path4195"
     d="m 586.99387,111.65289 c -15.53621,0.84899 -27.76832,1.49041 -44.51371,0.1367 l 3.07522,1.91943 c 0,0 -0.71848,0.63989 -1.40782,0.91703 12.08723,-0.83092 40.52939,0.25939 40.52939,0.25939 l -1.52022,-0.84179 z"
     style="fill:#000000;fill-opacity:1;stroke:none;display:inline" />
  <path
     sodipodi:nodetypes="zczczszsz"
     inkscape:connector-curvature="0"
     id="path4197"
     d="m 548.9261,85.50892 c 3.71631,-0.04426 3.88375,2.148696 5.50502,7.020177 1.91729,4.57689 3.02669,7.668533 10.5209,7.736263 7.49422,0.0675 8.32734,-2.466993 10.40448,-7.847803 1.10267,-5.289875 2.50362,-6.960238 5.21997,-6.66525 2.7163,0.295041 4.16295,5.166307 2.65365,11.53228 -2.18847,9.230503 -6.82287,13.040833 -17.63306,12.969113 -10.81012,-0.0717 -16.89296,-4.51912 -18.41977,-13.477993 -0.49138,-2.88314 -1.96749,-11.222531 1.74881,-11.266787 z"
     style="fill:#7fc376;fill-opacity:1;stroke:none;display:inline" />
  <path
     sodipodi:nodetypes="cszszccczzsccc"
     inkscape:connector-curvature="0"
     id="path4199"
     d="m 530.56697,70.136117 c 2.46355,-4.805593 9.61752,-11.725436 14.06664,-14.113311 4.19744,-2.252775 11.14381,-4.146997 20.39902,-3.901848 9.25522,0.245219 9.03227,1.403179 14.87349,4.387447 5.84125,2.984328 7.27176,4.771201 11.45378,10.8441 4.18205,6.07293 9.24642,19.589721 8.52223,27.735312 l 1.60669,-6.152752 0.97404,5.404472 c 1.13911,-7.054456 -1.08342,-20.384001 -7.33664,-30.547291 -6.25321,-10.163372 -16.85444,-17.907998 -29.77894,-18.060944 -12.92452,-0.152823 -17.96131,2.263714 -22.52863,5.244335 -5.08702,3.319743 -12.55509,13.38454 -13.15966,16.904129 l 1.79494,-2.242403 z"
     style="fill:#000000;fill-opacity:1;stroke:none;display:inline" />
  <path
     sodipodi:nodetypes="zzzzz"
     inkscape:connector-curvature="0"
     id="path4201"
     d="m 575.54589,94.791707 c -3.05845,-0.36469 -0.83443,5.237403 -11.04058,5.13001 -10.2062,-0.10734 -6.80455,-5.19461 -9.93812,-5.09037 -3.13354,0.1042 -1.77106,11.402343 10.12808,11.515403 11.89917,0.11288 13.909,-11.190383 10.85062,-11.555043 z"
     style="fill:#aed9a8;fill-opacity:1;stroke:none;display:inline" />
  <path
     sodipodi:nodetypes="cccc"
     inkscape:connector-curvature="0"
     id="path4203"
     d="m 572.22546,99.764457 c 0,0 2.69151,2.661893 5.05247,4.144933 -0.62674,1.09675 -2.4838,2.08853 -2.4838,2.08853 z"
     style="fill:#ffffff;fill-opacity:1;stroke:#ffffff;stroke-width:3.45781922;stroke-linecap:butt;stroke-linejoin:miter;stroke-miterlimit:4.84000015;stroke-opacity:1;stroke-dasharray:none;display:inline" />
  <path
     style="fill:#ffffff;fill-opacity:1;stroke:#ffffff;stroke-width:3.45781922;stroke-linecap:butt;stroke-linejoin:miter;stroke-miterlimit:4.84000015;stroke-opacity:1;stroke-dasharray:none;display:inline"
     d="m 564.41777,102.7254 c 0,0 0.40637,3.78972 1.02931,5.86533 -0.65534,0.0401 -1.89472,-0.024 -1.89472,-0.024 z"
     id="path4205"
     inkscape:connector-curvature="0"
     sodipodi:nodetypes="cccc" />
  <path
     inkscape:transform-center-x="0.019579161"
     inkscape:transform-center-y="0.44440296"
     sodipodi:nodetypes="cccc"
     inkscape:connector-curvature="0"
     id="path4207"
     d="m 556.97414,99.809017 c 0,0 -1.62932,2.858723 -2.87678,5.357473 -0.57635,-0.29175 -2.48999,-2.41286 -2.48999,-2.41286 z"
     style="fill:#ffffff;fill-opacity:1;stroke:#ffffff;stroke-width:3.45781922;stroke-linecap:butt;stroke-linejoin:miter;stroke-miterlimit:4.84000015;stroke-opacity:1;stroke-dasharray:none;display:inline" />
  <path
     sodipodi:nodetypes="csccccc"
     inkscape:connector-curvature="0"
     id="path4209"
     d="m 588.29002,81.230585 c -4.39515,-13.764288 -11.51023,-23.40051 -23.3218,-23.670237 -9.27842,-0.211788 -13.69977,0.571692 -22.00127,9.363507 l 4.17853,-13.862965 17.95707,-2.630587 15.50351,4.749559 c 3.76286,8.562991 7.31617,18.862126 7.68396,26.050723 z"
     style="fill:#172f14;fill-opacity:1;stroke:none;display:inline" />
  <path
     transform="matrix(-0.63856966,0,0,0.58164498,643.0818,-11.614335)"
     d="m 134.70107,156.20126 a 11.742034,28.136572 0 1 1 -23.48407,0 11.742034,28.136572 0 1 1 23.48407,0 z"
     sodipodi:ry="28.136572"
     sodipodi:rx="11.742034"
     sodipodi:cy="156.20126"
     sodipodi:cx="122.95904"
     id="path4211"
     style="fill:#172f14;fill-opacity:1;stroke:none;display:inline"
     sodipodi:type="arc" />
  <path
     style="fill:none;stroke:#000000;stroke-width:3.45781922;stroke-linecap:butt;stroke-linejoin:miter;stroke-miterlimit:4.84000015;stroke-opacity:1;stroke-dasharray:none;display:inline"
     d="m 577.50622,53.825997 c 16.70049,10.65068 12.96027,52.979543 0.28008,58.154053 0,0 -25.67801,0.65195 -27.10017,0.43273 -10.63125,-1.63887 -13.91146,-55.562642 0.0324,-59.485894 8.11809,-4.822724 22.86442,-2.600285 26.78652,0.899111 z"
     id="path4213"
     inkscape:connector-curvature="0"
     sodipodi:nodetypes="ccscc" />
  <path
     transform="matrix(-0.72526966,0,0,0.63983611,656.79837,-20.153888)"
     d="m 154.04827,137.29024 a 11.237947,7.7024131 0 1 1 -22.4759,0 11.237947,7.7024131 0 1 1 22.4759,0 z"
     sodipodi:ry="7.7024131"
     sodipodi:rx="11.237947"
     sodipodi:cy="137.29024"
     sodipodi:cx="142.81032"
     id="path4215"
     style="fill:#ffffff;fill-opacity:1;stroke:none;display:inline"
     sodipodi:type="arc" />
  <path
     transform="matrix(-0.85588279,0,0,0.76078647,662.28059,-47.206333)"
     d="m 107.52523,184.64114 a 5.2472816,4.0585575 0 1 1 -10.494565,0 5.2472816,4.0585575 0 1 1 10.494565,0 z"
     sodipodi:ry="4.0585575"
     sodipodi:rx="5.2472816"
     sodipodi:cy="184.64114"
     sodipodi:cx="102.27795"
     id="path4217"
     style="fill:#ffffff;fill-opacity:1;stroke:none;display:inline"
     sodipodi:type="arc" />
  <path
     style="fill:none;stroke:#000000;stroke-width:3.47021604;stroke-linecap:round;stroke-linejoin:miter;stroke-miterlimit:4.84000015;stroke-opacity:1;stroke-dasharray:none;display:inline"
     d="M 478.94615,19.634848 C 428.31488,18.397307 410.49312,47.060861 410.49312,47.060861"
     id="path4775"
     inkscape:connector-curvature="0"
     sodipodi:nodetypes="cc" />
  <path
     style="fill:none;stroke:#000000;stroke-width:3.45781922;stroke-linecap:round;stroke-linejoin:miter;stroke-miterlimit:4.84000015;stroke-opacity:1;stroke-dasharray:none;display:inline"
     d="m 536.09288,18.100969 c 50.27018,-1.23754 67.96484,27.426014 67.96484,27.426014"
     id="path4775-2"
     inkscape:connector-curvature="0"
     sodipodi:nodetypes="cc" />
</svg>
