<?xml version="1.0" encoding="UTF-8" standalone="no"?>
<!-- Created with Inkscape (http://www.inkscape.org/) -->

<svg
   xmlns:dc="http://purl.org/dc/elements/1.1/"
   xmlns:cc="http://creativecommons.org/ns#"
   xmlns:rdf="http://www.w3.org/1999/02/22-rdf-syntax-ns#"
   xmlns:svg="http://www.w3.org/2000/svg"
   xmlns="http://www.w3.org/2000/svg"
   xmlns:xlink="http://www.w3.org/1999/xlink"
   xmlns:sodipodi="http://sodipodi.sourceforge.net/DTD/sodipodi-0.dtd"
   xmlns:inkscape="http://www.inkscape.org/namespaces/inkscape"
   id="svg3055"
   version="1.1"
   inkscape:version="0.48.3.1 r9886"
   width="1024"
   height="256"
   sodipodi:docname="aereye2.svg"
   inkscape:export-filename="/home/ari/Share/lipsofsuna-data/actors/aereye2.png"
   inkscape:export-xdpi="90"
   inkscape:export-ydpi="90">
  <metadata
     id="metadata3061">
    <rdf:RDF>
      <cc:Work
         rdf:about="">
        <dc:format>image/svg+xml</dc:format>
        <dc:type
           rdf:resource="http://purl.org/dc/dcmitype/StillImage" />
        <dc:title></dc:title>
      </cc:Work>
    </rdf:RDF>
  </metadata>
  <defs
     id="defs3059" />
  <sodipodi:namedview
     pagecolor="#ffffff"
     bordercolor="#666666"
     borderopacity="1"
     objecttolerance="10"
     gridtolerance="10"
     guidetolerance="10"
     inkscape:pageopacity="0"
     inkscape:pageshadow="2"
     inkscape:window-width="1887"
     inkscape:window-height="1058"
     id="namedview3057"
     showgrid="false"
     inkscape:zoom="2.6516504"
     inkscape:cx="597.13147"
     inkscape:cy="147.14308"
     inkscape:window-x="33"
     inkscape:window-y="0"
     inkscape:window-maximized="1"
     inkscape:current-layer="svg3055" />
  <g
     id="g3909"
     transform="matrix(1.0084715,0,0,0.88109816,-16.054124,-21.520422)">
    <path
       style="fill:#ffffff;fill-opacity:1;stroke:none;display:inline"
       d="m 597.16133,151.99965 c 5.568,-1.65417 23.94085,-49.82966 25.3901,-53.657036 0,0 -18.64394,-9.046451 -24.49423,-11.888013 -6.05426,-3.434426 -11.041,-5.909307 -22.96857,-7.324077 -24.87364,5.584694 -25.04786,10.429377 -30.89088,16.571085 -1.72433,43.871431 8.56425,56.000171 12.32939,56.535061 15.4001,3.01971 27.10869,3.67847 40.63419,-0.23724 z"
       id="path4185"
       inkscape:connector-curvature="0"
       sodipodi:nodetypes="cccccccc" />
    <path
       style="fill:none;stroke:#000000;stroke-width:3.74813747;stroke-linecap:round;stroke-linejoin:miter;stroke-miterlimit:4.84000015;stroke-opacity:1;stroke-dasharray:none;display:inline"
       d="m 545.04824,88.584243 c 15.71635,-18.185327 39.3179,-16.790969 53.41531,-12.169735"
       id="path4187"
       inkscape:connector-curvature="0"
       sodipodi:nodetypes="cc" />
    <path
       inkscape:transform-center-y="1.1110109"
       inkscape:transform-center-x="-3.7101994"
       style="fill:#000000;fill-opacity:1;stroke:none;display:inline"
       d="m 623.76177,99.999411 c 4.05863,1.410949 7.93606,0.214379 12.18953,-3.269834 -5.76668,2.657704 -9.50358,1.80725 -15.2933,0.737063 z"
       id="path4189"
       inkscape:connector-curvature="0"
       sodipodi:nodetypes="cccc" />
    <path
       style="fill:#000000;fill-opacity:1;stroke:none;display:inline"
       d="m 615.8872,96.171256 c 3.01171,0.538294 11.36239,-1.796125 12.96277,-7.028459 -1.7732,2.652693 -15.43281,7.448797 -15.80899,5.758986 z"
       id="path4191"
       inkscape:connector-curvature="0"
       sodipodi:nodetypes="cccc" />
    <path
       style="fill:#2f5e29;fill-opacity:1;stroke:none;display:inline"
       d="m 590.14461,85.758524 c 17.19981,12.15093 13.34774,60.442216 0.28845,66.345606 0,0 -26.44574,0.74378 -27.91042,0.49368 -10.94911,-1.86972 -11.85044,-63.389166 -1.71383,-67.423976 8.3608,-5.50211 25.29643,-3.40763 29.33585,0.58469 z"
       id="path4193"
       inkscape:connector-curvature="0"
       sodipodi:nodetypes="ccscc" />
    <path
       style="fill:#000000;fill-opacity:1;stroke:none;display:inline"
       d="m 599.91592,151.73088 c -16.00071,0.96859 -28.59853,1.70035 -45.84458,0.15596 l 3.16716,2.1898 c 0,0 -0.73996,0.73003 -1.44992,1.0462 12.44862,-0.94796 41.74115,0.29593 41.74115,0.29593 l -1.56567,-0.96037 z"
       id="path4195"
       inkscape:connector-curvature="0"
       sodipodi:nodetypes="ccccccc" />
    <path
       style="fill:#7fc376;fill-opacity:1;stroke:none;display:inline"
       d="m 560.71,121.90429 c 3.82742,-0.0505 3.99986,2.45136 5.66961,8.00904 1.9746,5.22158 3.11717,8.74871 10.83545,8.82599 7.71828,0.0771 8.57631,-2.8145 10.71556,-8.95325 1.13562,-6.035 2.57847,-7.94065 5.37603,-7.60411 2.79751,0.3366 4.28741,5.89403 2.73298,13.15671 -2.25388,10.53071 -7.02686,14.87776 -18.16024,14.79594 -11.13334,-0.0818 -17.39803,-5.15569 -18.97049,-15.3765 -0.50607,-3.28926 -2.02631,-12.80333 1.8011,-12.85382 z"
       id="path4197"
       inkscape:connector-curvature="0"
       sodipodi:nodetypes="zczczszsz" />
    <path
       style="fill:#000000;fill-opacity:1;stroke:none;display:inline"
       d="m 541.94143,99.714985 c 3.50161,-3.465236 5.50949,-4.5348 11.18958,-8.231845 4.21503,-2.743471 10.09629,-4.960114 19.441,-6.860691 9.34474,-1.900498 9.42231,-0.561867 16.0559,1.38175 6.63364,1.943676 12.29191,4.39781 16.49049,6.484582 4.19859,2.086772 9.76508,4.835455 13.82552,7.225807 -0.46011,1.745252 -4.81308,9.181082 -6.40501,14.290392 l 4.26703,-3.61299 -2.42603,7.68242 c 3.19252,-5.07125 10.89158,-16.01128 12.21376,-19.448558 -6.14323,-4.326867 -14.64846,-9.262802 -19.51001,-11.598998 -4.86156,-2.336196 -7.58967,-3.910873 -13.50731,-6.307073 -5.88836,-2.384334 -12.09537,-3.754831 -21.21922,-3.457531 -9.12385,0.2973 -17.19423,5.501329 -21.41596,8.851934 -3.3942,2.69383 -8.73198,7.633115 -10.68563,11.118999 l 3.47948,-1.592377 z"
       id="path4199"
       inkscape:connector-curvature="0"
       sodipodi:nodetypes="cszszccccczszsccc" />
    <path
       style="fill:#aed9a8;fill-opacity:1;stroke:none;display:inline"
       d="m 588.12567,132.49464 c -3.1499,-0.41605 -0.85939,5.97514 -11.37069,5.85263 -10.51133,-0.12246 -7.00798,-5.92632 -10.23523,-5.8074 -3.22724,0.11888 -1.82402,13.00846 10.43088,13.13745 12.25494,0.12878 14.32486,-12.76665 11.17504,-13.18268 z"
       id="path4201"
       inkscape:connector-curvature="0"
       sodipodi:nodetypes="zzzzz" />
    <path
       style="fill:#ffffff;fill-opacity:1;stroke:#ffffff;stroke-width:3.74813747;stroke-linecap:butt;stroke-linejoin:miter;stroke-miterlimit:4.84000015;stroke-opacity:1;stroke-dasharray:none;display:inline"
       d="m 584.70596,138.16786 c 0,0 2.77198,3.03683 5.20353,4.72878 -0.64548,1.25124 -2.55806,2.38272 -2.55806,2.38272 z"
       id="path4203"
       inkscape:connector-curvature="0"
       sodipodi:nodetypes="cccc" />
    <path
       sodipodi:nodetypes="cccc"
       inkscape:connector-curvature="0"
       id="path4205"
       d="m 576.66483,141.54587 c 0,0 0.41852,4.32354 1.06008,6.69152 -0.67493,0.0458 -1.95135,-0.0274 -1.95135,-0.0274 z"
       style="fill:#ffffff;fill-opacity:1;stroke:#ffffff;stroke-width:3.74813747;stroke-linecap:butt;stroke-linejoin:miter;stroke-miterlimit:4.84000015;stroke-opacity:1;stroke-dasharray:none;display:inline" />
    <path
       style="fill:#ffffff;fill-opacity:1;stroke:#ffffff;stroke-width:3.74813747;stroke-linecap:butt;stroke-linejoin:miter;stroke-miterlimit:4.84000015;stroke-opacity:1;stroke-dasharray:none;display:inline"
       d="m 568.99865,138.21869 c 0,0 -1.67804,3.2614 -2.96279,6.11212 -0.59358,-0.33284 -2.56443,-2.75273 -2.56443,-2.75273 z"
       id="path4207"
       inkscape:connector-curvature="0"
       sodipodi:nodetypes="cccc"
       inkscape:transform-center-y="0.50699949"
       inkscape:transform-center-x="0.020165824" />
    <path
       style="fill:#172f14;fill-opacity:1;stroke:none;display:inline"
       d="m 601.25082,117.02331 c -4.52655,-15.70312 -11.85436,-26.696696 -24.01908,-27.004416 -9.55582,-0.24162 -14.10937,0.65222 -22.65907,10.682446 l 4.30347,-15.815696 18.49395,-3.00113 15.96703,5.41858 c 3.87537,9.76917 7.53491,21.519036 7.9137,29.720216 z"
       id="path4209"
       inkscape:connector-curvature="0"
       sodipodi:nodetypes="csccccc" />
    <path
       sodipodi:type="arc"
       style="fill:#172f14;fill-opacity:1;stroke:none;display:inline"
       id="path4211"
       sodipodi:cx="122.95904"
       sodipodi:cy="156.20126"
       sodipodi:rx="11.742034"
       sodipodi:ry="28.136572"
       d="m 134.70107,156.20126 a 11.742034,28.136572 0 1 1 -23.48407,0 11.742034,28.136572 0 1 1 23.48407,0 z"
       transform="matrix(-0.65766169,0,0,0.66357524,657.68077,11.100294)" />
    <path
       sodipodi:nodetypes="ccscc"
       inkscape:connector-curvature="0"
       id="path4213"
       d="m 590.14461,85.758524 c 17.19981,12.15093 13.34774,60.442216 0.28845,66.345606 0,0 -26.44574,0.74378 -27.91042,0.49368 -10.94911,-1.86972 -14.32739,-63.389166 0.0335,-67.865046 8.36079,-5.50205 23.54801,-2.96656 27.58738,1.02576 z"
       style="fill:none;stroke:#000000;stroke-width:3.74813747;stroke-linecap:butt;stroke-linejoin:miter;stroke-miterlimit:4.84000015;stroke-opacity:1;stroke-dasharray:none;display:inline" />
    <path
       sodipodi:type="arc"
       style="fill:#ffffff;fill-opacity:1;stroke:none;display:inline"
       id="path4215"
       sodipodi:cx="142.81032"
       sodipodi:cy="137.29024"
       sodipodi:rx="11.237947"
       sodipodi:ry="7.7024131"
       d="m 154.04827,137.29024 a 11.237947,7.7024131 0 1 1 -22.4759,0 11.237947,7.7024131 0 1 1 22.4759,0 z"
       transform="matrix(-0.74695385,0,0,0.72996314,671.80744,1.3578641)" />
    <path
       sodipodi:type="arc"
       style="fill:#ffffff;fill-opacity:1;stroke:none;display:inline"
       id="path4217"
       sodipodi:cx="102.27795"
       sodipodi:cy="184.64114"
       sodipodi:rx="5.2472816"
       sodipodi:ry="4.0585575"
       d="m 107.52523,184.64114 a 5.2472816,4.0585575 0 1 1 -10.494565,0 5.2472816,4.0585575 0 1 1 10.494565,0 z"
       transform="matrix(-0.88147206,0,0,0.86795052,677.45356,-29.505176)" />
    <path
       sodipodi:nodetypes="cc"
       inkscape:connector-curvature="0"
       id="path4775-2"
       d="m 545.0764,67.796717 c 29.16901,-25.213272 52.53,-26.734837 52.77611,-26.204831"
       style="fill:none;stroke:#000000;stroke-width:3.74813747;stroke-linecap:round;stroke-linejoin:miter;stroke-miterlimit:4.84000015;stroke-opacity:1;stroke-dasharray:none;display:inline" />
    <path
       style="fill:#000000;fill-opacity:1;stroke:none;display:inline"
       d="m 609.54514,92.936936 c 2.97688,-0.705932 7.30657,-3.773539 6.69027,-9.210331 -0.56979,3.139486 -8.78845,10.57979 -9.80661,9.179675 z"
       id="path4191-1"
       inkscape:connector-curvature="0"
       sodipodi:nodetypes="cccc" />
  </g>
  <use
     x="0"
     y="0"
     xlink:href="#g3909"
     id="use3930"
     transform="matrix(-1,0,0,1,1024.3443,-0.08307057)"
     width="1024"
     height="256" />
</svg>
