<?xml version="1.0" encoding="UTF-8" standalone="no"?>
<!-- Created with Inkscape (http://www.inkscape.org/) -->

<svg
   xmlns:dc="http://purl.org/dc/elements/1.1/"
   xmlns:cc="http://creativecommons.org/ns#"
   xmlns:rdf="http://www.w3.org/1999/02/22-rdf-syntax-ns#"
   xmlns:svg="http://www.w3.org/2000/svg"
   xmlns="http://www.w3.org/2000/svg"
   xmlns:xlink="http://www.w3.org/1999/xlink"
   xmlns:sodipodi="http://sodipodi.sourceforge.net/DTD/sodipodi-0.dtd"
   xmlns:inkscape="http://www.inkscape.org/namespaces/inkscape"
   id="svg3139"
   version="1.1"
   inkscape:version="0.48.3.1 r9886"
   width="1024"
   height="1024"
   sodipodi:docname="aerleggings1.svg"
   inkscape:export-filename="/home/ari/Share/lipsofsuna-data/apparel/aerleggings1.png"
   inkscape:export-xdpi="90"
   inkscape:export-ydpi="90">
  <metadata
     id="metadata3145">
    <rdf:RDF>
      <cc:Work
         rdf:about="">
        <dc:format>image/svg+xml</dc:format>
        <dc:type
           rdf:resource="http://purl.org/dc/dcmitype/StillImage" />
        <dc:title></dc:title>
      </cc:Work>
    </rdf:RDF>
  </metadata>
  <defs
     id="defs3143" />
  <sodipodi:namedview
     pagecolor="#ffffff"
     bordercolor="#666666"
     borderopacity="1"
     objecttolerance="10"
     gridtolerance="10"
     guidetolerance="10"
     inkscape:pageopacity="0"
     inkscape:pageshadow="2"
     inkscape:window-width="1887"
     inkscape:window-height="1058"
     id="namedview3141"
     showgrid="false"
     inkscape:zoom="0.45254834"
     inkscape:cx="740.9403"
     inkscape:cy="407.84577"
     inkscape:window-x="33"
     inkscape:window-y="0"
     inkscape:window-maximized="1"
     inkscape:current-layer="svg3139" />
  <g
     id="g4577">
    <path
       sodipodi:nodetypes="cccccccccccccccccccccccccc"
       inkscape:connector-curvature="0"
       id="path4565"
       d="m 891.5826,1024.7842 -1.82969,-66.39171 -0.78415,-30.58199 -2.09108,-24.43945 -1.82969,-30.18992 2.09108,-36.85522 2.09107,-25.09291 -1.56831,-24.30876 -3.39799,-27.96814 -2.09108,-30.05922 -3.65938,-34.50276 60.6412,1.82969 54.62937,-3.398 21.69495,3.398 -9.4099,35.80968 -10.71674,29.53645 -7.58015,27.18399 -6.01185,24.30876 0.78416,28.22953 2.61384,31.36614 -2.87523,31.10476 -3.92077,30.3206 c 0,0 -4.44353,32.41169 -3.92076,33.45722 0.52276,1.04554 -2.61385,31.36615 -2.61385,31.36615 l -3.13661,26.39981 z"
       style="fill:#ffffff;stroke:#ffffff;stroke-width:1px;stroke-linecap:butt;stroke-linejoin:miter;stroke-opacity:1;fill-opacity:1" />
    <path
       sodipodi:nodetypes="cccccccccccccccccccc"
       inkscape:connector-curvature="0"
       id="path4567"
       d="m 511.79089,701.97427 13.06923,92.53012 5.22769,59.59567 1.56831,31.36614 8.23361,29.01369 2.74454,27.44537 5.75046,31.88891 6.79599,28.75233 4.70492,27.7067 76.32428,-1.5683 9.40985,-38.16212 3.13661,-56.98182 7.84154,-57.5046 -10.45538,-27.70676 -4.70493,-28.7523 5.75046,-26.13845 6.796,-60.11844 0.52277,-29.79783 -76.32428,-10.45538 z"
       style="fill:#ffffff;stroke:#ffffff;stroke-width:1px;stroke-linecap:butt;stroke-linejoin:miter;stroke-opacity:1;fill-opacity:1" />
    <path
       sodipodi:nodetypes="caccacc"
       inkscape:connector-curvature="0"
       id="path3149"
       d="m 511.45763,693.69492 c 0,0 48.28604,-8.12994 72.67796,-8.67797 24.0045,-0.53933 71.835,5.31917 71.835,5.31917 l -1.08474,20.91641 c 0,0 -47.72988,-8.16457 -71.835,-8.33728 -23.25969,-0.16665 -69.42373,7.05085 -69.42373,7.05085 z"
       style="fill:#6085ef;fill-opacity:1;stroke:#6085ef;stroke-width:1px;stroke-linecap:butt;stroke-linejoin:miter;stroke-opacity:1" />
    <path
       sodipodi:nodetypes="cscccccccccccccccccccc"
       inkscape:connector-curvature="0"
       id="path4569"
       d="m 705.21544,189.66061 c 0,0 29.79783,6.27323 32.93445,6.27323 3.13661,0 38.16214,-2.61385 38.16214,-2.61385 l 16.20584,14.63754 9.93261,15.68307 31.88891,2.09107 24.04738,-23.5246 50.18583,-85.73413 -23.52461,-30.843371 -23.52461,-15.160302 7.84154,-21.9563 -54.89075,-44.9581375 -10.97815,0 -48.09476,7.3187665 -47.04921,-5.2276903 -29.27506,14.1147643 -31.88892,28.752297 12.02369,21.9563 29.27507,30.843373 14.11476,40.25322 -2.61384,40.77598 z"
       style="fill:#ffffff;stroke:#ffffff;stroke-width:1px;stroke-linecap:butt;stroke-linejoin:miter;stroke-opacity:1;fill-opacity:1" />
    <path
       sodipodi:nodetypes="ccaccac"
       inkscape:connector-curvature="0"
       id="path3151"
       d="m 514.71187,725.42373 c 1.8983,4.88135 2.44067,17.08474 2.44067,17.08474 0,0 42.87129,-8.17004 64.54238,-7.8644 23.67401,0.33389 70.23728,10.57627 70.23728,10.57627 l 1.89831,-17.62712 c 0,0 -45.56119,-8.28878 -68.61017,-8.67797 -23.59938,-0.39848 -70.50847,6.50848 -70.50847,6.50848 z"
       style="fill:#6085ef;fill-opacity:1;stroke:#6085ef;stroke-width:1px;stroke-linecap:butt;stroke-linejoin:miter;stroke-opacity:1" />
    <path
       sodipodi:nodetypes="caaccaaacc"
       inkscape:connector-curvature="0"
       id="path3153"
       d="m 518.23729,757.42373 c 1.08474,0 23.81387,-3.11036 35.79661,-3.52543 21.87174,-0.75762 43.79216,0.42139 65.62712,1.89831 11.0654,0.74846 33.08474,3.52542 33.08474,3.52542 l -2.44067,16.54238 c 0,0 -19.76204,-4.76024 -29.83051,-5.96611 -17.51676,-2.09793 -35.25473,-2.90453 -52.88136,-2.16949 -8.73791,0.36437 -17.34382,2.27124 -26.0339,3.25424 -7.13228,0.80678 -21.42373,2.16949 -21.42373,2.16949 z"
       style="fill:#6085ef;fill-opacity:1;stroke:#6085ef;stroke-width:1px;stroke-linecap:butt;stroke-linejoin:miter;stroke-opacity:1" />
    <path
       sodipodi:nodetypes="caaaccaaacc"
       inkscape:connector-curvature="0"
       id="path3155"
       d="m 521.76271,783.72881 c 0,0 19.69157,1.69947 29.55933,1.62712 11.68905,-0.0857 23.29402,-2.35289 34.98305,-2.44068 11.58758,-0.087 23.15239,1.08702 34.71186,1.89831 9.50295,0.66696 28.47458,2.44068 28.47458,2.44068 l -5.42373,15.18644 c 0,0 -19.41887,-4.136 -29.28814,-4.88136 -12.53059,-0.94636 -25.16041,-0.3507 -37.69491,0.54237 -6.36364,0.4534 -12.61632,2.03307 -18.98305,2.44068 -10.73509,0.68728 -32.27119,0 -32.27119,0 z"
       style="fill:#6085ef;fill-opacity:1;stroke:#6085ef;stroke-width:1px;stroke-linecap:butt;stroke-linejoin:miter;stroke-opacity:1" />
    <path
       sodipodi:nodetypes="caaaccaaacc"
       inkscape:connector-curvature="0"
       id="path3157"
       d="m 528.54237,813.83051 c 2.71187,0.27118 22.24009,1.18204 33.35594,0.81356 10.97693,-0.36388 21.83315,-2.74651 32.81356,-2.98305 9.50007,-0.20465 19.0104,0.5058 28.47457,1.35593 6.17563,0.55473 18.44068,2.44068 18.44068,2.44068 l 2.44068,12.74576 c 0,0 -17.53506,-0.48398 -26.30509,-0.54237 -12.38424,-0.0825 -24.77729,-0.20773 -37.15254,0.27118 -10.3227,0.39948 -20.59116,1.80769 -30.91525,2.16949 -6.41414,0.22478 -19.25424,0 -19.25424,0 z"
       style="fill:#6085ef;fill-opacity:1;stroke:#6085ef;stroke-width:1px;stroke-linecap:butt;stroke-linejoin:miter;stroke-opacity:1" />
    <path
       sodipodi:nodetypes="ccaaaccaaac"
       inkscape:connector-curvature="0"
       id="path3159"
       d="m 530.44068,843.9322 0.54237,15.45763 c 0,0 15.69891,2.39701 23.59322,2.16949 10.32535,-0.29759 20.35269,-3.72201 30.64407,-4.61017 15.76474,-1.36052 31.64454,-0.51527 47.45763,-1.08474 5.51721,-0.19869 16.54237,-0.81356 16.54237,-0.81356 l -4.88136,-14.91526 c 0,0 -15.35799,1.23704 -23.05084,1.62712 -14.63224,0.74195 -29.31143,0.41465 -43.93221,1.35593 -9.2454,0.59521 -18.39647,2.7144 -27.66101,2.71187 -6.4492,-0.002 -19.25424,-1.89831 -19.25424,-1.89831 z"
       style="fill:#6085ef;fill-opacity:1;stroke:#6085ef;stroke-width:1px;stroke-linecap:butt;stroke-linejoin:miter;stroke-opacity:1" />
    <path
       sodipodi:nodetypes="caaaccaaacc"
       inkscape:connector-curvature="0"
       id="path3161"
       d="m 530.16949,875.9322 c 0,0 17.72614,1.28928 26.57627,0.81356 13.12295,-0.7054 25.94719,-4.42195 39.05085,-5.42373 12.34946,-0.94412 24.76951,-0.29524 37.15254,-0.54237 7.14211,-0.14253 21.42373,-0.54237 21.42373,-0.54237 l 2.16949,13.83051 c 0,0 -13.37011,1.05326 -20.06779,1.35593 -15.80721,0.71432 -31.66953,0.0292 -47.45763,1.08474 -8.98417,0.60063 -17.88739,2.09241 -26.84746,2.98306 -10.29392,1.02323 -30.91525,2.71186 -30.91525,2.71186 z"
       style="fill:#6085ef;fill-opacity:1;stroke:#6085ef;stroke-width:1px;stroke-linecap:butt;stroke-linejoin:miter;stroke-opacity:1" />
    <path
       sodipodi:nodetypes="ccaccac"
       inkscape:connector-curvature="0"
       id="path3163"
       d="m 537.77579,906.43577 2.87196,14.65388 c 0,0 37.86077,-7.23199 57.04717,-8.27609 17.88303,-0.97318 53.69491,1.8983 53.69491,1.8983 l 2.44068,-15.45762 c 0,0 -39.08834,-1.48404 -58.57627,-0.27119 -19.28256,1.20007 -57.47845,7.45272 -57.47845,7.45272 z"
       style="fill:#6085ef;fill-opacity:1;stroke:#6085ef;stroke-width:1px;stroke-linecap:butt;stroke-linejoin:miter;stroke-opacity:1" />
    <path
       sodipodi:nodetypes="ccaccaac"
       inkscape:connector-curvature="0"
       id="path3165"
       d="m 541.01695,935.05085 2.44068,12.47457 c 0,0 36.23179,-5.61411 54.50847,-6.50847 17.15842,-0.83964 51.52543,1.08474 51.52543,1.08474 l -0.27119,-15.18644 c 0,0 -26.0459,0.84843 -39.05085,1.62712 -11.58513,0.69367 -23.15709,1.62391 -34.71186,2.71187 -11.49891,1.0827 -34.44068,3.79661 -34.44068,3.79661 z"
       style="fill:#6085ef;fill-opacity:1;stroke:#6085ef;stroke-width:1px;stroke-linecap:butt;stroke-linejoin:miter;stroke-opacity:1" />
    <path
       sodipodi:nodetypes="ccaaaccaacc"
       inkscape:connector-curvature="0"
       id="path3167"
       d="m 546.71187,963.52542 1.62711,12.74577 c 0,0 17.53493,-2.5436 26.30509,-3.79661 8.94734,-1.27832 17.83696,-3.0896 26.84746,-3.79661 11.17615,-0.87694 22.47976,-1.73053 33.62712,-0.54238 3.96825,0.42296 11.66101,2.71187 11.66101,2.71187 l 1.08475,-15.45763 c 0,0 -18.44024,-0.27256 -27.66102,-0.27119 -8.94961,0.001 -17.9351,-0.54446 -26.84746,0.27119 -16.26462,1.48851 -48.27118,8.40678 -48.27118,8.40678 z"
       style="fill:#6085ef;fill-opacity:1;stroke:#6085ef;stroke-width:1px;stroke-linecap:butt;stroke-linejoin:miter;stroke-opacity:1" />
    <path
       sodipodi:nodetypes="ccaaccaac"
       inkscape:connector-curvature="0"
       id="path3169"
       d="m 553.22034,990.64407 c 0.27119,1.8983 1.89831,16.27123 1.89831,16.27123 0,0 21.09357,-4.4846 31.72881,-6.2373 9.44809,-1.55702 18.89906,-3.79072 28.47458,-3.79664 9.66513,-0.006 28.74576,3.79664 28.74576,3.79664 l 1.8983,-15.45766 c 0,0 -16.59336,-2.37128 -24.94915,-2.44068 -13.42197,-0.11148 -26.81461,1.60709 -40.13559,3.25424 -9.27687,1.14709 -27.66102,4.61017 -27.66102,4.61017 z"
       style="fill:#6085ef;fill-opacity:1;stroke:#6085ef;stroke-width:1px;stroke-linecap:butt;stroke-linejoin:miter;stroke-opacity:1" />
    <path
       sodipodi:nodetypes="caaccaacc"
       inkscape:connector-curvature="0"
       id="path3171"
       d="m 797.83051,154.57627 c 0,0 -31.14239,5.92181 -46.91525,6.23729 -10.80076,0.21603 -21.70721,-5.24258 -32.27119,-2.98305 -3.95813,0.84661 -10.57627,5.9661 -10.57627,5.9661 l -2.71187,19.79661 c 0,0 20.25608,5.34601 30.64407,5.9661 11.12856,0.6643 22.6927,0.81225 33.35593,-2.44068 9.75909,-2.97711 26.57628,-15.18644 26.57628,-15.18644 z"
       style="fill:#6085ef;fill-opacity:1;stroke:#6085ef;stroke-width:1px;stroke-linecap:butt;stroke-linejoin:miter;stroke-opacity:1" />
    <path
       sodipodi:nodetypes="ccaccaaac"
       inkscape:connector-curvature="0"
       id="path3173"
       d="m 805.15254,164.06779 c 1.08475,-1.08474 13.83051,-17.35593 13.83051,-17.35593 0,0 12.88229,14.66326 20.88136,20.0678 8.21361,5.5495 27.11864,12.20339 27.11864,12.20339 l -15.18644,25.49152 c 0,0 -8.16123,-3.21737 -11.9322,-5.42372 -6.86639,-4.01744 -13.96954,-8.15536 -19.25424,-14.1017 -3.17298,-3.57024 -4.1605,-8.67191 -7.05085,-12.47458 -2.39811,-3.15506 -8.40678,-8.40678 -8.40678,-8.40678 z"
       style="fill:#6085ef;fill-opacity:1;stroke:#6085ef;stroke-width:1px;stroke-linecap:butt;stroke-linejoin:miter;stroke-opacity:1" />
    <path
       sodipodi:nodetypes="caccaacc"
       inkscape:connector-curvature="0"
       id="path3175"
       d="m 827.93221,123.9322 c 2.71186,3.52543 17.1182,13.27251 25.76271,19.79661 7.6339,5.76138 23.05084,17.08475 23.05084,17.08475 l 10.0339,-14.1017 c 0,0 -13.54903,-5.00687 -19.52542,-8.94915 -7.6391,-5.03908 -13.92534,-11.91279 -20.33898,-18.44068 -4.04068,-4.11266 -11.38983,-13.01695 -11.38983,-13.01695 z"
       style="fill:#6085ef;fill-opacity:1;stroke:#6085ef;stroke-width:1px;stroke-linecap:butt;stroke-linejoin:miter;stroke-opacity:1" />
    <path
       sodipodi:nodetypes="caccacc"
       inkscape:connector-curvature="0"
       id="path3177"
       d="m 842.84746,96.271184 c 1.62712,1.355933 18.02934,12.657286 26.84746,19.254236 9.17967,6.86743 27.11864,21.15254 27.11864,21.15254 l 9.22034,-15.45762 c 0,0 -12.38883,-20.70058 -21.15254,-28.745766 -8.04013,-7.380934 -27.93221,-17.084745 -27.93221,-17.084745 z"
       style="fill:#6085ef;fill-opacity:1;stroke:#6085ef;stroke-width:1px;stroke-linecap:butt;stroke-linejoin:miter;stroke-opacity:1" />
    <path
       sodipodi:nodetypes="caaccaaacc"
       inkscape:connector-curvature="0"
       id="path3179"
       d="m 704.27119,143.45763 c 2.71186,0.81355 32.71468,1.49821 49.08474,1.62711 10.39673,0.0819 21.02749,1.66995 31.18644,-0.54237 5.30026,-1.15424 14.91526,-6.50847 14.91526,-6.50847 l 4.33898,-12.20339 c 0,0 -15.60499,6.38188 -23.8644,7.59322 -10.64471,1.56117 -21.51658,-0.24988 -32.27119,-0.54238 -12.02665,-0.32709 -24.23036,0.79401 -36.0678,-1.35593 C 707.93691,130.86136 701.01695,128 701.01695,128 z"
       style="fill:#6085ef;fill-opacity:1;stroke:#6085ef;stroke-width:1px;stroke-linecap:butt;stroke-linejoin:miter;stroke-opacity:1" />
    <path
       sodipodi:nodetypes="ccaaaaaccaaaaac"
       inkscape:connector-curvature="0"
       id="path3181"
       d="M 694.77966,108.47457 C 694.77966,105.49152 688,91.661015 688,91.661015 c 0,0 7.65377,-0.952578 11.38983,-0.271186 8.05871,1.46977 15.00822,6.630403 22.77966,9.220341 9.04864,3.01558 18.17146,6.36292 27.66102,7.32203 10.9904,1.1108 22.25738,0.29048 33.08475,-1.8983 8.46334,-1.71089 16.30486,-5.69231 24.40678,-8.67797 6.89963,-2.542601 20.61017,-7.864407 20.61017,-7.864407 l -11.11865,20.881357 c 0,0 -4.3586,-0.2911 -6.50847,0 -10.77919,1.45953 -20.79302,6.53621 -31.45763,8.67797 -7.68392,1.54315 -15.48718,2.7854 -23.32203,2.98305 -8.24767,0.20807 -16.67665,0.11319 -24.67797,-1.89831 -7.3792,-1.8551 -13.58502,-7.06222 -20.88136,-9.22034 -4.91655,-1.45422 -15.18644,-2.44068 -15.18644,-2.44068 z"
       style="fill:#6085ef;fill-opacity:1;stroke:#6085ef;stroke-width:1px;stroke-linecap:butt;stroke-linejoin:miter;stroke-opacity:1" />
    <path
       sodipodi:nodetypes="caaaaaaccaaaaaaccc"
       inkscape:connector-curvature="0"
       id="path3183"
       d="m 656.81356,43.932201 c 0.27119,1.084746 12.79609,14.588019 20.33898,20.61017 9.64471,7.700221 20.02148,14.885574 31.45763,19.525424 10.97531,4.452879 22.89462,6.794376 34.71187,7.59322 13.48177,0.911365 27.19009,-0.442174 40.40678,-3.254237 13.03114,-2.772584 25.70921,-7.470852 37.69491,-13.288136 9.7238,-4.719466 19.2598,-10.23355 27.38983,-17.355932 4.34416,-3.805743 11.11865,-13.288136 11.11865,-13.288136 l -9.76272,-8.677966 c 0,0 -11.57631,10.352372 -18.16949,14.372881 -9.15298,5.581474 -19.37041,9.217667 -29.28813,13.288136 -8.4665,3.474855 -16.74854,7.910099 -25.76272,9.491526 -15.75957,2.764822 -32.36746,3.139355 -48,-0.271187 -10.9493,-2.388801 -20.72786,-8.609157 -30.64406,-13.830508 -8.32651,-4.384304 -16.83053,-8.712047 -24.1356,-14.644068 -2.97884,-2.418941 -7.8644,-8.40678 -7.8644,-8.40678 l -11.11865,7.864407 z"
       style="fill:#6085ef;fill-opacity:1;stroke:#6085ef;stroke-width:1px;stroke-linecap:butt;stroke-linejoin:miter;stroke-opacity:1" />
    <path
       sodipodi:nodetypes="caaaaccaaaacc"
       inkscape:connector-curvature="0"
       id="path3185"
       d="m 683.38983,20.338981 c 1.35593,1.627119 15.34001,16.76536 24.67797,23.050847 8.92473,6.007335 18.70012,11.653311 29.28813,13.559323 11.51098,2.07216 23.61896,0.0547 34.98305,-2.711865 12.39776,-3.01821 24.02064,-8.863782 35.25424,-14.915254 8.89515,-4.791762 25.22034,-16.81356 25.22034,-16.81356 L 810.0339,4.8813538 c 0,0 -6.9574,15.5113512 -13.01695,21.1525422 -7.16145,6.667013 -16.83219,10.233061 -26.0339,13.559322 -7.21999,2.609904 -14.90216,5.922478 -22.50847,4.881356 C 741.18324,43.476564 734.6149,38.866182 728.94915,34.169489 720.6781,27.313107 708.88136,8.9491504 708.88136,8.9491504 z"
       style="fill:#6085ef;fill-opacity:1;stroke:#6085ef;stroke-width:1px;stroke-linecap:butt;stroke-linejoin:miter;stroke-opacity:1" />
    <path
       sodipodi:nodetypes="ccaaaccaaaac"
       inkscape:connector-curvature="0"
       id="path3187"
       d="m 878.64407,682.16132 c -0.27119,3.79661 0.82337,20.30958 0.82337,20.30958 0,0 47.55094,0.57325 71.31222,-0.098 10.13892,-0.28643 20.24019,-1.77375 30.38269,-1.67613 7.51998,0.0724 14.98351,1.39658 22.49865,1.67613 3.1616,0.11761 9.4915,0 9.4915,0 l 4.339,-14.91525 c 0,0 -8.8248,-0.71961 -13.2391,-1.05534 -8.87271,-0.67483 -17.73304,-1.59877 -26.62528,-1.92771 -16.88916,-0.62477 -33.80364,0.19315 -50.70206,-0.085 -12.30793,-0.20256 -24.62539,-0.38145 -36.91076,-1.15335 -3.79948,-0.23873 -11.37023,-1.07495 -11.37023,-1.07495 z"
       style="fill:#6085ef;fill-opacity:1;stroke:#6085ef;stroke-width:1px;stroke-linecap:butt;stroke-linejoin:miter;stroke-opacity:1" />
    <path
       sodipodi:nodetypes="ccaaccaaacc"
       inkscape:connector-curvature="0"
       id="path3189"
       d="m 881.08475,720 2.16949,19.25424 c 0,0 34.89221,-2.89805 52.33898,-4.33899 14.55984,-1.20251 29.08761,-4.28615 43.68062,-3.59404 8.34035,0.39556 24.65836,4.4076 24.65836,4.4076 l 4.8814,-17.08474 c 0,0 -18.91657,-3.38689 -28.48442,-3.59404 -15.68447,-0.33957 -31.23527,3.11458 -46.90545,3.86522 -13.36443,0.64019 -26.79936,-0.53594 -40.13559,0.54238 -4.28148,0.34619 -12.74577,1.8983 -12.74577,1.8983 z"
       style="fill:#6085ef;fill-opacity:1;stroke:#6085ef;stroke-width:1px;stroke-linecap:butt;stroke-linejoin:miter;stroke-opacity:1" />
    <path
       sodipodi:nodetypes="ccaaaccaaaac"
       inkscape:connector-curvature="0"
       id="path3191"
       d="m 884.61017,753.08475 c 0.27119,4.06779 1.62712,18.16949 1.62712,18.16949 0,0 18.8962,-4.29949 28.47458,-5.69492 12.66611,-1.84526 25.43837,-3.67786 38.23728,-3.52542 11.73876,0.13982 23.62946,1.08221 34.98306,4.06779 1.80228,0.47393 5.15254,2.1695 5.15254,2.1695 l 5.15254,-17.08475 c 0,0 -4.17418,-0.43973 -6.23729,-0.81356 -6.66688,-1.20801 -13.05379,-3.94608 -19.79661,-4.61017 -13.86118,-1.36516 -27.87792,0.2567 -41.76271,1.35593 -9.35533,0.74064 -18.62745,2.30385 -27.9322,3.52543 -5.97009,0.78379 -17.89831,2.44068 -17.89831,2.44068 z"
       style="fill:#6085ef;fill-opacity:1;stroke:#6085ef;stroke-width:1px;stroke-linecap:butt;stroke-linejoin:miter;stroke-opacity:1" />
    <path
       sodipodi:nodetypes="ccaaccaaac"
       inkscape:connector-curvature="0"
       id="path3193"
       d="m 886.77966,781.28814 c 0.81356,1.35593 2.16949,13.8305 2.16949,13.8305 0,0 32.51993,-4.1705 48.81356,-5.9661 10.11179,-1.11435 20.28938,-4.32952 30.37289,-2.98305 6.80607,0.90883 19.25423,7.32203 19.25423,7.32203 l 1.35593,-11.9322 c 0,0 -12.59269,-5.08829 -19.25423,-5.9661 -13.99118,-1.84365 -28.23522,0.53595 -42.30509,1.62712 -6.98685,0.54186 -13.90835,1.74282 -20.88135,2.44068 -6.49857,0.65038 -19.52543,1.62712 -19.52543,1.62712 z"
       style="fill:#6085ef;fill-opacity:1;stroke:#6085ef;stroke-width:1px;stroke-linecap:butt;stroke-linejoin:miter;stroke-opacity:1" />
    <path
       sodipodi:nodetypes="caaccaacc"
       inkscape:connector-curvature="0"
       id="path3195"
       d="m 889.49153,807.32203 c 1.62712,0.27119 31.28379,-1.50296 46.91525,-2.44067 9.31547,-0.55882 18.6042,-2.1783 27.93221,-1.89831 6.3769,0.19141 18.98305,2.44068 18.98305,2.44068 l -2.1695,10.84746 c 0,0 -24.85058,9.85815 -37.9661,11.66101 -10.83929,1.48997 -21.96129,0.5787 -32.81356,-0.81356 -7.45963,-0.95701 -21.9661,-5.15254 -21.9661,-5.15254 z"
       style="fill:#6085ef;fill-opacity:1;stroke:#6085ef;stroke-width:1px;stroke-linecap:butt;stroke-linejoin:miter;stroke-opacity:1" />
    <path
       sodipodi:nodetypes="ccaaccaaac"
       inkscape:connector-curvature="0"
       id="path3197"
       d="m 887.59322,834.44068 -0.81356,14.37288 c 0,0 17.92486,7.07523 27.38983,8.13559 12.33372,1.38175 24.86843,-0.6714 37.15255,-2.44068 10.63628,-1.53195 31.45762,-7.05084 31.45762,-7.05084 l -1.8983,-15.72882 c 0,0 -20.72348,6.91755 -31.45763,8.67797 -11.16794,1.83156 -22.61176,2.72995 -33.8983,1.8983 -6.25885,-0.46118 -12.45257,-1.9182 -18.44068,-3.79661 -3.28436,-1.03027 -9.49153,-4.06779 -9.49153,-4.06779 z"
       style="fill:#6085ef;fill-opacity:1;stroke:#6085ef;stroke-width:1px;stroke-linecap:butt;stroke-linejoin:miter;stroke-opacity:1" />
    <path
       sodipodi:nodetypes="ccaaccaaac"
       inkscape:connector-curvature="0"
       id="path3199"
       d="m 885.8297,865.28168 c 0.27119,1.35593 -0.72719,14.28652 -0.72719,14.28652 0,0 13.58422,6.57927 20.93139,7.75383 14.20276,2.27054 28.84447,0.13981 43.11864,-1.62712 12.56272,-1.55508 37.15255,-7.8644 37.15255,-7.8644 l -2.71187,-13.55932 c 0,0 -15.09795,-0.39064 -22.50847,0.81356 -7.90537,1.28461 -15.13927,5.53388 -23.05085,6.77966 -10.18318,1.60347 -20.72865,2.39517 -30.91525,0.81356 -7.42345,-1.15259 -21.28895,-7.39629 -21.28895,-7.39629 z"
       style="fill:#6085ef;fill-opacity:1;stroke:#6085ef;stroke-width:1px;stroke-linecap:butt;stroke-linejoin:miter;stroke-opacity:1" />
    <path
       sodipodi:nodetypes="ccaaaaccaaac"
       inkscape:connector-curvature="0"
       id="path3201"
       d="m 886.66985,895.21065 0.64136,18.03932 c 0,0 11.56723,1.77358 17.36676,2.54664 9.02458,1.20294 18.04314,2.52935 27.11864,3.25424 4.50903,0.36015 9.11969,1.4088 13.55932,0.54237 6.23393,-1.2166 11.29426,-5.96757 17.35594,-7.86441 6.22701,-1.94858 19.25423,-3.52542 19.25423,-3.52542 l 0,-14.1017 c 0,0 -14.42931,0.0878 -21.42373,1.62712 -7.82187,1.72144 -14.62699,6.98297 -22.50847,8.40678 -10.4078,1.8802 -21.39225,2.23896 -31.72881,0 -7.02653,-1.52199 -19.63524,-8.92494 -19.63524,-8.92494 z"
       style="fill:#6085ef;fill-opacity:1;stroke:#6085ef;stroke-width:1px;stroke-linecap:butt;stroke-linejoin:miter;stroke-opacity:1" />
    <path
       sodipodi:nodetypes="ccaaaccaaac"
       inkscape:connector-curvature="0"
       id="path3203"
       d="m 889.25666,928.64084 c 0,4.06779 0.0985,15.54399 0.0985,15.54399 0,0 10.84585,2.87238 16.40758,3.34059 13.69909,1.15325 27.80957,1.66833 41.22034,-1.35593 5.96315,-1.34475 10.8675,-5.9036 16.81356,-7.32203 4.57988,-1.09252 14.1017,-0.81356 14.1017,-0.81356 l 0.81356,-13.28814 c 0,0 -13.1807,-0.16358 -19.52543,1.35593 -5.63308,1.34907 -10.31082,5.69122 -16,6.77967 -11.72267,2.24278 -23.92675,0.43443 -35.79661,-0.81356 -6.11768,-0.64321 -18.1332,-3.42696 -18.1332,-3.42696 z"
       style="fill:#6085ef;fill-opacity:1;stroke:#6085ef;stroke-width:1px;stroke-linecap:butt;stroke-linejoin:miter;stroke-opacity:1" />
    <path
       sodipodi:nodetypes="caaaccaaaacc"
       inkscape:connector-curvature="0"
       id="path3205"
       d="m 890.71106,977.08475 c 0,0 6.47112,-1.86635 9.80065,-2.25746 13.55689,-1.59247 27.33604,0.69835 40.94915,-0.3059 5.7685,-0.42555 11.42402,-1.88112 17.18321,-2.41807 5.13576,-0.47883 15.45763,-0.71349 15.45763,-0.71349 l 0.81356,-16 c 0,0 -11.91697,2.83723 -17.97256,3.69654 -5.57033,0.79045 -11.19958,1.35893 -16.82566,1.33332 -8.77358,-0.0399 -17.44622,-2.17563 -26.21873,-2.318 -4.64151,-0.0753 -9.27351,0.45812 -13.90476,0.77564 -3.4919,0.2394 -10.4657,0.85148 -10.4657,0.85148 2.67368,-0.55439 1.3008,14.45382 1.18321,17.35594 z"
       style="fill:#6085ef;fill-opacity:1;stroke:#6085ef;stroke-width:1px;stroke-linecap:butt;stroke-linejoin:miter;stroke-opacity:1" />
    <path
       sodipodi:nodetypes="ccaaaccaaac"
       inkscape:connector-curvature="0"
       id="path3207"
       d="m 890.57627,991.18644 c 0.27119,3.79661 1.08475,16.27116 1.08475,16.27116 0,0 8.50968,-1.8447 12.83212,-2.2816 11.85095,-1.1977 23.81598,-0.5674 35.72236,-0.9105 5.51468,-0.1589 11.02569,-0.5881 16.54237,-0.5318 4.70277,0.048 14.08959,0.7409 14.08959,0.7409 l 1.8983,-18.71189 c 0,0 -11.14638,0.53041 -16.71509,0.8741 -6.30686,0.38925 -12.59701,1.04624 -18.90879,1.34543 -11.40902,0.5408 -22.90055,-0.41892 -34.25586,0.81195 -4.14917,0.44975 -12.28975,2.39225 -12.28975,2.39225 z"
       style="fill:#6085ef;fill-opacity:1;stroke:#6085ef;stroke-width:1px;stroke-linecap:butt;stroke-linejoin:miter;stroke-opacity:1" />
    <path
       sodipodi:nodetypes="cac"
       inkscape:connector-curvature="0"
       id="path4571"
       d="m 508.65428,693.0872 c 0,0 48.26859,-8.35484 72.6649,-8.88708 25.68784,-0.56041 76.84705,6.01184 76.84705,6.01184"
       style="fill:none;stroke:#000000;stroke-width:2.5;stroke-linecap:butt;stroke-linejoin:miter;stroke-miterlimit:4;stroke-opacity:1;stroke-dasharray:none" />
    <path
       sodipodi:nodetypes="caac"
       inkscape:connector-curvature="0"
       id="path4573"
       d="m 876.16091,681.58628 c 0,0 21.7609,1.96013 32.67307,2.35246 21.41969,0.77011 42.88146,-0.78552 64.30059,0 15.45283,0.56671 46.26503,3.398 46.26503,3.398"
       style="fill:none;stroke:#000000;stroke-width:2.5;stroke-linecap:butt;stroke-linejoin:miter;stroke-miterlimit:4;stroke-opacity:1;stroke-dasharray:none" />
  </g>
  <use
     x="0"
     y="0"
     xlink:href="#g4577"
     id="use4616"
     transform="matrix(-1,0,0,1,1023.9984,0)"
     width="1024"
     height="1024" />
</svg>
