<?xml version="1.0" encoding="UTF-8" standalone="no"?>
<!-- Created with Inkscape (http://www.inkscape.org/) -->

<svg
   xmlns:dc="http://purl.org/dc/elements/1.1/"
   xmlns:cc="http://creativecommons.org/ns#"
   xmlns:rdf="http://www.w3.org/1999/02/22-rdf-syntax-ns#"
   xmlns:svg="http://www.w3.org/2000/svg"
   xmlns="http://www.w3.org/2000/svg"
   xmlns:xlink="http://www.w3.org/1999/xlink"
   xmlns:sodipodi="http://sodipodi.sourceforge.net/DTD/sodipodi-0.dtd"
   xmlns:inkscape="http://www.inkscape.org/namespaces/inkscape"
   id="svg3055"
   version="1.1"
   inkscape:version="0.48.3.1 r9886"
   width="1024"
   height="1024"
   sodipodi:docname="aerlongcoat1.svg"
   inkscape:export-filename="/home/ari/Share/lipsofsuna/data/lipsofsuna/apparel/longcoat/aerlongcoat1.png"
   inkscape:export-xdpi="90"
   inkscape:export-ydpi="90">
  <metadata
     id="metadata3061">
    <rdf:RDF>
      <cc:Work
         rdf:about="">
        <dc:format>image/svg+xml</dc:format>
        <dc:type
           rdf:resource="http://purl.org/dc/dcmitype/StillImage" />
        <dc:title></dc:title>
      </cc:Work>
    </rdf:RDF>
  </metadata>
  <defs
     id="defs3059" />
  <sodipodi:namedview
     pagecolor="#ffffff"
     bordercolor="#666666"
     borderopacity="1"
     objecttolerance="10"
     gridtolerance="10"
     guidetolerance="10"
     inkscape:pageopacity="0"
     inkscape:pageshadow="2"
     inkscape:window-width="1887"
     inkscape:window-height="1058"
     id="namedview3057"
     showgrid="false"
     inkscape:zoom="4.5851455"
     inkscape:cx="957.89043"
     inkscape:cy="790.85239"
     inkscape:window-x="33"
     inkscape:window-y="0"
     inkscape:window-maximized="1"
     inkscape:current-layer="svg3055" />
  <g
     id="g3979">
    <path
       sodipodi:nodetypes="cccccscccccccccc"
       inkscape:connector-curvature="0"
       id="path3065"
       d="m 655.11325,549.62892 45.03133,7.40241 49.3494,-20.35663 35.77831,-38.86265 -6.78554,-69.08916 c 0,0 -35.16145,-40.09638 -37.62892,-40.09638 -2.46747,0 -57.36867,-5.55181 -57.36867,-5.55181 l -7.40241,18.50602 3.08433,32.69398 2.46747,21.59036 -12.33734,7.40241 -11.10362,19.12289 10.48675,14.80482 6.78554,5.55181 -9.25301,8.01927 z"
       style="fill:#252525;fill-opacity:1;stroke:none" />
    <path
       sodipodi:nodetypes="cccsssacccccccccaacccccccccccc"
       inkscape:connector-curvature="0"
       id="path3067"
       d="m 615.17109,325.08915 -6.3229,10e-6 -44.10602,-30.84338 c 0,0 -9.63193,-0.54005 -11.79758,0.23133 -3.51112,1.25061 -3.47592,4.08281 -6.25983,4.57583 -4.51981,0.80044 -8.61351,2.00202 -12.47753,4.29164 -5.89102,3.49072 -9.44171,9.95932 -13.57109,15.42168 -3.43091,4.53843 -9.25301,14.34217 -9.25301,14.34217 l -4.16385,206.34217 9.09879,-0.30843 35.16145,-2.46747 11.72048,-2.46747 14.18795,9.25301 10.48675,4.93494 9.25301,18.50602 17.72192,-7.51839 c 0,0 0.13383,5.06582 1.7078,6.78821 2.14007,2.34187 5.86654,2.55208 8.98361,3.14207 5.78224,1.09446 17.64221,0.66498 17.64221,0.66498 l -3.72047,-18.47397 2.69626,-1.87518 -21.59036,-38.86266 -20.9735,-28.99277 -9.86988,-24.6747 1.23374,-21.59036 18.04337,-50.27469 12.33735,-0.30844 c 1.6734,-5.27284 4.80867,-21.14366 4.94364,-30.86344 l -10.18702,-16.01849 z"
       style="fill:#252525;fill-opacity:1;stroke:none" />
    <path
       sodipodi:nodetypes="ccsccccccc"
       inkscape:connector-curvature="0"
       id="path3069"
       d="m 662.51566,556.41446 1.85061,188.76144 c 0,0 12.33734,1.85061 15.42168,3.08434 3.08434,1.23374 17.27229,-1.23373 17.27229,-1.23373 l 1.23374,-16.65543 7.40241,-34.54457 11.10361,-25.90844 0,-40.71325 -18.50602,-69.08916 z"
       style="fill:#252525;fill-opacity:1;stroke:none" />
    <path
       sodipodi:nodetypes="caaaaaasaaccaasaccaasscccccscccac"
       inkscape:connector-curvature="0"
       id="path3071"
       d="m 897.49512,558.98887 c 2.38444,4.22697 9.0622,3.48202 13.64913,5.06723 3.64041,1.25811 7.3306,2.36748 11.0042,3.52508 4.79641,1.5114 9.52177,3.28713 14.41058,4.46586 9.72745,2.34537 19.63665,3.97077 29.57222,5.15757 9.55649,1.14151 19.18871,2.01958 28.81209,1.8784 4.09131,-0.06 8.21296,-0.33194 12.22056,-1.15757 4.7896,-0.98672 13.7821,-3.16477 13.9627,-4.50196 0.9401,-6.95937 2.6417,-13.60871 3.2682,-20.49988 0.5846,-6.43104 0.1514,-12.91679 0.4497,-19.36744 0.3614,-7.81264 1.623,-23.40676 1.623,-23.40676 l -1.0157,-269.06116 c 0,0 -20.1725,2.74063 -29.82771,0.36457 -5.84828,-1.4392 -11.69929,-4.26515 -15.90115,-8.58002 -3.07703,-3.15979 -3.45412,-5.36408 -5.97196,-11.80706 -1.34044,-3.43009 -3.33085,-7.332 -4.97709,-11.00662 -2.24047,-5.00102 -6.66911,-15.02637 -6.66911,-15.02637 l -63.74048,29.58185 c 0,0 0.20006,2.54377 0.32393,3.81347 0.57996,5.94476 1.1022,11.90046 1.96286,17.81111 1.54104,10.58318 0.82584,21.73143 5.72606,31.56929 2.02661,4.06868 4.08078,16.96437 7.50695,21.43669 3.24016,4.22952 18.81952,-0.0644 18.81952,-0.0644 l -3.51305,19.93222 -8.47488,12.30292 -0.11959,14.7772 5.93884,22.69368 c 0,0 0.61687,31.46024 1.8506,34.54457 1.23374,3.08434 2.46747,57.36868 2.46747,57.36868 l -5.5518,27.75904 -23.44097,47.49879 c 0,0 -8.18806,16.15401 -4.36512,22.93104 z"
       style="fill:#252525;fill-opacity:1;stroke:none" />
  </g>
  <use
     x="0"
     y="0"
     xlink:href="#g3979"
     id="use3987"
     transform="matrix(-1,0,0,1,1023.8298,0)"
     width="1024"
     height="1024" />
</svg>
