<?xml version="1.0" encoding="UTF-8" standalone="no"?>
<!-- Created with Inkscape (http://www.inkscape.org/) -->

<svg
   xmlns:dc="http://purl.org/dc/elements/1.1/"
   xmlns:cc="http://creativecommons.org/ns#"
   xmlns:rdf="http://www.w3.org/1999/02/22-rdf-syntax-ns#"
   xmlns:svg="http://www.w3.org/2000/svg"
   xmlns="http://www.w3.org/2000/svg"
   xmlns:xlink="http://www.w3.org/1999/xlink"
   xmlns:sodipodi="http://sodipodi.sourceforge.net/DTD/sodipodi-0.dtd"
   xmlns:inkscape="http://www.inkscape.org/namespaces/inkscape"
   id="svg4811"
   version="1.1"
   inkscape:version="0.48.3.1 r9886"
   width="1024"
   height="1024"
   sodipodi:docname="aerdress2.svg"
   inkscape:export-filename="/home/ari/Share/lipsofsuna-data/apparel/aerdress2.png"
   inkscape:export-xdpi="90"
   inkscape:export-ydpi="90">
  <metadata
     id="metadata4817">
    <rdf:RDF>
      <cc:Work
         rdf:about="">
        <dc:format>image/svg+xml</dc:format>
        <dc:type
           rdf:resource="http://purl.org/dc/dcmitype/StillImage" />
        <dc:title></dc:title>
      </cc:Work>
    </rdf:RDF>
  </metadata>
  <defs
     id="defs4815" />
  <sodipodi:namedview
     pagecolor="#ffffff"
     bordercolor="#666666"
     borderopacity="1"
     objecttolerance="10"
     gridtolerance="10"
     guidetolerance="10"
     inkscape:pageopacity="0"
     inkscape:pageshadow="2"
     inkscape:window-width="1887"
     inkscape:window-height="1058"
     id="namedview4813"
     showgrid="false"
     inkscape:zoom="1.3037281"
     inkscape:cx="367.62282"
     inkscape:cy="522.81986"
     inkscape:window-x="33"
     inkscape:window-y="0"
     inkscape:window-maximized="1"
     inkscape:current-layer="svg4811" />
  <g
     id="g5425"
     style="fill:#c68ced;fill-opacity:1">
    <path
       sodipodi:nodetypes="ccccccccccccc"
       inkscape:connector-curvature="0"
       id="path4849"
       d="m 654.43469,1020.6607 13.22633,-88.86409 13.55932,-15.18644 7.05085,-53.69492 12.47457,-0.54237 2.1695,31.45763 24.94915,-7.59322 20.61017,7.05085 8.13559,23.8644 10.44467,102.26446 -69.32729,0.098 -2.40608,1.2275 z"
       style="fill:#c68ced;fill-opacity:1;stroke:#000000;stroke-width:3;stroke-linecap:butt;stroke-linejoin:miter;stroke-miterlimit:4;stroke-opacity:1;stroke-dasharray:none" />
    <path
       sodipodi:nodetypes="csccccccc"
       inkscape:connector-curvature="0"
       id="path4851"
       d="m 663.32203,555.38983 c 0,0 -3.25423,55.32203 -2.71186,59.66102 0.54237,4.33898 1.62712,130.16949 1.62712,130.16949 l 35.25424,4.88135 4.33898,-29.28813 15.18644,-50.44068 2.16949,-42.30508 -19.52542,-68.88136 z"
       style="fill:#c68ced;fill-opacity:1;stroke:none;stroke-width:3;stroke-linecap:butt;stroke-linejoin:miter;stroke-opacity:1;stroke-miterlimit:4;stroke-dasharray:none" />
    <path
       sodipodi:nodetypes="cccccccaacccccc"
       inkscape:connector-curvature="0"
       id="path4853"
       d="m 656.81356,548.33898 43.9322,8.67797 50.44068,-20.0678 37.9661,-40.67796 -8.67796,-68.33899 -36.88136,-35.79661 -28.69893,0.19506 c 0,0 -10.49482,11.84821 -14.6909,18.51681 -5.83492,9.27311 -9.30555,19.84545 -14.37288,29.55932 -6.17654,11.84018 -19.52542,34.98305 -19.52542,34.98305 l -0.95709,12.04028 4.9722,25.74264 -1.6494,8.80207 -12.81505,12.85198 z"
       style="fill:#c68ced;fill-opacity:1;stroke:none" />
    <path
       sodipodi:nodetypes="cccccccccccccccaacccaaaaaccccccccsc"
       inkscape:connector-curvature="0"
       id="path4855"
       d="m 653.01695,719.72881 -70.50847,-11.38983 -13.01695,-75.9322 -7.59322,-23.32203 -9.22034,-13.01695 -14.64407,-3.79661 -23.86441,8.67796 -1.8983,-0.27119 -0.54237,-175.99999 18.71186,-1.08475 0,-5.9661 18.44068,0 13.01695,-15.72882 7.59322,-25.49152 -0.54238,-11.38983 c 0,0 -13.89722,-3.49233 -16.56963,-9.22034 -3.95754,-8.48255 3.12905,-18.47127 5.30176,-27.57594 2.40746,-10.08842 8.55601,-29.91559 8.55601,-29.91559 l 1.62712,-2.71186 7.05085,1.08474 c 0,0 -1.36884,6.05364 -2.0339,9.08475 -1.06014,4.83169 -2.93634,9.56521 -3.11865,14.50847 -0.24217,6.56649 0.68022,13.27644 2.71187,19.52543 2.31319,7.11497 6.2176,13.71584 10.57627,19.79661 4.61999,6.44533 10.3518,12.07885 16.27118,17.35593 2.52942,2.25496 8.16285,6.05916 8.16285,6.05916 l -1.112,11.29677 -14.10169,45.55933 1.08474,23.8644 11.93221,23.86441 25.49152,34.71186 14.64407,29.28814 4.33898,36.88136 c 0,0 2.71187,45.55932 2.71187,48.27118 0,2.71187 0.54237,82.98305 0.54237,82.98305 z"
       style="fill:#c68ced;fill-opacity:1;stroke:#000000;stroke-width:3;stroke-linecap:butt;stroke-linejoin:miter;stroke-miterlimit:4;stroke-opacity:1;stroke-dasharray:none" />
    <path
       sodipodi:nodetypes="ccccsccccccccaaaaaaaaaccccaaaaaaaaaaaaccccccccccc"
       inkscape:connector-curvature="0"
       id="path4857"
       d="m 983.86441,707.79661 -50.44068,-0.54237 -49.8983,6.50847 -7.05085,-0.54237 c 0,0 2.16949,-25.49153 2.16949,-28.20339 0,-2.71187 3.25424,-87.32204 3.25424,-87.32204 L 892.20339,554.30508 913.89831,505.49152 926.91526,480 l 3.25423,-48.81356 -3.79661,-32.54237 0,-29.28814 2.30509,-1.62712 c 0,0 13.10911,-5.72371 18.84746,-9.8983 4.65225,-3.38446 9.5575,-7.03179 12.33898,-12.0678 2.79449,-5.05958 2.81966,-11.2307 3.66102,-16.94915 1.3266,-9.01641 1.54641,-18.16208 2.16948,-27.25424 0.53856,-7.85895 -0.0112,-15.83537 1.35594,-23.59322 0.40947,-2.32359 2.09473,-4.42105 2.0339,-6.77966 -0.0866,-3.35845 -2.76138,-6.19127 -3.38983,-9.49153 -0.50757,-2.66547 0.40431,-5.50765 -0.27119,-8.13559 -1.61534,-6.28422 -5.94802,-11.53446 -8.81356,-17.35593 -4.77665,-9.70395 -13.9661,-29.28814 -13.9661,-29.28814 l -1.62712,-2.57627 7.59322,-3.66102 c 0,0 0.67797,1.62712 0.94915,2.1695 0.27119,0.54237 6.22684,11.73763 8.67797,17.8983 0.99876,2.51028 1.25282,5.30228 2.44068,7.72881 1.32848,2.71377 3.98179,4.67217 5.15254,7.45763 0.55298,1.31565 0.23256,2.89988 0.81356,4.20339 0.94579,2.12194 3.25101,3.44032 4.20339,5.55932 0.75582,1.68167 0.44745,3.69366 1.08475,5.42373 1.09105,2.96185 3.74058,5.23693 4.61017,8.27119 2.7553,9.61403 1.20172,19.96923 1.49152,29.9661 0.31827,10.97881 -0.41919,21.98745 0.27119,32.94915 0.36331,5.76858 -0.17924,11.88081 2.0339,17.22034 2.09466,5.0537 5.95951,9.38799 10.16949,12.88136 5.69425,4.72499 12.76452,7.62406 19.66102,10.30508 4.4449,1.72796 13.8305,3.66102 13.8305,3.66102 l 3.2542,0.13559 0,192.94916 -5.2881,28.74576 -6.3729,13.69491 -5.5593,14.37289 -12.33898,17.62711 -1.22034,18.84746 L 992,676.47458 985.76271,708.0678 z"
       style="fill:#c68ced;fill-opacity:1;stroke:#000000;stroke-width:3;stroke-linecap:butt;stroke-linejoin:miter;stroke-miterlimit:4;stroke-opacity:1;stroke-dasharray:none" />
  </g>
  <use
     x="0"
     y="0"
     xlink:href="#g5425"
     id="use5434"
     transform="matrix(-1,0,0,1,1024.152,0)"
     width="1024"
     height="1024"
     style="fill:#c68ced;fill-opacity:1" />
  <rect
     style="fill:#c68ced;fill-opacity:1;stroke:none"
     id="rect5438"
     width="3.7392347"
     height="173.44487"
     x="510.17154"
     y="426.00339" />
  <path
     style="fill:none;stroke:#000000;stroke-width:3;stroke-linecap:butt;stroke-linejoin:miter;stroke-opacity:1;stroke-miterlimit:4;stroke-dasharray:none"
     d="m 661.96611,670.91525 c 13.46857,-10.53089 33.63446,-24.41045 52.61017,-37.69491"
     id="path6140"
     inkscape:connector-curvature="0"
     sodipodi:nodetypes="cc" />
  <use
     x="0"
     y="0"
     xlink:href="#path6140"
     id="use6142"
     transform="matrix(-1,0,0,1,1024,0)"
     width="1024"
     height="1024" />
  <path
     style="fill:none;stroke:#000000;stroke-width:3;stroke-linecap:butt;stroke-linejoin:miter;stroke-miterlimit:4;stroke-opacity:1;stroke-dasharray:none"
     d="m 714.48946,391.77462 c 0,0 -10.33055,14.72976 -14.9571,22.43566 -8.40553,14.0001 -16.13463,28.42484 -23.2027,43.1455 -1.61033,3.35383 -4.36555,10.27199 -4.36555,10.27199"
     id="path6144"
     inkscape:connector-curvature="0"
     sodipodi:nodetypes="caac" />
  <use
     x="0"
     y="0"
     xlink:href="#path6144"
     id="use6146"
     transform="matrix(-1,0,0,1,1024.6066,0)"
     width="1024"
     height="1024" />
</svg>
